<svg id="Capa_1" enable-background="new 0 0 495.069 495.069" height="512" viewBox="0 0 495.069 495.069" width="512" xmlns="http://www.w3.org/2000/svg"><circle cx="247.534" cy="247.534" fill="#fee565" r="247.534"/><path d="m76.911 247.534c0-123.628 90.654-226.086 209.099-244.562-12.532-1.955-25.394-2.972-38.476-2.972-136.709 0-247.534 110.825-247.534 247.534s110.825 247.534 247.534 247.534c13.081 0 25.95-1.018 38.483-2.974-118.445-18.475-209.106-120.931-209.106-244.56z" fill="#fdd62f"/><g><path d="m316.519 360.028c-2.028 0-4.051-.818-5.53-2.431-16.846-18.372-40.783-28.908-65.675-28.908s-48.829 10.537-65.675 28.908c-2.801 3.053-7.545 3.258-10.597.459-3.054-2.799-3.259-7.543-.46-10.597 19.68-21.461 47.647-33.771 76.731-33.771s57.052 12.309 76.731 33.771c2.799 3.053 2.594 7.797-.46 10.597-1.438 1.32-3.254 1.972-5.065 1.972z" fill="#685e67"/></g><g><path d="m267.099 379.981c-2.028 0-4.051-.818-5.53-2.431-4.17-4.548-10.095-7.157-16.255-7.157s-12.085 2.608-16.255 7.157c-2.801 3.053-7.545 3.258-10.597.459-3.054-2.799-3.259-7.543-.46-10.597 7.005-7.638 16.959-12.019 27.312-12.019s20.307 4.381 27.312 12.019c2.799 3.053 2.594 7.797-.46 10.597-1.44 1.32-3.256 1.972-5.067 1.972z" fill="#fde044"/></g><g><path d="m160.364 229.888c-23.871 0-43.291-19.42-43.291-43.291 0-4.142 3.357-7.5 7.5-7.5s7.5 3.358 7.5 7.5c0 15.6 12.691 28.291 28.291 28.291s28.29-12.691 28.29-28.291c0-4.142 3.357-7.5 7.5-7.5s7.5 3.358 7.5 7.5c0 23.871-19.42 43.291-43.29 43.291z" fill="#685e67"/></g><g><path d="m329.675 229.888c-23.871 0-43.291-19.42-43.291-43.291 0-4.142 3.357-7.5 7.5-7.5s7.5 3.358 7.5 7.5c0 15.6 12.691 28.291 28.291 28.291s28.29-12.691 28.29-28.291c0-4.142 3.357-7.5 7.5-7.5s7.5 3.358 7.5 7.5c0 23.871-19.42 43.291-43.29 43.291z" fill="#685e67"/></g><g><path d="m108.756 164.936c-5.626 0-11.343-1.061-16.88-3.276-3.846-1.539-5.716-5.904-4.177-9.75 1.538-3.846 5.903-5.716 9.749-4.177 13.867 5.548 29.441.238 37.03-12.628l1.142-1.936c2.106-3.568 6.705-4.752 10.271-2.648 3.568 2.104 4.754 6.703 2.649 10.271l-1.142 1.935c-8.348 14.153-23.142 22.209-38.642 22.209z" fill="#685e67"/></g><g><path d="m382.872 164.936c-15.501 0-30.294-8.055-38.643-22.211l-1.142-1.934c-2.104-3.568-.919-8.166 2.649-10.271 3.566-2.104 8.165-.919 10.271 2.648l1.142 1.935c7.588 12.867 23.16 18.178 37.03 12.629 3.842-1.537 8.21.331 9.749 4.177s-.331 8.21-4.177 9.75c-5.536 2.215-11.255 3.277-16.879 3.277z" fill="#685e67"/></g></svg>