<?xml version="1.0" standalone="no"?>
<!DOCTYPE svg PUBLIC "-//W3C//DTD SVG 1.1//EN" "http://www.w3.org/Graphics/SVG/1.1/DTD/svg11.dtd" >
<svg xmlns="http://www.w3.org/2000/svg">
<metadata>
<json>
<![CDATA[
{
	"fontFamily": "icomoon",
	"majorVersion": 1,
	"minorVersion": 0,
	"version": "Version 1.0",
	"fontId": "icomoon",
	"psName": "icomoon",
	"subFamily": "Regular",
	"fullName": "icomoon",
	"description": "Font generated by IcoMoon."
}
]]>
</json>
</metadata>
<defs>
<font id="icomoon" horiz-adv-x="1024">
<font-face units-per-em="1024" ascent="960" descent="-64" />
<missing-glyph horiz-adv-x="1024" />
<glyph unicode="&#x20;" horiz-adv-x="512" d="" />
<glyph unicode="&#xe900;" glyph-name="profile" data-tags="user" d="M512 383.222c-307.674 0-477.12-145.552-477.12-409.85 0-20.642 16.73-37.372 37.372-37.372h879.494c20.642 0 37.372 16.73 37.372 37.372 0.002 264.284-169.444 409.85-477.118 409.85zM110.984 10.744c14.7 197.612 149.426 297.732 401.016 297.732s386.318-100.12 401.030-297.732h-802.046zM512 960c-141.33 0-247.902-108.716-247.902-252.874 0-148.38 111.208-269.080 247.902-269.080s247.902 120.7 247.902 269.068c0 144.17-106.572 252.886-247.902 252.886zM512 512.778c-95.486 0-173.158 87.178-173.158 194.336 0 103.222 72.826 178.142 173.158 178.142 98.726 0 173.158-76.576 173.158-178.142 0-107.158-77.672-194.336-173.158-194.336z" />
<glyph unicode="&#xe901;" glyph-name="money" data-tags="coins" d="M672 928c-170.624 0-352-56.064-352-160v-128c0-17.664 14.336-32 32-32s32 14.336 32 32v33.344c67.904-42.816 180.032-65.344 288-65.344s220.096 22.528 288 65.344v-33.344c0-31.296-78.72-81.216-226.688-93.568-17.536-1.408-30.656-16.96-29.184-34.56 1.344-16.704 15.36-29.312 31.808-29.312 0.96 0 1.792 0.064 2.752 0.128 83.328 6.976 166.336 28.544 221.312 63.552v-34.24c0-27.328-57.984-66.624-165.568-85.632-17.344-3.072-28.992-19.712-25.92-37.056 2.752-15.488 16.256-26.432 31.424-26.432 1.856 0 3.776 0.128 5.632 0.512 65.088 11.456 117.184 30.208 154.432 54.016v-33.408c0-27.328-57.984-66.624-165.568-85.632-17.344-3.072-28.992-19.712-25.92-37.056 2.752-15.488 16.256-26.432 31.424-26.432 1.856 0 3.776 0.128 5.632 0.512 65.088 11.456 117.184 30.272 154.432 54.016v-33.408c0-27.328-57.984-66.624-165.568-85.632-17.344-3.072-28.992-19.712-25.92-37.056 2.752-15.488 16.256-26.432 31.424-26.432 1.856 0 3.776 0.128 5.632 0.512 65.088 11.456 117.184 30.272 154.432 54.016v-33.408c0-31.296-78.72-81.216-226.688-93.568-17.536-1.408-30.656-16.96-29.184-34.56 1.344-16.704 15.36-29.312 31.808-29.312 0.96 0 1.792 0.064 2.752 0.128 142.016 11.904 285.312 65.088 285.312 157.312v640c0 103.936-181.376 160-352 160zM672 672c-175.808 0-288 56.896-288 96s112.192 96 288 96 288-56.896 288-96-112.192-96-288-96zM352 544c-170.624 0-352-56.064-352-160v-256c0-103.936 181.376-160 352-160s352 56.064 352 160v256c0 103.936-181.376 160-352 160zM640 128c0-39.104-112.192-96-288-96s-288 56.896-288 96v33.344c67.904-42.816 180.032-65.344 288-65.344s220.096 22.528 288 65.344v-33.344zM640 256c0-39.104-112.192-96-288-96s-288 56.896-288 96v33.344c67.904-42.816 180.032-65.344 288-65.344s220.096 22.528 288 65.344v-33.344zM352 288c-175.808 0-288 56.896-288 96s112.192 96 288 96 288-56.896 288-96-112.192-96-288-96z" />
<glyph unicode="&#xe902;" glyph-name="language" data-tags="global" d="M874.040 810.040c-96.706 96.702-225.28 149.96-362.040 149.96s-265.334-53.258-362.040-149.96c-96.702-96.704-149.96-225.28-149.96-362.040s53.258-265.336 149.96-362.040c96.706-96.702 225.28-149.96 362.040-149.96s265.334 53.258 362.040 149.96c96.702 96.704 149.96 225.28 149.96 362.040s-53.258 265.336-149.96 362.040zM414.898 889.464c-17.174-16.706-35.736-36.614-54.308-59.786-32.116-40.074-58.858-83.206-79.774-128.564h-143.12c63.926 94.23 162.47 163.134 277.202 188.35zM103.39 641.114h153.638c-17.486-52.232-27.658-106.866-30.314-163.114h-165.694c3.822 58.018 18.626 113.076 42.37 163.114zM61.020 418h165.694c2.656-56.248 12.826-110.882 30.314-163.114h-153.638c-23.744 50.038-38.548 105.096-42.37 163.114zM137.696 194.886h143.12c20.916-45.356 47.658-88.49 79.774-128.564 18.57-23.172 37.132-43.080 54.308-59.786-114.732 25.216-213.276 94.12-277.202 188.35zM482 26.388c-21.366 18.422-47.932 44.192-74.59 77.456-23.314 29.092-43.28 59.47-59.914 91.042h134.504v-168.498zM482 254.886h-161.564c-19.502 51.65-30.734 106.126-33.646 163.114h195.21v-163.114zM482 478h-195.21c2.914 56.98 14.16 111.454 33.67 163.114h161.54v-163.114zM482 701.114h-134.504c16.292 30.924 35.788 60.702 58.486 89.254 26.998 33.958 54.192 60.344 76.018 79.16v-168.414zM962.98 478h-165.694c-2.656 56.248-12.826 110.882-30.314 163.114h153.638c23.744-50.038 38.55-105.096 42.37-163.114zM886.304 701.114h-143.12c-20.916 45.356-47.658 88.49-79.774 128.564-18.57 23.172-37.132 43.080-54.308 59.786 114.734-25.216 213.278-94.12 277.202-188.35zM542 869.612c21.366-18.422 47.932-44.192 74.59-77.456 23.314-29.092 43.28-59.47 59.916-91.042h-134.506v168.498zM542 641.114h161.564c19.504-51.65 30.734-106.126 33.646-163.114h-195.21v163.114zM542 418h195.208c-2.914-56.98-14.16-111.454-33.67-163.114h-161.538v163.114zM542 26.474v168.412h134.504c-16.292-30.924-35.788-60.702-58.486-89.252-26.998-33.958-54.19-60.342-76.018-79.16zM609.104 6.536c17.174 16.706 35.736 36.614 54.308 59.786 32.116 40.074 58.858 83.206 79.774 128.564h143.12c-63.926-94.23-162.47-163.134-277.202-188.35zM920.61 254.886h-153.638c17.486 52.232 27.658 106.866 30.314 163.114h165.694c-3.82-58.018-18.626-113.076-42.37-163.114z" />
<glyph unicode="&#xe903;" glyph-name="daily-2" data-tags="daily" d="M288 462h-64c-16.568 0-30-13.432-30-30s13.432-30 30-30h64c16.568 0 30 13.432 30 30s-13.432 30-30 30zM288 334h-64c-16.568 0-30-13.432-30-30s13.432-30 30-30h64c16.568 0 30 13.432 30 30s-13.432 30-30 30zM288 206h-64c-16.568 0-30-13.432-30-30s13.432-30 30-30h64c16.568 0 30 13.432 30 30s-13.432 30-30 30zM544 462h-64c-16.568 0-30-13.432-30-30s13.432-30 30-30h64c16.568 0 30 13.432 30 30s-13.432 30-30 30zM544 334h-64c-16.568 0-30-13.432-30-30s13.432-30 30-30h64c16.568 0 30 13.432 30 30s-13.432 30-30 30zM544 206h-64c-16.568 0-30-13.432-30-30s13.432-30 30-30h64c16.568 0 30 13.432 30 30s-13.432 30-30 30zM800 462h-64c-16.568 0-30-13.432-30-30s13.432-30 30-30h64c16.568 0 30 13.432 30 30s-13.432 30-30 30zM800 334h-64c-16.568 0-30-13.432-30-30s13.432-30 30-30h64c16.568 0 30 13.432 30 30s-13.432 30-30 30zM800 206h-64c-16.568 0-30-13.432-30-30s13.432-30 30-30h64c16.568 0 30 13.432 30 30s-13.432 30-30 30zM934 830h-72v50c0 16.568-13.432 30-30 30s-30-13.432-30-30v-50h-260v50c0 16.568-13.432 30-30 30s-30-13.432-30-30v-50h-260v50c0 16.568-13.432 30-30 30s-30-13.432-30-30v-50h-72c-49.626 0-90-40.374-90-90v-664c0-49.626 40.374-90 90-90h844c49.626 0 90 40.374 90 90 0 19.364 0 647.15 0 664 0 49.626-40.374 90-90 90zM60 740c0 16.542 13.458 30 30 30h72v-50c0-16.568 13.432-30 30-30s30 13.432 30 30v50h260v-50c0-16.568 13.432-30 30-30s30 13.432 30 30v50h260v-50c0-16.568 13.432-30 30-30s30 13.432 30 30v50h72c16.542 0 30-13.458 30-30v-118h-904zM934 46h-844c-16.542 0-30 13.458-30 30v486h904v-486c0-16.542-13.458-30-30-30z" />
<glyph unicode="&#xe904;" glyph-name="language-2" data-tags="translate" d="M933.997 718.002h-439.911l-73.617 221.462c-4.076 12.262-15.546 20.536-28.468 20.536h-301.998c-49.626 0-89.999-40.374-89.999-89.999v-601.995c0-49.626 40.374-89.999 89.999-89.999h330.591l73.017-220.874c4.034-12.936 15.998-21.132 28.658-21.132 0.070 0 0.14 0.008 0.21 0.008h411.519c49.626 0 89.999 40.374 89.999 89.999v601.995c-0.002 49.626-40.376 89.999-90.001 89.999zM90.003 238.006c-16.542 0-30 13.458-30 30v601.995c0 16.542 13.458 30 30 30h280.356l220.052-661.995c-112.383 0-389.445 0-500.408 0zM585.457 178.006l-58.8-129.681-42.87 129.681zM963.996 26.007c0-16.542-13.458-30-30-30h-365.181l90.505 199.61c3.246 7.158 3.398 15.088 1.142 21.864l-146.433 440.521h419.967c16.542 0 30-13.458 30-30zM392.001 598.003h-89.999c-16.568 0-30-13.432-30-30s13.432-30 30-30h54.84c-12.384-34.918-45.73-60-84.839-60-49.626 0-89.999 40.374-89.999 89.999s40.374 89.999 89.999 89.999c24.040 0 46.64-9.362 63.64-26.36 11.714-11.716 30.71-11.716 42.426 0 11.714 11.716 11.714 30.71 0 42.426-28.332 28.332-65.999 43.934-106.065 43.934-82.709 0-149.999-67.289-149.999-149.999s67.289-149.999 149.999-149.999 149.999 67.289 149.999 149.999c0 16.568-13.432 30-30 30zM871.997 478.004h-89.999v30c0 16.568-13.432 30-30 30s-30-13.432-30-30v-30h-89.999c-16.568 0-30-13.432-30-30s13.432-30 30-30h174.277c-9.542-28.37-30.040-61.992-53.876-94.347-5.134 6.932-10.204 14.026-15.094 21.218-9.318 13.702-27.976 17.256-41.676 7.938-13.702-9.316-17.254-27.976-7.938-41.678 8.416-12.378 17.24-24.422 26.034-35.838-14.992-17.388-29.77-33.14-42.738-45.88-11.826-11.604-12.006-30.598-0.402-42.424 11.556-11.778 30.548-12.054 42.424-0.402 1.034 1.016 17.396 17.132 39.248 41.874 21.326-24.4 37.29-40.436 38.528-41.674 11.71-11.71 30.698-11.716 42.416-0.004 11.716 11.71 11.722 30.704 0.014 42.424-0.314 0.314-18.68 18.784-42.118 46.118 42.466 54.896 68.357 102.713 77.325 142.675h3.572c16.568 0 30 13.432 30 30s-13.43 30-29.998 30z" />
<glyph unicode="&#xe905;" glyph-name="close" data-tags="cross" d="M568.571 447.997l443.713 443.715c15.622 15.622 15.622 40.95 0 56.57s-40.95 15.622-56.57 0l-443.715-443.715-443.713 443.715c-15.622 15.622-40.95 15.622-56.57 0s-15.622-40.95 0-56.57l443.713-443.713-443.713-443.715c-15.622-15.622-15.622-40.95 0-56.57 7.81-7.81 18.048-11.714 28.286-11.714s20.474 3.904 28.286 11.714l443.711 443.713 443.713-443.713c7.81-7.81 18.048-11.714 28.286-11.714s20.474 3.904 28.286 11.714c15.622 15.622 15.622 40.95 0 56.57l-443.713 443.713z" />
<glyph unicode="&#xe906;" glyph-name="comments" data-tags="comment" d="M0 56.957v501.045c0 154.952 126.088 281.040 281.040 281.040h461.852c154.986 0 281.108-126.088 281.108-281.040v-86.422c0-154.952-126.088-281.040-281.040-281.040h-455.404l-287.556-133.583zM281.040 776.387c-120.417 0-218.384-97.967-218.384-218.384v-402.842l211.093 98.069h469.211c120.417 0 218.384 97.967 218.384 218.384v86.422c0 120.417-98.001 218.384-218.452 218.384l-461.852-0.034zM301.701 562.762c32.915 0 59.584-26.669 59.584-59.584s-26.669-59.584-59.584-59.584-59.584 26.669-59.584 59.584 26.669 59.584 59.584 59.584zM722.266 562.762c32.915 0 59.584-26.669 59.584-59.584s-26.669-59.584-59.584-59.584-59.584 26.669-59.584 59.584 26.669 59.584 59.584 59.584zM511.949 562.762c32.915 0 59.584-26.669 59.584-59.584s-26.669-59.584-59.584-59.584-59.584 26.669-59.584 59.584 26.669 59.584 59.584 59.584z" />
<glyph unicode="&#xe907;" glyph-name="daily" data-tags="calendar" d="M949.976 861.302h-875.952c-34.014 0-61.686-27.672-61.686-61.686v-801.928c0-34.016 27.672-61.688 61.686-61.688h875.952c34.014 0 61.686 27.672 61.686 61.686v801.928c0 34.014-27.672 61.688-61.686 61.688zM937.638 10.024h-851.276v777.254h851.278v-777.254zM49.35 614.554h925.302v-74.024h-925.302v74.024zM271.422 960c-20.442 0-37.012-16.57-37.012-37.012v-197.398c0-20.442 16.57-37.012 37.012-37.012s37.012 16.57 37.012 37.012v197.398c0 20.442-16.57 37.012-37.012 37.012zM764.916 960c-20.442 0-37.012-16.57-37.012-37.012v-197.398c0-20.442 16.57-37.012 37.012-37.012s37.012 16.57 37.012 37.012v197.398c0 20.442-16.57 37.012-37.012 37.012zM653.88 219.76h-271.422c-20.442 0-37.012-16.57-37.012-37.012s16.57-37.012 37.012-37.012h271.422c20.442 0 37.012 16.57 37.012 37.012s-16.57 37.012-37.012 37.012zM653.88 392.482h-271.422c-20.442 0-37.012-16.57-37.012-37.012s16.57-37.012 37.012-37.012h271.422c20.442 0 37.012 16.568 37.012 37.012s-16.57 37.012-37.012 37.012z" />
<glyph unicode="&#xe908;" glyph-name="heart" data-tags="like" d="M933.412 827.654c-59.218 59.218-138.448 91.828-223.12 91.828-72.896 0-141.752-24.176-197.286-68.684-56.332 44.508-125.274 68.684-197.458 68.684-85.064 0-164.504-32.624-223.72-91.828-59.218-59.206-91.828-138.45-91.828-223.108 0-84.67 32.61-163.902 91.828-223.106l394.13-394.13c7.182-7.196 16.612-10.792 26.042-10.792 9.406 0 18.81 3.586 26.006 10.744l394.448 393.246c59.046 60.37 91.546 139.712 91.546 223.424 0 84.486-32.070 163.828-90.588 223.722zM880.112 432.358l-368.076-366.946-368.124 368.112c-45.294 45.306-70.244 106.046-70.244 171.022s24.95 125.716 70.244 171.022c45.306 45.294 106.256 70.244 171.636 70.244 64.338 0 125.41-25.060 171.932-70.538 14.414-14.108 37.534-13.984 51.79 0.294 45.306 45.294 106.034 70.244 171.022 70.244s125.716-24.95 170.716-69.948c44.704-45.736 69.322-106.796 69.322-171.932 0-64.35-25.046-125.408-70.218-171.574z" />
<glyph unicode="&#xe909;" glyph-name="view" data-tags="view" d="M1017.492 467.917c-9.148 12.514-227.114 306.413-505.497 306.413s-496.359-293.899-505.497-306.401c-8.664-11.872-8.664-27.974 0-39.846 9.138-12.514 227.114-306.413 505.497-306.413s496.349 293.901 505.497 306.403c8.676 11.87 8.676 27.984 0 39.844zM511.995 189.186c-205.058 0-382.661 195.066-435.235 258.837 52.506 63.826 229.736 258.791 435.235 258.791 205.048 0 382.639-195.032 435.235-258.837-52.506-63.824-229.736-258.791-435.235-258.791zM511.995 650.549c-111.684 0-202.55-90.866-202.55-202.55s90.866-202.55 202.55-202.55 202.55 90.866 202.55 202.55-90.866 202.55-202.55 202.55zM511.995 312.967c-74.46 0-135.032 60.574-135.032 135.032s60.574 135.032 135.032 135.032 135.032-60.574 135.032-135.032-60.572-135.032-135.032-135.032z" />
<glyph unicode="&#xe90a;" glyph-name="right-arrow" data-tags="next" d="M776.847 476.1l-473.63 472.32c-15.518 15.466-40.642 15.44-56.134-0.080-15.48-15.518-15.44-40.656 0.080-56.134l445.438-444.208-445.454-444.206c-15.518-15.48-15.558-40.602-0.080-56.122 7.766-7.78 17.94-11.67 28.114-11.67 10.148 0 20.282 3.864 28.034 11.59l473.632 472.308c7.474 7.436 11.668 17.556 11.668 28.1s-4.206 20.652-11.668 28.102z" />
<glyph unicode="&#xe90b;" glyph-name="home" data-tags="home" d="M950.85 559.55l-426.666 391.112c-13.902 12.718-35.282 12.408-48.794-0.7l-402.964-391.11c-6.898-6.696-10.798-15.906-10.798-25.516v-561.778c0-19.638 15.916-35.556 35.556-35.556h296.296c19.638 0 35.556 15.918 35.556 35.556v260.74h165.926v-260.74c0-19.638 15.916-35.556 35.556-35.556h296.296c19.638 0 35.556 15.906 35.556 35.556v561.776c0 9.968-4.172 19.472-11.52 26.216zM891.258 7.112h-225.184v260.74c0 19.638-15.918 35.556-35.556 35.556h-237.036c-19.638 0-35.556-15.918-35.556-35.556v-260.74h-225.186v511.182l368.108 357.274 390.412-357.878v-510.578z" />
<glyph unicode="&#xe90c;" glyph-name="search" data-tags="loupe" d="M450.948 960c-248.646 0-450.948-202.302-450.948-450.948 0-248.66 202.302-450.948 450.948-450.948 248.66 0 450.948 202.288 450.948 450.948 0 248.646-202.288 450.948-450.948 450.948zM450.948 141.354c-202.746 0-367.696 164.95-367.696 367.696s164.95 367.698 367.696 367.698 367.696-164.95 367.696-367.696-164.95-367.698-367.696-367.698zM1011.804 7.056l-238.656 238.656c-16.262 16.262-42.598 16.262-58.86 0-16.262-16.248-16.262-42.612 0-58.86l238.656-238.656c8.13-8.13 18.774-12.196 29.43-12.196 10.642 0 21.298 4.066 29.43 12.196 16.262 16.248 16.262 42.612 0 58.86z" />
<glyph unicode="&#xe90d;" glyph-name="home-2" data-tags="home-1" d="M843.872 536.428v-477.066h-180.128v206.328c0 18.090-14.662 32.75-32.75 32.75h-230.346c-18.090 0-32.75-14.662-32.75-32.75v-206.328h-179.036v477.066h-65.5v-509.816c0-18.090 14.662-32.75 32.75-32.75h244.538c18.090 0 32.75 14.662 32.75 32.75v206.326h164.844v-206.328c0-18.090 14.662-32.75 32.75-32.75h245.63c18.090 0 32.75 14.662 32.75 32.75v509.818h-65.502zM1013.63 448.984l-474.884 444.314c-12.5 11.714-31.932 11.79-44.54 0.208l-483.616-444.316c-13.318-12.238-14.192-32.948-1.954-46.266 6.452-7.042 15.272-10.6 24.126-10.6 7.914 0 15.862 2.86 22.15 8.636l461.258 423.77 452.71-423.574c13.232-12.368 33.93-11.66 46.288 1.54 12.348 13.21 11.67 33.93-1.538 46.288z" />
<glyph unicode="&#xe90e;" glyph-name="adventure" data-tags="list" d="M845.108 873.638h-172.722v-74.024h172.722c6.686 0 12.338-5.65 12.338-12.338v-764.916c0-6.686-5.65-12.338-12.338-12.338h-666.216c-6.686 0-12.338 5.65-12.338 12.338v764.918c0 6.686 5.65 12.338 12.338 12.338h172.722v74.022h-172.722c-47.622 0-86.362-38.74-86.362-86.362v-764.916c0-47.61 38.74-86.362 86.362-86.362h666.216c47.61 0 86.362 38.752 86.362 86.362v764.918c0 47.622-38.752 86.36-86.362 86.36zM428.106 657.734h-160.386c-20.442 0-37.012-16.568-37.012-37.012v-160.386c0-20.444 16.57-37.012 37.012-37.012h160.386c20.442 0 37.012 16.568 37.012 37.012v160.386c0 20.444-16.568 37.012-37.012 37.012zM391.094 497.35h-86.362v86.362h86.362v-86.362zM756.28 577.542h-182.592c-20.442 0-37.012-16.568-37.012-37.012s16.57-37.012 37.012-37.012h182.592c20.442 0 37.012 16.57 37.012 37.012s-16.57 37.012-37.012 37.012zM428.106 324.626h-160.386c-20.442 0-37.012-16.568-37.012-37.012v-160.386c0-20.442 16.57-37.012 37.012-37.012h160.386c20.442 0 37.012 16.57 37.012 37.012v160.386c0 20.444-16.568 37.012-37.012 37.012zM391.094 164.24h-86.362v86.362h86.362v-86.362zM756.28 244.434h-182.592c-20.442 0-37.012-16.568-37.012-37.012 0-20.442 16.57-37.012 37.012-37.012h182.592c20.442 0 37.012 16.568 37.012 37.012 0 20.442-16.57 37.012-37.012 37.012zM672.386 960h-320.772c-20.442 0-37.012-16.57-37.012-37.012v-160.386c0-20.442 16.57-37.012 37.012-37.012h320.77c20.444 0 37.012 16.57 37.012 37.012v160.386c0.002 20.442-16.568 37.012-37.010 37.012zM635.374 799.614h-246.748v86.362h246.748v-86.362z" />
<glyph unicode="&#xe90f;" glyph-name="right-arrow-2" data-tags="next-1" d="M974.597 489.178h-933.417c-22.744 0-41.181-18.448-41.181-41.181s18.434-41.181 41.181-41.181h933.417c22.744 0 41.181 18.434 41.181 41.181s-18.434 41.181-41.181 41.181zM1011.934 477.125l-403.552 403.568c-16.088 16.074-42.141 16.074-58.229 0-16.088-16.088-16.088-42.169 0-58.243l374.437-374.451-374.437-374.453c-16.088-16.074-16.088-42.155 0-58.229 8.044-8.044 18.572-12.066 29.114-12.066s21.070 4.022 29.114 12.066l403.552 403.566c16.088 16.088 16.088 42.171 0 58.243z" />
<glyph unicode="&#xe910;" glyph-name="book" data-tags="book" d="M528.81 799.936l-70.85 36.644c-114.992 58.832-252.318 58.844-367.482-0.074l-70.706-36.57c-12.152-6.29-19.772-18.81-19.772-32.488v-715.58c0-12.764 6.656-24.612 17.554-31.232 10.91-6.644 24.49-7.108 35.816-1.256l70.57 36.498c94.134 48.164 206.556 48.188 300.556 0.074l70.704-36.572c5.278-2.73 11.044-4.084 16.798-4.084 6.608 0 13.19 1.78 19.018 5.328 10.898 6.632 17.554 18.48 17.554 31.244v715.58c0.002 13.678-7.63 26.21-19.76 32.488zM475.428 111.966l-17.482 9.034c-57.49 29.416-120.54 44.118-183.626 44.118-63.11 0-126.256-14.726-183.856-44.19l-17.322-8.96v633.232l50.786 26.27c94.148 48.164 206.568 48.176 300.568 0.074l50.932-26.344v-633.234zM1004.24 799.936l-70.852 36.644c-115.018 58.844-252.354 58.844-367.482-0.074l-70.704-36.572c-12.154-6.29-19.772-18.81-19.772-32.488v-715.58c0-12.764 6.656-24.612 17.554-31.232 10.922-6.644 24.502-7.108 35.816-1.256l70.558 36.498c94.134 48.164 206.544 48.164 300.568 0.074l70.704-36.572c5.278-2.73 11.032-4.084 16.798-4.084 6.596 0 13.19 1.78 19.018 5.328 10.898 6.632 17.554 18.48 17.554 31.244v715.582c0 13.678-7.632 26.21-19.76 32.488zM950.858 111.966l-17.482 9.034c-57.478 29.416-120.528 44.118-183.626 44.118-63.11 0-126.256-14.726-183.844-44.19l-17.334-8.96v633.232l50.786 26.27c94.134 48.164 206.544 48.152 300.568 0.074l50.932-26.344v-633.234z" />
<glyph unicode="&#xe911;" glyph-name="comment-2" data-tags="chat-comment-oval-speech-bubble-with-text-lines" d="M672 416h-320c-17.664 0-32-14.336-32-32s14.336-32 32-32h320c17.664 0 32 14.336 32 32s-14.336 32-32 32zM736 608h-448c-17.664 0-32-14.336-32-32s14.336-32 32-32h448c17.664 0 32 14.336 32 32s-14.336 32-32 32zM512 960c-282.751 0-512-200.575-512-448 0-141.409 75.040-267.296 192-349.408v-226.592l224.288 136.097c31.041-5.122 62.976-8.097 95.712-8.097 282.785 0 512 200.575 512 448s-229.215 448-512 448zM512 128c-37.376 0-73.472 4.352-108.161 11.744l-150.657-90.559 2.016 148.415c-115.486 69.471-191.199 184.287-191.199 314.4 0 212.063 200.575 384 448 384s448-171.937 448-384-200.575-384-448-384z" />
<glyph unicode="&#xe912;" glyph-name="check" data-tags="check" d="M358.086 89.113c-12.865 0-25.729 4.923-35.53 14.724l-307.815 307.824c-19.656 19.647-19.656 51.413 0 71.060 19.647 19.647 51.404 19.647 71.060 0l272.285-272.285 580.118 580.108c19.647 19.647 51.404 19.647 71.060 0 19.647-19.656 19.647-51.413 0-71.069l-615.638-615.638c-9.8-9.8-22.674-14.724-35.539-14.724z" />
<glyph unicode="&#xe913;" glyph-name="achievement" data-tags="trophy" d="M993.998 886.093h-131.406c0.477 14.555 0.742 29.195 0.742 43.906 0 16.57-13.437 30-30 30h-642.671c-16.562 0-30-13.43-30-30 0-14.711 0.266-29.352 0.742-43.906h-131.406c-16.57 0-30-13.43-30-30 0-134.422 35.133-261.242 98.922-357.109 63.055-94.773 147.047-149.133 237.781-154.422 20.57-22.383 42.312-40.633 64.961-54.555v-133.336h-50.328c-60.844 0-110.336-49.5-110.336-110.336v-50.328h-2.133c-16.57 0-30-13.437-30-30 0-16.57 13.43-30 30-30h546.265c16.57 0 30 13.43 30 30 0 16.562-13.43 30-30 30h-2.133v50.328c0 60.836-49.492 110.336-110.336 110.336h-50.328v133.336c22.648 13.914 44.398 32.172 64.969 54.555 90.726 5.289 174.718 59.648 237.781 154.422 63.789 95.867 98.914 222.687 98.914 357.109 0 16.57-13.43 30-30 30zM148.875 532.219c-52.617 79.070-83.531 182.492-88.242 293.874h104.125c10.82-136.922 42.961-263.484 93.195-363.945 8-16 16.367-31.117 25.047-45.351-49.898 18.844-96.078 58.234-134.125 115.422zM722.999 46.337v-50.336h-421.999v50.336c0 27.75 22.578 50.336 50.336 50.336h321.328c27.758 0 50.336-22.586 50.336-50.336zM562.335 156.672h-100.672v107.265c16.492-4.344 33.297-6.602 50.336-6.602s33.844 2.258 50.336 6.602zM580.913 335.313c-1.352-0.555-2.648-1.227-3.891-1.969-21.203-10.547-42.992-16.008-65.023-16.008-22.023 0-43.805 5.461-65 15.992-1.258 0.758-2.562 1.43-3.93 2-23.523 12.437-46.281 31.219-67.805 55.898-1.133 1.617-2.406 3.109-3.82 4.469-21.367 25.367-41.469 56.57-59.828 93.289-55.133 110.258-86.976 255.234-90.601 411.015h581.968c-3.633-155.781-35.476-300.765-90.601-411.015-18.359-36.719-38.461-67.922-59.82-93.289-1.422-1.359-2.711-2.859-3.836-4.477-21.523-24.687-44.289-43.461-67.812-55.906zM875.123 532.219c-38.047-57.187-84.226-96.578-134.125-115.422 8.68 14.234 17.047 29.352 25.047 45.351 50.234 100.461 82.367 227.023 93.195 363.945h104.125c-4.711-111.383-35.625-214.804-88.242-293.874z" />
<glyph unicode="&#xe914;" glyph-name="award" data-tags="badge" d="M512 960c-222.596 0-403.692-181.094-403.692-403.692 0-138.726 70.344-261.324 177.23-334.022v-256.746c0-10.024 5.082-19.364 13.5-24.804 8.414-5.442 19.018-6.242 28.16-2.132l184.802 83.158 184.802-83.16c3.87-1.74 8-2.602 12.118-2.602 5.608 0 11.188 1.596 16.042 4.734 8.416 5.442 13.5 14.782 13.5 24.804v256.746c106.886 72.698 177.23 195.296 177.23 334.022 0 222.6-181.096 403.694-403.692 403.694zM679.384 11.22l-155.264 69.868c-3.854 1.736-7.988 2.604-12.12 2.604s-8.266-0.866-12.12-2.602l-155.264-69.868v177.67c14.846-6.768 30.084-12.584 45.61-17.49 0.88-0.28 1.758-0.566 2.642-0.838 1.982-0.61 3.97-1.198 5.96-1.776 1.474-0.432 2.948-0.86 4.426-1.276 1.606-0.448 3.218-0.882 4.83-1.31 1.88-0.502 3.764-0.992 5.654-1.468 1.336-0.334 2.674-0.662 4.014-0.98 2.174-0.522 4.354-1.026 6.542-1.512 1.134-0.252 2.27-0.502 3.406-0.744 2.396-0.512 4.8-0.996 7.214-1.466 0.982-0.19 1.964-0.384 2.948-0.568 2.556-0.476 5.122-0.922 7.694-1.35 0.882-0.148 1.764-0.3 2.648-0.44 2.654-0.424 5.32-0.814 7.994-1.184 0.828-0.114 1.654-0.238 2.482-0.348 2.706-0.358 5.424-0.68 8.144-0.984 0.812-0.090 1.62-0.192 2.432-0.28 2.714-0.288 5.438-0.534 8.168-0.766 0.828-0.070 1.652-0.156 2.482-0.22 2.69-0.212 5.392-0.382 8.098-0.542 0.868-0.052 1.732-0.12 2.604-0.166 2.734-0.144 5.478-0.242 8.226-0.33 0.828-0.028 1.65-0.072 2.478-0.094 3.552-0.092 7.116-0.144 10.692-0.144 3.574 0 7.138 0.052 10.69 0.144 0.828 0.022 1.65 0.066 2.478 0.094 2.748 0.088 5.492 0.188 8.226 0.33 0.868 0.046 1.734 0.114 2.604 0.166 2.706 0.16 5.408 0.328 8.098 0.542 0.83 0.064 1.654 0.15 2.482 0.22 2.73 0.232 5.454 0.48 8.168 0.766 0.812 0.086 1.62 0.188 2.432 0.28 2.722 0.306 5.438 0.626 8.144 0.984 0.83 0.11 1.654 0.232 2.482 0.348 2.672 0.37 5.338 0.76 7.994 1.184 0.884 0.142 1.764 0.294 2.648 0.44 2.572 0.428 5.138 0.874 7.694 1.35 0.984 0.184 1.966 0.376 2.948 0.568 2.412 0.468 4.816 0.956 7.214 1.466 1.138 0.242 2.272 0.492 3.406 0.744 2.188 0.486 4.368 0.99 6.542 1.512 1.338 0.32 2.676 0.648 4.014 0.98 1.89 0.474 3.772 0.964 5.654 1.468 1.612 0.43 3.224 0.86 4.83 1.31 1.478 0.416 2.954 0.844 4.426 1.276 1.99 0.58 3.98 1.166 5.96 1.776 0.884 0.274 1.762 0.56 2.642 0.838 15.526 4.906 30.764 10.72 45.61 17.488v-177.67zM624.458 230.552c-1.178-0.406-2.356-0.814-3.538-1.208-1.796-0.6-3.6-1.19-5.41-1.76-2.106-0.662-4.218-1.3-6.336-1.92-1.494-0.44-2.99-0.878-4.492-1.298-2.802-0.782-5.614-1.53-8.436-2.24-1.052-0.266-2.108-0.518-3.162-0.774-2.762-0.668-5.536-1.304-8.316-1.904-0.7-0.152-1.394-0.312-2.094-0.456-3.588-0.75-7.188-1.448-10.802-2.082-0.368-0.064-0.738-0.12-1.108-0.186-3.256-0.562-6.522-1.072-9.794-1.538-0.738-0.106-1.476-0.21-2.218-0.312-3.49-0.474-6.986-0.91-10.494-1.278-0.132-0.014-0.264-0.032-0.396-0.046-3.672-0.382-7.358-0.696-11.048-0.958-0.8-0.058-1.604-0.1-2.406-0.154-2.87-0.186-5.74-0.332-8.618-0.448-0.978-0.040-1.956-0.080-2.934-0.112-3.614-0.11-7.232-0.186-10.856-0.186s-7.242 0.074-10.856 0.19c-0.98 0.030-1.958 0.072-2.934 0.112-2.878 0.114-5.748 0.262-8.618 0.448-0.802 0.052-1.604 0.096-2.406 0.154-3.69 0.264-7.374 0.578-11.048 0.958-0.132 0.014-0.264 0.032-0.396 0.046-3.508 0.368-7.004 0.804-10.494 1.278-0.738 0.1-1.476 0.204-2.216 0.312-3.274 0.468-6.54 0.976-9.796 1.538-0.368 0.062-0.738 0.12-1.108 0.186-3.614 0.634-7.216 1.334-10.802 2.082-0.698 0.146-1.394 0.308-2.094 0.456-2.78 0.598-5.554 1.236-8.316 1.904-1.056 0.256-2.112 0.508-3.162 0.774-2.822 0.708-5.634 1.46-8.436 2.24-1.502 0.42-2.998 0.858-4.492 1.298-2.116 0.622-4.23 1.258-6.338 1.92-1.81 0.572-3.612 1.16-5.41 1.76-1.184 0.394-2.362 0.802-3.538 1.208-134.968 46.722-232.156 175.094-232.156 325.752 0 190.020 154.594 344.616 344.616 344.616s344.616-154.594 344.616-344.616c0-150.658-97.19-279.030-232.158-325.756zM687.244 556.308l55.482 104.28c4.788 8.994 4.598 19.82-0.496 28.642s-14.376 14.4-24.558 14.752l-118.050 4.090-62.568 100.188c-5.398 8.64-14.866 13.892-25.054 13.892s-19.656-5.252-25.054-13.892l-62.566-100.188-118.050-4.090c-10.182-0.352-19.464-5.93-24.558-14.752s-5.284-19.648-0.496-28.642l55.482-104.28-55.482-104.28c-4.788-8.994-4.598-19.82 0.496-28.642s14.376-14.4 24.558-14.752l118.050-4.090 62.566-100.188c5.396-8.64 14.866-13.892 25.054-13.892s19.656 5.252 25.054 13.892l62.566 100.188 118.050 4.090c10.182 0.352 19.464 5.93 24.558 14.752s5.284 19.648 0.496 28.642l-55.48 104.28zM581.87 463.042c-9.818-0.34-18.828-5.542-24.030-13.876l-45.84-73.402-45.838 73.4c-5.204 8.334-14.212 13.534-24.030 13.876l-86.484 2.998 40.646 76.396c4.616 8.674 4.616 19.074 0 27.748l-40.646 76.396 86.484 2.998c9.818 0.34 18.828 5.542 24.030 13.876l45.838 73.398 45.838-73.4c5.204-8.334 14.212-13.534 24.030-13.876l86.484-2.998-40.646-76.396c-4.614-8.674-4.614-19.076 0.002-27.748l40.646-76.396-86.484-2.994z" />
<glyph unicode="&#xe915;" glyph-name="moon" data-tags="moon-1" d="M999.794 377.486c-10.469 2.617-20.938 0-30.098-6.543-34.024-28.79-73.283-52.345-116.468-68.049-40.568-15.704-85.061-23.555-132.172-23.555-105.999 0-202.838 43.185-272.195 112.542s-112.542 166.196-112.542 272.195c0 44.493 7.852 87.678 20.938 126.937 14.395 41.876 35.333 79.826 62.814 112.542 11.778 14.395 9.16 35.333-5.235 47.111-9.16 6.543-19.629 9.16-30.098 6.543-111.234-30.098-208.072-96.839-277.43-185.826-66.74-87.678-107.308-196.295-107.308-315.38 0-142.641 57.58-272.195 151.801-366.417s223.776-151.801 366.417-151.801c120.394 0 231.628 41.876 320.614 111.234 90.295 70.666 155.727 171.431 183.208 286.59 6.543 19.629-3.926 37.95-22.247 41.876zM799.573 103.982c-75.901-60.197-172.739-96.839-278.738-96.839-124.32 0-236.862 51.037-317.997 132.172s-132.172 193.677-132.172 317.997c0 103.382 34.024 197.603 92.913 273.504 40.568 52.345 91.604 95.53 150.492 125.629-6.543-14.395-13.086-28.79-18.321-44.493-17.012-47.111-24.864-96.839-24.864-149.184 0-124.32 51.037-238.171 132.172-319.306s194.986-132.172 319.306-132.172c54.962 0 107.308 9.16 155.727 27.481 17.012 6.543 34.024 13.086 49.728 20.938-31.407-60.197-74.592-113.851-128.246-155.727z" />
<glyph unicode="&#xe916;" glyph-name="moon-filled" data-tags="moon" d="M999.082 376.791c-10.475 2.619-20.951 0-30.116-6.547-34.045-28.807-73.327-52.377-116.538-68.089-40.592-15.713-85.112-23.569-132.251-23.569-106.062 0-202.959 43.211-272.358 112.609s-112.609 166.295-112.609 272.358c0 44.52 7.856 87.731 20.951 127.013 14.404 41.901 35.354 79.874 62.852 112.609 11.785 14.404 9.166 35.354-5.238 47.139-9.166 6.547-19.641 9.166-30.116 6.547-111.3-30.116-208.197-96.897-277.595-185.937-66.78-87.731-106.062-196.412-106.062-314.259 0-142.726 57.614-272.358 151.892-366.636s222.6-151.892 366.636-151.892c120.466 0 231.766 41.901 320.806 111.3 90.349 70.708 155.82 171.533 183.318 286.761 5.238 18.332-5.238 36.664-23.569 40.592z" />
<glyph unicode="&#xe917;" glyph-name="habits" data-tags="plus" d="M650.364 795.876c-15.402 6.126-32.84-1.392-38.964-16.79l-254.55-640c-6.124-15.396 1.394-32.84 16.79-38.962 3.638-1.448 7.388-2.132 11.078-2.132 11.928 0 23.208 7.162 27.886 18.92l254.55 640c6.122 15.396-1.396 32.84-16.79 38.964zM432 618c16.568 0 30 13.432 30 30s-13.432 30-30 30h-90v90c0 16.568-13.432 30-30 30s-30-13.432-30-30v-90h-90c-16.568 0-30-13.432-30-30s13.432-30 30-30h90v-90c0-16.568 13.432-30 30-30s30 13.432 30 30v90zM874 960h-724c-82.71 0-150-67.29-150-150v-724c0-82.71 67.29-150 150-150h724c82.71 0 150 67.29 150 150v724c0 82.71-67.29 150-150 150zM964 86c0-49.626-40.374-90-90-90h-724c-49.626 0-90 40.374-90 90v724c0 49.626 40.374 90 90 90h724c49.626 0 90-40.374 90-90zM832 278h-240c-16.568 0-30-13.432-30-30s13.432-30 30-30h240c16.568 0 30 13.432 30 30s-13.432 30-30 30z" />
<glyph unicode="&#xe918;" glyph-name="home-3" data-tags="home-2" d="M1006.802 502.232l-86.506 78.822v261.366c0 16.63-13.482 30.114-30.114 30.114h-208.23c-16.63 0-30.114-13.482-30.114-30.114v-16.748l-104.472 95.194c-20.166 18.378-50.576 18.376-70.734 0.002l-459.436-418.638c-16.152-14.72-21.49-37.4-13.598-57.778 7.894-20.378 27.114-33.544 48.968-33.544h73.378v-419.442c0-16.63 13.482-30.114 30.114-30.114h251.826c16.63 0 30.114 13.482 30.114 30.114v254.672h148.002v-254.674c0-16.63 13.482-30.114 30.114-30.114h251.816c16.63 0 30.114 13.482 30.112 30.114v419.442h73.394c21.852 0 41.074 13.168 48.968 33.544 7.89 20.38 2.554 43.060-13.602 57.782zM867.93 471.134c-16.63 0-30.114-13.482-30.114-30.114v-419.442h-191.586v254.674c0 16.63-13.484 30.114-30.114 30.114h-208.232c-16.63 0-30.114-13.482-30.114-30.114v-254.674h-191.6v419.442c0 16.63-13.482 30.114-30.114 30.114h-83.566l439.512 400.48 149.672-136.382c8.816-8.032 21.542-10.102 32.448-5.288 10.908 4.82 17.946 15.624 17.946 27.548v54.814h148.004v-244.552c0-8.474 3.568-16.552 9.832-22.26l81.606-74.36h-83.58z" />
<glyph unicode="&#xe919;" glyph-name="remove" data-tags="remove" d="M512-64c-282.328 0-512 229.672-512 512s229.672 512 512 512 512-229.672 512-512-229.672-512-512-512zM512 896c-247.039 0-448-200.961-448-448s200.961-448 448-448 448 200.961 448 448-200.961 448-448 448zM353.625 257.625c-8.195 0-16.391 3.109-22.617 9.383-12.5 12.5-12.5 32.766 0 45.266l316.797 316.805c12.508 12.5 32.773 12.5 45.273 0s12.5-32.766 0-45.273l-316.805-316.797c-6.313-6.273-14.5-9.383-22.648-9.383zM670.375 257.625c-8.188 0-16.383 3.109-22.609 9.383l-316.797 316.758c-12.508 12.5-12.508 32.766 0 45.266 12.5 12.508 32.766 12.508 45.266 0l316.797-316.797c12.508-12.5 12.508-32.766 0-45.266-6.266-6.234-14.461-9.344-22.656-9.344z" />
<glyph unicode="&#xe91a;" glyph-name="cancel" data-tags="cancel" d="M568.567 448.001l443.715 443.715c15.622 15.62 15.622 40.948 0 56.568-15.622 15.622-40.948 15.622-56.568 0l-443.715-443.715-443.715 443.715c-15.622 15.622-40.948 15.622-56.568 0-15.622-15.62-15.622-40.948 0-56.568l443.715-443.715-443.715-443.715c-15.622-15.622-15.622-40.948 0-56.568 15.62-15.62 40.946-15.622 56.568 0l443.715 443.715 443.715-443.715c15.62-15.62 40.946-15.622 56.568 0s15.622 40.948 0 56.568l-443.715 443.715z" />
<glyph unicode="&#xe91b;" glyph-name="delete" data-tags="trash" d="M848 832h-176v32c0 52.934-43.066 96-96 96h-128c-52.934 0-96-43.066-96-96v-32h-176c-44.112 0-80-35.888-80-80v-112c0-17.672 14.328-32 32-32h17.488l27.646-580.566c2.442-51.272 44.562-91.434 95.89-91.434h485.952c51.33 0 93.45 40.162 95.89 91.434l27.646 580.566h17.488c17.672 0 32 14.328 32 32v112c0 44.112-35.888 80-80 80zM416 864c0 17.644 14.356 32 32 32h128c17.644 0 32-14.356 32-32v-32h-192zM160 752c0 8.822 7.178 16 16 16h672c8.822 0 16-7.178 16-16v-80c-9.862 0-663.134 0-704 0zM786.938 30.478c-0.814-17.090-14.854-30.478-31.962-30.478h-485.952c-17.11 0-31.15 13.388-31.962 30.478l-27.502 577.522h604.88zM512 64c17.672 0 32 14.328 32 32v416c0 17.672-14.328 32-32 32s-32-14.328-32-32v-416c0-17.672 14.326-32 32-32zM672 64c17.672 0 32 14.328 32 32v416c0 17.672-14.328 32-32 32s-32-14.328-32-32v-416c0-17.672 14.326-32 32-32zM352 64c17.672 0 32 14.328 32 32v416c0 17.672-14.328 32-32 32s-32-14.328-32-32v-416c0-17.672 14.326-32 32-32z" />
<glyph unicode="&#xe91c;" glyph-name="learn" data-tags="999786" d="M1022.058 260.503c0 39.012-25.018 72.272-59.848 84.626v309.613l61.792 24.698-512.665 204.91-511.337-204.91 242.036-96.992v-142.402c0-43.898 30.776-83.462 86.658-111.404 49.29-24.646 114.158-38.218 182.658-38.218s133.37 13.572 182.658 38.218c55.882 27.942 86.658 67.504 86.658 111.404v142.134l121.692 48.64v-285.693c-34.83-12.352-59.848-45.614-59.848-84.626 0-35.688 20.934-66.574 51.168-81.032l-49.632-148.896 56.778-18.926 31.46 94.378 31.46-94.378 56.778 18.926-49.632 148.896c30.23 14.462 51.168 45.346 51.168 81.034zM720.821 440.049c0-42.376-89.58-89.772-209.468-89.772s-209.468 47.396-209.468 89.772v118.418l209.454-83.936 209.484 83.732v-118.214zM511.367 538.993l-350.477 140.448 350.477 140.448 351.381-140.448-351.381-140.448zM932.284 230.579c-16.5 0-29.924 13.424-29.924 29.924s13.424 29.924 29.924 29.924c16.5 0 29.924-13.424 29.924-29.924s-13.424-29.924-29.924-29.924z" />
<glyph unicode="&#xe91d;" glyph-name="plus" data-tags="plus-1" d="M984 488h-432v432c0 22.092-17.908 40-40 40s-40-17.908-40-40v-432h-432c-22.092 0-40-17.908-40-40s17.908-40 40-40h432v-432c0-22.092 17.908-40 40-40s40 17.908 40 40v432h432c22.092 0 40 17.908 40 40s-17.908 40-40 40z" />
<glyph unicode="&#xe91e;" glyph-name="login" data-tags="enter" d="M437.336 480h-405.336c-17.664 0-32 14.336-32 32s14.336 32 32 32h405.336c17.664 0 32-14.336 32-32s-14.336-32-32-32zM277.336 320c-8.195 0-16.383 3.117-22.617 9.383-12.5 12.508-12.5 32.773 0 45.273l137.391 137.383-137.391 137.344c-12.5 12.508-12.5 32.773 0 45.273s32.766 12.5 45.273 0l160-160c12.5-12.5 12.5-32.766 0-45.273l-160-160c-6.273-6.266-14.469-9.383-22.656-9.383zM682.664-64c-47.063 0-85.328 38.273-85.328 85.336v768c0 36.477 23.211 69.031 57.766 81.023l256.344 85.461c57.344 17.578 112.555-24.961 112.555-81.156v-768c0-36.438-23.211-68.945-57.727-80.977l-256.43-85.508c-9.344-2.898-18-4.18-27.18-4.18zM938.664 896c-2.773 0-5.117-0.344-7.633-1.109l-255.273-85.117c-8.367-2.906-14.422-11.352-14.422-20.438v-768c0-14.555 15.781-24.367 28.969-20.227l255.273 85.117c8.32 2.906 14.422 11.352 14.422 20.438v768c0 11.734-9.555 21.336-21.336 21.336zM373.336 746.664c-17.664 0-32 14.336-32 32v64c0 64.727 52.602 117.336 117.328 117.336h480c17.664 0 32-14.336 32-32s-14.336-32-32-32h-480c-29.398 0-53.328-23.938-53.328-53.336v-64c0-17.664-14.336-32-32-32zM629.336 64h-170.672c-64.727 0-117.328 52.609-117.328 117.336v64c0 17.664 14.336 32 32 32s32-14.336 32-32v-64c0-29.398 23.93-53.336 53.328-53.336h170.672c17.664 0 32-14.336 32-32s-14.336-32-32-32z" />
<glyph unicode="&#xe91f;" glyph-name="refresh" data-tags="refresh" d="M512 832c-127.498 0-233.078-55.502-307.028-123.712l3.524 211.478c0.368 21.852-17.064 39.878-38.928 40.234-0.224 0-0.448 0-0.672 0-21.55 0-39.206-17.3-39.576-38.928l-5.278-316.702c-0.172-10.728 4.012-21.074 11.612-28.662 7.588-7.588 17.88-11.77 28.662-11.586l308.784 5.278c21.852 0.382 39.27 18.396 38.902 40.26-0.37 21.628-18.026 38.914-39.574 38.914-0.224 0-0.448 0-0.686 0l-218.26-3.734c61.030 57.838 151.080 107.982 258.52 107.982 220.226 0 368.164-190.364 368.164-368.164 0-178.434-147.938-369.484-368.164-369.484-240.218 0-368.164 214.592-368.164 369.484 0 21.866-17.722 39.588-39.588 39.588s-39.59-17.72-39.59-39.586c0-216.676 179.754-448.66 447.34-448.66s447.34 231.984 447.34 448.672c0 216.030-179.754 447.328-447.34 447.328z" />
<glyph unicode="&#xe920;" glyph-name="gift" data-tags="gift" d="M935.384 792.616h-210.74c8.802 16.096 13.816 34.55 13.816 54.154 0.002 62.436-50.792 113.23-113.23 113.23h-29.538c-33.122 0-62.968-14.298-83.692-37.046-20.724 22.748-50.57 37.046-83.692 37.046h-29.538c-62.436 0-113.23-50.794-113.23-113.23 0-19.604 5.014-38.058 13.816-54.154h-210.74c-48.864 0-88.616-39.754-88.616-88.616v-78.77c0-48.862 39.752-88.616 88.616-88.616v-512c0-48.862 39.752-88.616 88.616-88.616h669.538c48.862 0 88.616 39.752 88.616 88.616v512c48.862 0 88.616 39.752 88.616 88.616v78.77c-0.002 48.862-39.754 88.616-88.618 88.616zM541.538 846.77c0 29.862 24.292 54.154 54.154 54.154h29.538c29.862 0 54.154-24.292 54.154-54.154s-24.292-54.154-54.154-54.154h-83.692v54.154zM398.77 900.924h29.538c29.862 0 54.154-24.292 54.154-54.154v-54.154h-83.692c-29.862 0-54.154 24.292-54.154 54.154 0 29.86 24.292 54.154 54.154 54.154zM403.692-4.924h-226.462c-16.288 0-29.538 13.25-29.538 29.538v132.924h256v-162.462zM403.692 216.616h-256v98.462h256v-98.462zM403.692 374.154h-256v162.462h256v-162.462zM561.23-4.924h-98.462v541.54h98.462v-541.54zM876.308 24.616c0-16.288-13.25-29.538-29.538-29.538h-226.462v162.462h256v-132.924zM876.308 216.616h-256v98.462h256v-98.462zM876.308 374.154h-256v162.462h256v-162.462zM964.924 625.23c0-16.288-13.25-29.538-29.538-29.538h-846.77c-16.288 0-29.538 13.25-29.538 29.538v78.77c0 16.288 13.25 29.538 29.538 29.538h846.77c16.288 0 29.538-13.25 29.538-29.538v-78.77z" />
<glyph unicode="&#xe921;" glyph-name="piggy-bank" data-tags="piggy-bank" d="M935.384 497.23h-28.742c-9.578 35.76-26.586 69.17-50.026 98.144v148.010c0 16.314-13.226 29.538-29.538 29.538-56.958 0-108.084-32.824-132.544-82.518-14.71 2.494-29.658 3.75-44.686 3.75h-29.538v9.846c0 103.154-83.922 187.076-187.078 187.076-103.154 0-187.076-83.922-187.076-187.076v-10.576c-137.428-10.11-246.156-125.152-246.156-265.116v-78.77c0-58.134 18.428-113.354 53.296-159.688 29.23-38.846 69.182-69.288 114.090-87.284v-9.026c0-48.862 39.752-88.616 88.616-88.616 45.534 0 83.158 34.524 88.072 78.77h217.704c4.914-44.244 42.538-78.77 88.072-78.77 48.862 0 88.616 39.752 88.616 88.616v5.292c82.55 29.124 145.602 97.338 168.188 181.786h28.734c48.862 0 88.616 39.752 88.616 88.616v39.384c-0.004 48.86-39.756 88.612-88.62 88.612zM305.23 704c0 70.58 57.42 128 128 128s128-57.42 128-128v-9.846h-256v9.846zM964.924 369.23c0-16.288-13.25-29.538-29.538-29.538h-52.516c-14.426 0-26.744-10.422-29.13-24.65-13.488-80.364-73.22-145.426-152.178-165.752-13.052-3.36-22.176-15.13-22.176-28.604v-27.146c0-16.288-13.25-29.538-29.538-29.538s-29.538 13.25-29.538 29.538v19.692c0 16.314-13.226 29.538-29.538 29.538h-275.696c-16.314 0-29.538-13.226-29.538-29.538v-19.692c0-16.288-13.25-29.538-29.538-29.538s-29.538 13.25-29.538 29.538v29.914c0 13-8.498 24.472-20.934 28.258-87.596 26.672-146.45 106.172-146.45 197.826v78.77c0 114.012 92.756 206.77 206.77 206.77h384c18.778 0 37.38-2.512 55.288-7.472 7.59-2.1 15.69-1.084 22.524 2.814s11.828 10.364 13.878 17.962c7.726 28.634 29.126 50.854 56.004 60.388v-124.19c0-7.198 2.626-14.146 7.388-19.542 25.572-28.984 42.452-64.336 48.812-102.232 2.386-14.23 14.704-24.65 29.13-24.65h52.516c16.288 0 29.538-13.25 29.538-29.538v-39.388zM475.428 418.462h-45.010c-8.532 0-15.472 6.94-15.472 15.472v22.506c0 8.53 6.94 15.472 15.472 15.472h45.010c8.532 0 15.472-6.942 15.472-15.472 0-16.314 13.226-29.538 29.538-29.538s29.538 13.226 29.538 29.538c0 38.734-29.696 70.652-67.518 74.208v15.812c0 16.314-13.226 29.538-29.538 29.538s-29.538-13.226-29.538-29.538v-15.812c-37.822-3.556-67.516-35.474-67.516-74.208v-22.506c0-41.108 33.442-74.55 74.55-74.55h45.010c8.532 0 15.472-6.94 15.472-15.472v-22.506c0-8.532-6.94-15.472-15.472-15.472h-45.010c-8.532 0-15.472 6.942-15.472 15.472 0 16.314-13.226 29.538-29.538 29.538s-29.538-13.226-29.538-29.538c0-38.734 29.696-70.652 67.516-74.208v-15.812c0-16.314 13.226-29.538 29.538-29.538s29.538 13.226 29.538 29.538v15.812c37.822 3.556 67.518 35.474 67.518 74.208v22.506c-0.002 41.108-33.442 74.55-74.55 74.55z" />
<glyph unicode="&#xe922;" glyph-name="logout" data-tags="1828427" d="M991.969 479.983h-405.323c-17.664 0-31.999 14.335-31.999 31.999s14.335 31.999 31.999 31.999h405.323c17.664 0 31.999-14.335 31.999-31.999s-14.335-31.999-31.999-31.999zM831.974 319.988c-8.195 0-16.382 3.117-22.616 9.383-12.5 12.507-12.5 32.772 0 45.272l137.386 137.379-137.386 137.386c-12.5 12.5-12.5 32.765 0 45.264 12.507 12.507 32.772 12.507 45.272 0l159.995-159.995c12.5-12.5 12.5-32.765 0-45.264l-159.995-159.995c-6.273-6.312-14.46-9.429-22.656-9.429zM341.325-64c-9.133 0-17.796 1.281-26.452 3.969l-256.765 85.544c-34.936 12.203-58.108 44.756-58.108 81.146v767.976c0 47.061 38.272 85.333 85.333 85.333 9.125 0 17.789-1.281 26.452-3.969l256.758-85.544c34.944-12.203 58.108-44.756 58.108-81.146v-767.976c0-47.061-38.264-85.333-85.325-85.333zM85.333 895.97c-11.734 0-21.335-9.601-21.335-21.335v-767.976c0-9.086 6.101-17.531 14.804-20.562l255.562-85.161c1.836-0.594 4.226-0.937 6.961-0.937 11.734 0 21.327 9.601 21.327 21.335v767.976c0 9.086-6.101 17.531-14.804 20.562l-255.562 85.161c-1.836 0.594-4.226 0.937-6.953 0.937zM650.644 618.643c-17.664 0-31.999 14.335-31.999 31.999v191.994c0 29.398-23.929 53.334-53.326 53.334h-479.985c-17.664 0-31.999 14.335-31.999 31.999s14.335 31.999 31.999 31.999h479.985c64.725 0 117.324-52.608 117.324-117.332v-191.994c0-17.664-14.335-31.999-31.999-31.999zM565.318 63.996h-170.667c-17.664 0-31.999 14.335-31.999 31.999s14.335 31.999 31.999 31.999h170.667c29.398 0 53.326 23.937 53.326 53.334v191.994c0 17.664 14.335 31.999 31.999 31.999s31.999-14.335 31.999-31.999v-191.994c0-64.725-52.6-117.332-117.324-117.332z" />
<glyph unicode="&#xe923;" glyph-name="fun" data-tags="gamepad" d="M797.536 734.276h-571.075c-124.872 0-226.462-101.59-226.462-226.462v-118.154c0-0.742 0.028-1.476 0.080-2.206 1.448-60.338 25.91-116.832 68.998-159.25 43.548-42.872 101.188-66.484 162.306-66.484s118.758 23.61 162.306 66.484c36.51 35.942 59.646 81.986 66.742 131.916h103.138c7.096-49.93 30.232-95.974 66.742-131.916 43.548-42.872 101.188-66.484 162.306-66.484s118.758 23.61 162.306 66.484c43.084 42.416 67.548 98.912 68.998 159.246 0.054 0.728 0.080 1.466 0.080 2.21v118.154c-0.002 124.872-101.592 226.462-226.464 226.462zM964.924 391.251v0c-0.022-0.364-0.036-0.726-0.042-1.092-1.566-93.384-78.844-169.358-172.268-169.358s-170.704 75.972-172.268 169.358c-0.272 16.118-13.414 29.042-29.534 29.042h-157.624c-16.122 0-29.262-12.924-29.534-29.042-1.566-93.384-78.844-169.358-172.268-169.358s-170.704 75.972-172.268 169.358c-0.006 0.366-0.020 0.728-0.040 1.090v116.566c0 92.296 75.088 167.384 167.384 167.384h571.075c92.296 0 167.384-75.088 167.384-167.384v-116.564zM310.153 477.539h-49.23v49.23c0 16.312-13.226 29.538-29.538 29.538s-29.538-13.226-29.538-29.538v-49.23h-49.232c-16.314 0-29.538-13.226-29.538-29.538s13.226-29.538 29.538-29.538h49.23v-49.23c0-16.312 13.226-29.538 29.538-29.538s29.538 13.226 29.538 29.538v49.228h49.23c16.314 0 29.538 13.226 29.538 29.538s-13.224 29.54-29.536 29.54zM822.016 529.663c-0.1 0.966-0.258 1.932-0.436 2.878-0.198 0.944-0.434 1.89-0.708 2.796-0.276 0.926-0.61 1.832-0.984 2.738-0.372 0.886-0.786 1.752-1.22 2.6-0.45 0.846-0.964 1.692-1.496 2.482-0.532 0.808-1.102 1.596-1.714 2.342-0.61 0.75-1.278 1.476-1.95 2.148-0.69 0.69-1.418 1.34-2.166 1.97-0.728 0.59-1.516 1.182-2.324 1.712-0.808 0.534-1.634 1.026-2.484 1.476-0.846 0.452-1.732 0.866-2.618 1.242-0.886 0.372-1.814 0.69-2.72 0.984-0.926 0.276-1.868 0.512-2.816 0.706-0.944 0.178-1.91 0.334-2.856 0.436-1.928 0.178-3.898 0.178-5.808 0-0.964-0.1-1.93-0.258-2.876-0.436-0.944-0.196-1.89-0.434-2.796-0.706-0.926-0.296-1.85-0.612-2.738-0.984-0.886-0.374-1.752-0.788-2.6-1.242-0.864-0.45-1.692-0.944-2.5-1.476-0.788-0.532-1.576-1.12-2.324-1.712-0.75-0.63-1.476-1.28-2.148-1.97-0.69-0.672-1.34-1.398-1.97-2.148-0.59-0.748-1.182-1.534-1.712-2.342-0.534-0.788-1.026-1.634-1.476-2.482-0.454-0.848-0.866-1.714-1.242-2.6-0.354-0.906-0.69-1.812-0.962-2.738-0.296-0.906-0.534-1.852-0.708-2.796-0.196-0.946-0.334-1.912-0.434-2.876-0.098-0.964-0.158-1.928-0.158-2.894s0.060-1.95 0.158-2.912c0.098-0.946 0.236-1.912 0.434-2.856 0.178-0.946 0.414-1.89 0.708-2.816 0.276-0.906 0.61-1.834 0.962-2.72 0.374-0.884 0.788-1.77 1.242-2.598 0.45-0.866 0.944-1.694 1.476-2.502 0.532-0.786 1.12-1.576 1.712-2.324 0.63-0.748 1.28-1.476 1.97-2.166 0.672-0.672 1.398-1.342 2.148-1.95 0.748-0.612 1.534-1.184 2.324-1.714 0.808-0.534 1.634-1.044 2.5-1.496 0.848-0.436 1.714-0.866 2.6-1.22 0.886-0.374 1.812-0.708 2.738-0.984 0.906-0.278 1.852-0.512 2.796-0.708 0.946-0.178 1.912-0.334 2.876-0.434 0.964-0.098 1.928-0.138 2.894-0.138s1.95 0.042 2.912 0.138c0.946 0.098 1.912 0.256 2.856 0.434 0.946 0.198 1.89 0.434 2.816 0.708 0.906 0.276 1.834 0.61 2.72 0.984 0.884 0.354 1.77 0.786 2.618 1.22 0.848 0.452 1.676 0.964 2.484 1.496s1.576 1.102 2.324 1.714 1.476 1.278 2.166 1.95c5.494 5.514 8.646 13.114 8.646 20.892 0.002 0.964-0.040 1.928-0.136 2.894zM822.014 372.147c-0.098 0.944-0.256 1.908-0.434 2.856-0.198 0.944-0.434 1.89-0.708 2.816-0.294 0.906-0.61 1.832-0.984 2.718-0.372 0.886-0.786 1.772-1.22 2.62-0.45 0.846-0.964 1.674-1.496 2.482s-1.102 1.576-1.714 2.324c-0.61 0.75-1.278 1.476-1.95 2.168-0.69 0.67-1.418 1.338-2.166 1.95-0.728 0.61-1.516 1.182-2.324 1.714s-1.634 1.042-2.484 1.496c-0.846 0.434-1.732 0.846-2.618 1.22-0.886 0.372-1.814 0.69-2.72 0.984-0.926 0.276-1.868 0.512-2.816 0.706-0.944 0.178-1.91 0.334-2.856 0.436-1.928 0.178-3.88 0.178-5.808 0-0.964-0.1-1.93-0.258-2.876-0.436-0.944-0.196-1.89-0.434-2.796-0.706-0.926-0.296-1.832-0.612-2.738-0.984-0.886-0.374-1.752-0.788-2.6-1.22-0.846-0.452-1.692-0.964-2.482-1.496-0.808-0.534-1.596-1.104-2.342-1.714-0.75-0.612-1.476-1.28-2.148-1.95-0.69-0.692-1.34-1.418-1.97-2.168-0.59-0.748-1.182-1.516-1.712-2.324-0.534-0.808-1.026-1.634-1.476-2.482-0.452-0.846-0.866-1.732-1.242-2.62-0.372-0.886-0.69-1.812-0.984-2.718-0.276-0.926-0.512-1.87-0.706-2.816-0.178-0.946-0.334-1.912-0.414-2.856-0.098-0.964-0.158-1.95-0.158-2.914s0.060-1.928 0.158-2.894c0.078-0.964 0.236-1.93 0.414-2.876 0.196-0.946 0.434-1.89 0.706-2.816 0.296-0.906 0.612-1.834 0.984-2.72 0.374-0.884 0.788-1.752 1.242-2.598 0.452-0.848 0.944-1.694 1.476-2.502 0.532-0.786 1.12-1.576 1.712-2.324 0.63-0.748 1.28-1.476 1.97-2.146 0.672-0.692 1.398-1.34 2.148-1.97 0.748-0.59 1.534-1.184 2.342-1.714 0.788-0.534 1.634-1.026 2.482-1.476 0.848-0.452 1.714-0.866 2.62-1.24 0.886-0.374 1.792-0.692 2.718-0.984 0.906-0.278 1.852-0.512 2.796-0.708 0.946-0.178 1.912-0.334 2.878-0.414 0.964-0.098 1.928-0.158 2.894-0.158s1.95 0.060 2.912 0.158c0.946 0.078 1.912 0.236 2.856 0.414 0.946 0.198 1.89 0.434 2.816 0.708 0.906 0.294 1.834 0.61 2.72 0.984 0.884 0.372 1.77 0.786 2.618 1.24 0.848 0.45 1.676 0.944 2.484 1.476s1.576 1.122 2.324 1.714c0.748 0.63 1.476 1.278 2.166 1.97 0.672 0.67 1.342 1.398 1.95 2.146 0.612 0.748 1.184 1.536 1.714 2.324 0.534 0.808 1.044 1.654 1.496 2.502 0.436 0.846 0.848 1.714 1.22 2.598 0.374 0.886 0.692 1.814 0.984 2.72 0.278 0.926 0.512 1.868 0.708 2.816 0.178 0.944 0.334 1.91 0.434 2.876 0.098 0.964 0.138 1.928 0.138 2.894s-0.042 1.95-0.138 2.914zM743.245 450.917c-0.098 0.944-0.236 1.908-0.434 2.856-0.198 0.944-0.434 1.89-0.708 2.796-0.276 0.926-0.61 1.85-0.984 2.738-0.354 0.886-0.768 1.752-1.22 2.6-0.45 0.864-0.962 1.692-1.496 2.5-0.532 0.788-1.102 1.576-1.714 2.324-0.61 0.75-1.26 1.476-1.95 2.168-0.69 0.67-1.418 1.34-2.166 1.95-0.728 0.61-1.516 1.182-2.324 1.714s-1.634 1.024-2.484 1.476c-0.846 0.452-1.732 0.864-2.618 1.24-0.886 0.372-1.814 0.69-2.72 0.984-0.926 0.276-1.868 0.512-2.816 0.706-0.944 0.178-1.91 0.334-2.856 0.436-1.928 0.196-3.898 0.196-5.808 0-0.964-0.1-1.93-0.258-2.878-0.436-0.944-0.196-1.89-0.434-2.796-0.706-0.926-0.296-1.832-0.612-2.738-0.984-0.886-0.374-1.752-0.788-2.6-1.24-0.846-0.452-1.692-0.946-2.482-1.476-0.808-0.534-1.596-1.104-2.342-1.714-0.75-0.612-1.476-1.28-2.148-1.95-0.69-0.692-1.338-1.418-1.97-2.168-0.59-0.748-1.182-1.534-1.712-2.324-0.534-0.808-1.026-1.634-1.476-2.5-0.454-0.848-0.866-1.714-1.242-2.6-0.372-0.886-0.69-1.812-0.984-2.738-0.276-0.906-0.512-1.852-0.708-2.796-0.178-0.946-0.334-1.912-0.414-2.856-0.098-0.964-0.158-1.95-0.158-2.914s0.060-1.95 0.158-2.912c0.078-0.946 0.236-1.912 0.414-2.856 0.196-0.946 0.434-1.89 0.708-2.816 0.296-0.906 0.612-1.834 0.984-2.72 0.374-0.884 0.788-1.752 1.242-2.598 0.45-0.866 0.944-1.694 1.476-2.502 0.532-0.786 1.12-1.576 1.712-2.324 0.63-0.748 1.28-1.476 1.97-2.146 0.672-0.692 1.398-1.338 2.148-1.97 0.748-0.59 1.534-1.184 2.342-1.714 0.788-0.534 1.634-1.026 2.482-1.476 0.848-0.454 1.714-0.866 2.6-1.24 0.906-0.374 1.812-0.692 2.738-0.984 0.906-0.278 1.852-0.512 2.796-0.692 0.946-0.196 1.912-0.354 2.878-0.434 0.962-0.098 1.928-0.158 2.894-0.158s1.95 0.060 2.912 0.158c0.946 0.078 1.912 0.236 2.856 0.434 0.946 0.18 1.89 0.414 2.816 0.692 0.906 0.294 1.834 0.61 2.72 0.984 0.884 0.372 1.77 0.786 2.618 1.24 0.848 0.45 1.676 0.944 2.484 1.476s1.596 1.122 2.324 1.714c0.748 0.63 1.476 1.278 2.166 1.97 0.692 0.67 1.342 1.398 1.95 2.146 0.612 0.748 1.184 1.536 1.714 2.324 0.534 0.808 1.044 1.634 1.496 2.502 0.454 0.846 0.866 1.714 1.22 2.598 0.374 0.886 0.708 1.814 0.984 2.72 0.278 0.926 0.512 1.868 0.708 2.816 0.198 0.944 0.334 1.91 0.434 2.856 0.098 0.962 0.138 1.948 0.138 2.912 0.002 0.964-0.038 1.948-0.136 2.914zM900.784 450.917c-0.098 0.944-0.236 1.908-0.434 2.856-0.198 0.944-0.434 1.89-0.708 2.796-0.276 0.926-0.61 1.85-0.984 2.738-0.372 0.886-0.786 1.752-1.24 2.6-0.45 0.864-0.944 1.692-1.476 2.5-0.532 0.788-1.102 1.576-1.714 2.324-0.628 0.75-1.278 1.476-1.95 2.168-0.69 0.67-1.418 1.34-2.166 1.95s-1.536 1.182-2.324 1.714c-0.808 0.532-1.634 1.024-2.502 1.476-0.828 0.452-1.714 0.864-2.598 1.24-0.886 0.372-1.814 0.69-2.72 0.984-0.926 0.276-1.868 0.512-2.816 0.706-0.944 0.178-1.91 0.334-2.856 0.436-8.742 0.884-17.622-2.326-23.808-8.508-0.67-0.692-1.34-1.418-1.95-2.168-0.61-0.748-1.182-1.534-1.712-2.324-0.534-0.808-1.026-1.634-1.476-2.5-0.454-0.848-0.866-1.714-1.242-2.6-0.372-0.886-0.69-1.812-0.984-2.738-0.276-0.906-0.512-1.852-0.708-2.796-0.178-0.946-0.334-1.912-0.436-2.856-0.098-0.964-0.136-1.95-0.136-2.914s0.040-1.95 0.136-2.912c0.1-0.946 0.258-1.912 0.436-2.856 0.196-0.946 0.434-1.89 0.708-2.816 0.296-0.906 0.612-1.834 0.984-2.72 0.374-0.884 0.788-1.752 1.242-2.598 0.45-0.866 0.944-1.694 1.476-2.502 0.532-0.786 1.102-1.576 1.712-2.324 0.612-0.748 1.28-1.476 1.95-2.146 0.692-0.692 1.418-1.34 2.168-1.97 0.748-0.59 1.534-1.184 2.324-1.714 0.808-0.534 1.634-1.026 2.5-1.476 0.848-0.454 1.714-0.866 2.6-1.24s1.812-0.692 2.738-0.984c0.906-0.278 1.852-0.512 2.796-0.692 0.946-0.196 1.912-0.354 2.856-0.434 0.964-0.098 1.95-0.158 2.914-0.158s1.95 0.060 2.912 0.158c0.946 0.078 1.912 0.236 2.856 0.434 0.946 0.18 1.89 0.414 2.816 0.692 0.906 0.294 1.834 0.61 2.72 0.984 0.884 0.372 1.77 0.786 2.598 1.24 0.866 0.45 1.694 0.944 2.502 1.476 0.786 0.532 1.576 1.122 2.324 1.714 0.748 0.63 1.476 1.278 2.166 1.97 0.672 0.67 1.322 1.398 1.95 2.146 0.612 0.748 1.184 1.536 1.714 2.324 0.534 0.808 1.026 1.634 1.476 2.502 0.454 0.846 0.866 1.714 1.24 2.598 0.374 0.886 0.708 1.814 0.984 2.72 0.278 0.926 0.512 1.868 0.708 2.816 0.198 0.944 0.334 1.91 0.434 2.856 0.098 0.964 0.138 1.948 0.138 2.912 0 0.966-0.042 1.95-0.138 2.916zM452.923 595.693h-19.692c-16.312 0-29.538-13.226-29.538-29.538s13.226-29.538 29.538-29.538h19.692c16.314 0 29.538 13.226 29.538 29.538s-13.226 29.538-29.538 29.538zM590.769 595.693h-19.692c-16.314 0-29.538-13.226-29.538-29.538s13.226-29.538 29.538-29.538h19.692c16.312 0 29.538 13.226 29.538 29.538s-13.226 29.538-29.538 29.538z" />
<glyph unicode="&#xe924;" glyph-name="sport" data-tags="sport" d="M1023.854 460c-0.034 1.424-0.092 2.846-0.136 4.268-0.078 2.536-0.162 5.070-0.278 7.602-0.082 1.806-0.19 3.606-0.29 5.408-0.118 2.090-0.24 4.174-0.382 6.26-0.142 2.084-0.302 4.164-0.468 6.244-0.138 1.702-0.284 3.398-0.438 5.096-0.216 2.404-0.446 4.808-0.698 7.206-0.122 1.166-0.256 2.332-0.386 3.496-0.322 2.902-0.658 5.802-1.030 8.692-0.016 0.124-0.034 0.246-0.050 0.37-14.404 111.506-64.848 214.586-145.662 295.398-83.248 83.25-190.128 134.264-305.508 146.856-0.772 0.084-1.542 0.174-2.314 0.256-2.62 0.274-5.242 0.522-7.87 0.756-1.48 0.134-2.962 0.26-4.442 0.38-2.214 0.178-4.428 0.346-6.646 0.496-1.958 0.134-3.916 0.248-5.876 0.358-1.882 0.106-3.764 0.214-5.65 0.302-2.46 0.112-4.924 0.192-7.386 0.27-1.466 0.046-2.928 0.106-4.398 0.14-3.976 0.090-7.958 0.146-11.946 0.146s-7.97-0.056-11.948-0.146c-1.468-0.034-2.93-0.094-4.398-0.14-2.464-0.076-4.928-0.158-7.386-0.27-1.886-0.084-3.768-0.194-5.65-0.302-1.96-0.11-3.918-0.226-5.876-0.358-2.22-0.15-4.434-0.318-6.646-0.496-1.482-0.12-2.964-0.248-4.442-0.38-2.626-0.234-5.25-0.482-7.87-0.756-0.772-0.080-1.542-0.17-2.314-0.256-115.378-12.592-222.258-63.606-305.51-146.856-80.812-80.816-131.256-183.894-145.662-295.4-0.016-0.124-0.034-0.246-0.050-0.37-0.37-2.89-0.708-5.79-1.030-8.692-0.13-1.166-0.264-2.33-0.386-3.496-0.25-2.398-0.48-4.802-0.698-7.206-0.154-1.698-0.3-3.396-0.438-5.096-0.168-2.080-0.326-4.16-0.468-6.244-0.144-2.086-0.264-4.17-0.382-6.26-0.1-1.802-0.206-3.602-0.29-5.408-0.116-2.53-0.198-5.064-0.278-7.602-0.044-1.422-0.104-2.842-0.136-4.268-0.086-3.994-0.142-7.992-0.142-11.998 0-0.894 0.014-1.786 0.030-2.676l0.020-1.334c0-0.004 0-0.010 0-0.014 1.036-135.254 54.158-262.26 149.912-358.014 96.704-96.704 225.278-149.962 362.038-149.962s265.334 53.258 362.040 149.96c95.754 95.754 148.878 222.762 149.912 358.014 0 0.004 0 0.010 0 0.014l0.020 1.334c0.016 0.89 0.030 1.782 0.030 2.676-0.002 4.008-0.058 8.006-0.148 12.002zM886.178 702.918c43.866-64.19 71.662-140.18 77.552-222.148l-105.888 22.032-40.828 117.182 69.164 82.934zM476.732 899.558c0.408 0.032 0.814 0.060 1.22 0.090 3.438 0.256 6.886 0.478 10.344 0.658 0.194 0.010 0.388 0.024 0.582 0.034 3.462 0.176 6.934 0.302 10.416 0.398 0.75 0.020 1.502 0.038 2.254 0.056 3.474 0.076 6.958 0.13 10.45 0.13s6.976-0.054 10.452-0.132c0.752-0.018 1.502-0.034 2.254-0.056 3.482-0.096 6.954-0.222 10.416-0.398 0.194-0.010 0.388-0.024 0.582-0.034 3.458-0.18 6.906-0.4 10.344-0.658 0.408-0.030 0.814-0.060 1.22-0.090 28.282-2.188 55.832-7.012 82.434-14.178l-55.66-92.762h-124.090l-55.654 92.764c26.604 7.166 54.152 11.988 82.436 14.178zM137.826 702.918l69.164-82.936-40.828-117.182-105.888-22.032c5.886 81.972 33.682 157.962 77.552 222.15zM318.746 38.438c-72.296 34.252-134.128 87.092-179.302 152.314l102.266 34.646 94.612-80.294-17.576-106.666zM705.256 38.438l-17.576 106.668 94.612 80.294 102.266-34.646c-45.174-65.226-107.006-118.064-179.302-152.316zM915.606 242.608l-130.2 44.11c-9.828 3.33-20.68 1.258-28.594-5.456l-120.116-101.938c-7.91-6.714-11.718-17.088-10.034-27.324l22.362-135.716c-43.244-13.76-89.28-21.208-137.026-21.208s-93.782 7.45-137.030 21.208l22.364 135.716c1.686 10.236-2.122 20.61-10.034 27.324l-120.116 101.938c-7.908 6.714-18.758 8.778-28.594 5.456l-130.2-44.11c-27.56 53.936-44.594 114.096-48.446 177.754l134.622 28.008c10.158 2.112 18.464 9.402 21.876 19.2l51.834 148.768c3.412 9.798 1.436 20.67-5.21 28.636l-87.932 105.442c44.506 49.526 99.738 89.222 162.012 115.382l70.75-117.92c5.342-8.894 14.956-14.34 25.332-14.34h157.538c10.376 0 19.99 5.444 25.328 14.34l70.75 117.92c62.274-26.16 117.506-65.856 162.012-115.382l-87.932-105.442c-6.646-7.968-8.624-18.838-5.21-28.636l51.834-148.768c3.412-9.798 11.718-17.088 21.876-19.2l134.622-28.008c-3.846-63.66-20.878-123.82-48.438-177.754zM717.732 462.77l-90.074 156.016c-5.278 9.14-15.028 14.77-25.58 14.77h-180.15c-10.554 0-20.304-5.63-25.58-14.77l-90.078-156.016c-5.278-9.14-5.278-20.4 0-29.538l90.074-156.016c5.278-9.14 15.028-14.77 25.58-14.77h180.15c10.554 0 20.304 5.63 25.58 14.77l90.078 156.016c5.276 9.138 5.276 20.398 0 29.538zM585.020 321.522h-146.042l-73.020 126.478 73.022 126.478h146.042l73.020-126.478-73.022-126.478z" />
<glyph unicode="&#xe925;" glyph-name="travel" data-tags="backpack" d="M952.394 319.118l-135.164 33.79v124.63h49.23c16.314 0 29.538 13.226 29.538 29.538v187.076c0.002 76.012-61.834 137.848-137.844 137.848h-19.692v11.816c0 64.062-52.122 116.184-116.186 116.184h-220.554c-64.064 0-116.184-52.122-116.184-116.184v-11.816h-19.692c-76.008 0-137.846-61.836-137.846-137.846v-187.076c0-16.314 13.226-29.538 29.538-29.538h49.23v-124.63l-135.164-33.792c-13.148-3.284-22.374-15.1-22.374-28.654v-265.846c0-48.862 39.752-88.616 88.616-88.616h748.308c48.862 0 88.616 39.752 88.616 88.616v265.844c0 13.554-9.226 25.37-22.376 28.656zM206.77-4.924h-68.924c-16.288 0-29.538 13.25-29.538 29.538v242.784l98.462 24.616v-296.938zM344.616 843.816c0 31.488 25.618 57.108 57.108 57.108h220.554c31.488 0 57.108-25.62 57.108-57.108v-11.816h-334.77v11.816zM758.154 329.846v-334.77h-492.308v482.462h59.076v-39.384c0-32.574 26.502-59.076 59.076-59.076h19.692c32.576 0 59.078 26.502 59.078 59.076v39.384h98.462v-39.384c0-32.574 26.502-59.076 59.078-59.076h19.692c32.574 0 59.076 26.502 59.076 59.076v39.384h59.076v-147.692zM384 438.154v137.846h19.692v-137.848h-19.692zM620.308 438.154v137.846h19.692v-137.848h-19.692zM699.076 536.616v39.384c0 32.574-26.502 59.076-59.076 59.076h-19.692c-32.576 0-59.078-26.502-59.078-59.076v-39.384h-98.462v39.384c0 32.574-26.502 59.076-59.078 59.076h-19.69c-32.574 0-59.076-26.502-59.076-59.076v-39.384h-137.848v157.538c0 43.434 35.336 78.77 78.77 78.77h492.308c43.434 0 78.77-35.336 78.77-78.77v-157.538h-137.848zM915.692 24.616c0-16.288-13.25-29.538-29.538-29.538h-68.924v296.936l98.462-24.616v-242.782zM689.23 339.692h-354.46c-16.314 0-29.538-13.226-29.538-29.538v-236.308c0-16.314 13.226-29.538 29.538-29.538h354.462c16.314 0 29.538 13.226 29.538 29.538v236.308c0 16.312-13.226 29.538-29.54 29.538zM659.692 103.384h-295.384v177.23h295.384v-177.23z" />
<glyph unicode="&#xe926;" glyph-name="access" data-tags="password" d="M776.339 590.748h-16.679v121.617c0.005 136.546-111.094 247.635-247.656 247.635-136.556 0-247.656-111.089-247.656-247.635v-121.617h-16.689c-48.65 0-88.234-39.584-88.234-88.234v-478.274c0-48.65 39.584-88.234 88.234-88.234h528.679c48.65 0 88.234 39.584 88.234 88.234v478.274c0 48.65-39.579 88.234-88.234 88.234zM339.979 712.365c0 94.844 77.172 172.006 172.026 172.006s172.026-77.162 172.026-172.006v-121.617h-344.053v121.617zM788.944 24.234c0-6.832-5.773-12.605-12.605-12.605h-528.679c-6.832 0-12.605 5.773-12.605 12.605v478.279c0 6.832 5.773 12.605 12.605 12.605h528.679c6.832 0 12.605-5.773 12.605-12.605v-478.279zM511.995 373.576c-20.884 0-37.815-16.926-37.815-37.815v-144.78c0-20.889 16.931-37.815 37.815-37.815s37.815 16.926 37.815 37.815v144.78c0 20.889-16.931 37.815-37.815 37.815z" />
<glyph unicode="&#xe927;" glyph-name="progress" data-tags="goal" d="M963.228 612.795h-31.201v275.186c0 15.615-12.662 28.271-28.277 28.271h-198.861c-15.615 0-28.271-12.656-28.271-28.271v-135.1c0-15.615 12.656-28.277 28.271-28.277h170.59v-111.809h-138.111c-15.621 0-28.277-12.656-28.277-28.271v-108.621h-197.59c-15.615 0-28.277-12.656-28.277-28.271v-108.615h-197.59c-15.609 0-28.266-12.656-28.266-28.271v-108.621h-197.596c-15.615 0-28.271-12.656-28.271-28.271v-165.17c0-15.615 12.656-28.277 28.271-28.277h903.457c15.615 0 28.271 12.662 28.271 28.277v575.842c0 15.615-12.656 28.271-28.271 28.271zM733.16 781.152v78.545h142.318v-78.545zM934.951 36.953h-846.902v108.621h197.584c15.621 0 28.277 12.662 28.277 28.277v108.609h197.59c15.615 0 28.271 12.668 28.271 28.283v108.615h197.596c15.609 0 28.266 12.656 28.266 28.271v108.621h169.318z" />
<glyph unicode="&#xe928;" glyph-name="progress-2" data-tags="success" d="M913.631 638.679h-130.664v100.656h210.992c0.016 0 0.031 0 0.039 0 16.57 0 30 13.437 30 30 0 8.758-3.742 16.633-9.727 22.117l-58.219 58.219 59.125 59.117c8.578 8.578 11.141 21.484 6.5 32.687-4.641 11.211-15.578 18.523-27.711 18.523h-241c-16.562 0-29.992-13.43-29.992-30v-291.32h-34.273c-60.836 0-110.328-49.5-110.328-110.336v-62.523c-15.102 7.773-32.203 12.195-50.328 12.195h-32.133c-60.836 0-110.328-49.492-110.328-110.328v-62.531c-15.109 7.773-32.211 12.195-50.336 12.195h-32.125c-60.844 0-110.336-49.492-110.336-110.328v-62.531c-15.102 7.781-32.203 12.203-50.328 12.203h-32.133c-60.836 0-110.328-49.492-110.328-110.328v-80.328c0-16.57 13.43-30 30-30h963.959c16.57 0 30 13.43 30 30v562.304c0 60.836-49.492 110.336-110.328 110.336zM782.967 899.999h138.57l-29.117-29.117c-5.633-5.625-8.789-13.258-8.789-21.211 0-7.961 3.156-15.586 8.789-21.219l29.117-29.117h-138.57zM60 46.368c0 27.75 22.578 50.328 50.328 50.328h32.133c27.75 0 50.328-22.578 50.328-50.328v-50.336h-132.789zM252.789 46.368v160.656c0 27.758 22.578 50.336 50.328 50.336h32.133c27.75 0 50.328-22.578 50.328-50.336v-210.992h-132.789zM445.577 207.024v160.664c0 27.75 22.586 50.328 50.336 50.328h32.133c27.75 0 50.328-22.578 50.328-50.328v-371.656h-132.797zM963.959-3.968h-325.585v532.311c0 27.758 22.578 50.336 50.328 50.336h224.929c27.75 0 50.328-22.578 50.328-50.336z" />
<glyph unicode="&#xe929;" glyph-name="art" data-tags="color" d="M546.141-64c-141.391 0-274.375 53.117-374.453 149.555-100.398 96.75-155.688 225.469-155.688 362.445s55.289 265.695 155.688 362.445c100.078 96.438 233.063 149.555 374.453 149.555 75.164 0 147.82-14.891 215.93-44.266 65.859-28.406 124.18-68.844 173.352-120.195 27.555-28.781 44.109-91.367 22.805-142.305-10.555-25.242-39.563-67.75-115.258-68.883-132.789-1.977-132.789-63.664-132.789-86.891 0-59.641 93.32-93.477 194.156-121.164 65.938-18.094 90.352-56.578 99.227-85.672 18.633-61.125-15.141-129.719-49.734-169.875-101.117-117.414-249.719-184.75-407.688-184.75zM546.141 897.609c-257.922 0-467.75-201.695-467.75-449.609s209.828-449.609 467.75-449.609c139.789 0 271.164 59.438 360.422 163.070 25.313 29.391 47.789 76.648 37.328 110.969-6.258 20.508-25.117 35.211-56.063 43.711-51.586 14.156-110.398 32.148-155.539 58.25-56.070 32.414-84.5 73.828-84.5 123.070 0 50.344 20.289 90.398 58.68 115.82 32.672 21.641 77.016 32.578 135.57 33.453 46.133 0.688 55.539 23.18 58.633 30.57 10.859 25.969 1.375 62.875-10.313 75.086-88.367 92.289-213.828 145.219-344.219 145.219zM654.32 74.867c-72.313 0-131.148 58.836-131.148 131.148s58.836 131.141 131.148 131.141 131.141-58.828 131.141-131.141-58.828-131.148-131.141-131.148zM654.32 274.773c-37.914 0-68.758-30.844-68.758-68.758 0-37.906 30.844-68.758 68.758-68.758s68.758 30.844 68.758 68.758c0 37.914-30.844 68.758-68.758 68.758zM331.086 154.227c-72.305 0-131.141 58.836-131.141 131.148s58.836 131.141 131.141 131.141c72.32 0 131.148-58.828 131.148-131.141s-58.828-131.148-131.148-131.148zM331.086 354.133c-37.906 0-68.75-30.844-68.75-68.758s30.844-68.758 68.75-68.758c37.914 0 68.758 30.844 68.758 68.758s-30.844 68.758-68.758 68.758zM323.547 478.633c-72.313 0-131.148 58.828-131.148 131.141s58.836 131.148 131.148 131.148 131.141-58.836 131.141-131.148-58.828-131.141-131.141-131.141zM323.547 678.531c-37.914 0-68.758-30.844-68.758-68.758s30.844-68.758 68.758-68.758c37.906 0 68.75 30.844 68.75 68.758s-30.844 68.758-68.75 68.758zM600.82 631.062c-57.719 0-104.68 46.961-104.68 104.68s46.961 104.68 104.68 104.68c57.727 0 104.68-46.961 104.68-104.68s-46.953-104.68-104.68-104.68zM600.82 778.039c-23.32 0-42.289-18.977-42.289-42.297s18.977-42.289 42.289-42.289c23.32 0 42.297 18.969 42.297 42.289s-18.977 42.297-42.297 42.297z" />
<glyph unicode="&#xe92a;" glyph-name="culture" data-tags="admission" d="M950.554 524.329c16.836 0 30.477 13.648 30.477 30.477v159.242c0 11.617-6.602 22.219-17.023 27.344l-438.039 215.476c-8.484 4.18-18.422 4.18-26.906 0l-438.039-215.476c-10.422-5.125-17.023-15.727-17.023-27.344v-159.242c0-16.828 13.648-30.477 30.477-30.477h31.109v-420.375h-31.109c-16.828 0-30.477-13.648-30.477-30.477v-107c0-16.836 13.648-30.477 30.477-30.477h876.077c16.836 0 30.477 13.641 30.477 30.477v107c0 16.828-13.641 30.477-30.477 30.477h-31.109v420.375zM104.946 695.078l407.57 200.484 407.57-200.484v-109.797h-815.14zM612.383 103.954v420.375h107.336v-420.375zM412.649 524.329v-420.375h-107.336v420.375zM473.594 524.329h77.836v-420.375h-77.836zM166.532 524.329h77.836v-420.375h-77.836zM920.086-3.054h-815.14v46.055h815.14zM858.5 103.954h-77.836v420.375h77.836zM676.961 778.399h-328.89c-16.828 0-30.469-13.641-30.469-30.469v-99.516c0-16.828 13.641-30.477 30.469-30.477h328.89c16.828 0 30.469 13.648 30.469 30.477v99.516c0 16.828-13.641 30.469-30.469 30.469zM646.484 678.883h-267.937v38.57h267.937z" />
<glyph unicode="&#xe92b;" glyph-name="bell" data-tags="bell" d="M809.219 272.859v264.906c0 125.961-80.914 233.359-193.492 272.992v48.086c0 55.781-45.383 101.156-101.156 101.156h-4.008c-55.781 0-101.156-45.375-101.156-101.156v-48.094c-112.578-39.633-193.5-147.023-193.5-272.992v-264.898c-56.211-6.836-99.906-54.82-99.906-112.852v-4.719c0-62.711 51.016-113.719 113.719-113.719h150.398c13.828-60.375 67.938-105.57 132.445-105.57s118.625 45.195 132.453 105.57h150.398c62.703 0 113.719 51.016 113.719 113.719v4.719c0 58.031-43.695 106.016-99.914 112.852zM470.078 827.086v31.758c0 22.328 18.156 40.484 40.484 40.484h4.008c22.32 0 40.484-18.156 40.484-40.484v-31.758zM276.578 537.766c0 126.078 102.57 228.648 228.656 228.648h14.664c126.078 0 228.656-102.57 228.656-228.648v-264.039h-471.977zM512.563-3.328c-30.695 0-57.156 18.477-68.844 44.898h137.695c-11.688-26.422-38.148-44.898-68.852-44.898zM848.461 155.289c0-29.25-23.797-53.047-53.047-53.047h-565.695c-29.25 0-53.047 23.797-53.047 53.047v4.719c0 29.258 23.797 53.055 53.047 53.055h565.695c29.25 0 53.047-23.797 53.047-53.055z" />
<glyph unicode="&#xe92c;" glyph-name="intellect" data-tags="intellect" d="M62 448c0-61.352 26.445-116.641 68.539-155.070-5.664-17.641-8.539-36.031-8.539-54.93 0-102.484 85.719-184.172 187.617-179.836 25.258-90.492 108.406-122.164 202.383-122.164 93.93 0 177.172 31.633 202.398 122.156 102.359-4.234 187.602 77.734 187.602 179.844 0 18.898-2.875 37.289-8.539 54.93 42.094 38.43 68.539 93.719 68.539 155.070 0 61.844-26.883 117.523-69.563 155.992 6.352 17.352 9.563 35.438 9.563 54.008 0 92.695-82.18 169.258-187.367 178.961-24.867 90.906-107.961 123.039-202.633 123.039-94.305 0-177.805-31.664-202.672-123.039-105.172-9.719-187.328-86.266-187.328-178.961 0-18.57 3.211-36.656 9.563-54.008-42.68-38.469-69.563-94.148-69.563-155.992zM660.328 803.57c2.188-15.672 16.531-27.781 33.805-25.586 81.734-0.914 147.867-54.383 147.867-119.984 0-6.547-0.672-13.008-1.969-19.367-26.789 12.422-56.609 19.367-88.031 19.367-32.383 0-62.375-10.352-86.914-27.867-7.625 5.617-10.328 13.453-11.211 17.195-1.156 4.891-2.688 17.43 7.984 28.109 11.719 11.711 11.719 30.703 0 42.422-11.711 11.719-30.711 11.719-42.422 0-22.219-22.219-31.172-53.734-23.961-84.32 4.445-18.813 14.539-35.188 28.578-47.336-13.977-22.781-22.055-49.57-22.055-78.203 0-16.57 13.43-30 30-30s30 13.43 30 30c0 49.625 40.375 90 90 90 82.711 0 150-67.289 150-150s-67.289-150-150-150c-16.57 0-30-13.43-30-30s13.43-30 30-30c31.57 0 61.531 7.016 88.422 19.555 1.047-6.406 1.578-12.93 1.578-19.555 0-76.742-71.406-133.508-145.133-117.344-17.25 3.789-34.047-8.102-36.203-25.633-6.508-52.875-37.406-90.203-118.664-97.695v901.352c80.008-7.391 111.141-43.742 118.328-95.109zM182 658c0 66.172 67.289 120 150 120 0.539 0 1.070 0 1.609-0.008 0.133-0.008 0.266-0.008 0.398-0.008 14.938 0 27.633 11.016 29.703 25.844 7.133 50.992 37.82 87.477 118.289 94.859v-901.367c-66.523 6.141-110.664 32.789-118.68 97.805-2.172 17.641-19.117 29.508-36.414 25.586-71.961-16.359-144.906 39.555-144.906 117.289 0 6.625 0.531 13.148 1.578 19.555 26.891-12.539 56.852-19.555 88.422-19.555 16.57 0 30 13.43 30 30s-13.43 30-30 30c-82.711 0-150 67.289-150 150s67.289 150 150 150c49.625 0 90-40.375 90-90 0-16.57 13.43-30 30-30s30 13.43 30 30c0 30.875-9.383 59.602-25.445 83.484 11.289 11.617 19.406 26.25 23.164 42.711 6.93 30.359-2.078 61.641-24.109 83.664-11.711 11.711-30.711 11.711-42.422 0-11.719-11.719-11.719-30.711 0-42.43 10.578-10.578 9.141-23.023 8.031-27.883-0.695-3.047-2.57-8.844-7.344-13.961-23.563 15.414-51.68 24.414-81.875 24.414-31.422 0-61.242-6.945-88.031-19.367-1.297 6.359-1.969 12.82-1.969 19.367zM692 178c16.57 0 30 13.43 30 30s-13.43 30-30 30c-16.539 0-30 13.461-30 30v60c0 16.539 13.461 30 30 30 49.625 0 90 40.375 90 90 0 16.57-13.43 30-30 30s-30-13.43-30-30c0-16.539-13.461-30-30-30-49.625 0-90-40.375-90-90v-60c0-49.625 40.375-90 90-90zM332 418c-16.539 0-30 13.461-30 30 0 16.57-13.43 30-30 30s-30-13.43-30-30c0-49.625 40.375-90 90-90 16.539 0 30-13.461 30-30v-60c0-16.539-13.461-30-30-30-16.57 0-30-13.43-30-30s13.43-30 30-30c49.625 0 90 40.375 90 90v60c0 49.625-40.375 90-90 90z" />
<glyph unicode="&#xe92d;" glyph-name="strength" data-tags="biceps" d="M857.694 914.382c-15.836 28.138-46.040 45.618-78.828 45.618h-264.944c-49.626 0-90-40.374-90-90v-120c0-49.626 40.374-90 90-90h180c16.542 0 30-13.458 30-30v-235.666c-86.502 23.648-177.686 26.57-265.34 8.74-66.786 63.906-161.376 89.904-255.834 66.286-94.444-23.614-172.826-100.684-195.26-196.612-19.292-82.516-0.484-167.51 51.608-233.186 52.198-65.814 129.772-103.562 212.826-103.562 391.63 0 662.726 148.812 735.416 185.166 10.164 5.082 16.584 15.47 16.584 26.834v130.144c0 223.024-57.482 443.032-166.228 636.238zM963.922 166.486c-97.462-49.092-344.188-170.486-692-170.486-64.628 0-125.066 29.468-165.82 80.85-40.64 51.24-55.29 117.664-40.19 182.24 16.964 72.556 77.804 133.666 151.388 152.066 60.416 15.108 120.986 4.776 169.896-27.506-23.392-8.038-46.344-17.642-68.69-28.814-14.82-7.41-20.826-25.43-13.416-40.25 7.408-14.818 25.428-20.826 40.248-13.416 142.506 71.252 312.658 71.254 455.168 0 14.844-7.424 32.852-1.376 40.248 13.416 7.41 14.82 1.404 32.84-13.416 40.25-14.238 7.12-28.728 13.59-43.416 19.438v255.726c0 49.626-40.374 90-90 90h-30v90c0 16.568-13.432 30-30 30h-60c-16.568 0-30-13.432-30-30s13.432-30 30-30h30v-60h-90c-16.542 0-30 13.458-30 30v120c0 16.542 13.458 30 30 30h264.946c11.146 0 21.316-5.766 26.542-15.046 103.702-184.242 158.514-394.072 158.514-606.81v-111.658z" />
<glyph unicode="&#xe92e;" glyph-name="humanity" data-tags="love" d="M944.322 285.61l-86.98 207.244v77.146c0 215.046-174.954 390-390 390s-390-174.954-390-390v-603.996c0-16.568 13.432-30 30-30s30 13.432 30 30v603.996c0 181.962 148.038 330 330 330s330-148.038 330-330v-83.186c0-3.986 0.794-7.934 2.338-11.61l71.854-171.204h-66.194c-16.568 0-30-13.432-30-30v-52c0-71.682-58.318-130-130-130h-148.006c-16.568 0-30-13.432-30-30v-96c0-16.568 13.432-30 30-30s30 13.432 30 30v66h118.006c104.766 0 190 85.234 190 190v22h81.318c10.044 0 19.422 5.028 24.982 13.392 5.564 8.364 6.568 18.956 2.682 28.218zM618.002 447.424c36.352 37.636 97.338 112.884 97.338 194 0 79.54-64.71 144.25-144.25 144.25-39.574 0-76.154-15.732-102.75-42.826-26.596 27.094-63.176 42.826-102.75 42.826-79.54 0-144.25-64.71-144.25-144.25 0-74.706 60.796-150.666 97.038-189.294 42.328-45.118 107-97.804 149.962-97.804 41.266 0 104.902 46.758 149.662 93.098zM361.242 494.136c-50.032 53.616-79.902 108.676-79.902 147.29 0 46.456 37.794 84.25 84.25 84.25 32.492 0 61.532-18.16 75.784-47.396 5.028-10.31 15.494-16.852 26.966-16.852s21.938 6.542 26.966 16.852c14.252 29.236 43.292 47.396 75.784 47.396 46.456 0 84.25-37.794 84.25-84.25 0-43.798-29.294-99.268-80.37-152.188-48.034-49.766-94.252-74.85-106.58-74.912-12.142 0.446-58.332 27.498-107.148 79.81z" />
<glyph unicode="&#xe92f;" glyph-name="goal" data-tags="target" d="M1022 823.281c-4.492 12.898-15.711 21.891-29.289 23.461l-73.492 8.477-8.484 73.484c-1.562 13.578-10.547 24.805-23.453 29.297-12.898 4.5-26.914 1.289-36.578-8.375l-145.273-145.273c-7.664-7.664-11.352-18.234-10.109-29.008l10.508-91.078-32.359-32.367c-159.914 138.117-402.554 131.305-554.304-20.445-158.883-158.883-158.883-417.406 0-576.289s417.406-158.883 576.289 0c151.75 151.75 158.562 394.39 20.445 554.296l32.367 32.367 91.078-10.508c10.766-1.242 21.344 2.437 29.008 10.109l145.273 145.273c9.664 9.664 12.867 23.68 8.375 36.578zM653.016 97.594c-135.484-135.484-355.937-135.484-491.422 0-135.484 135.492-135.484 355.937 0 491.429 128.344 128.336 332.922 135.101 469.304 20.305l-54.867-54.867c-106.023 84.844-261.625 78.156-359.828-20.047-105.375-105.375-105.375-276.836 0-382.211s276.836-105.375 382.211 0c98.203 98.203 104.891 253.805 20.047 359.828l54.867 54.867c114.797-136.383 108.031-340.961-20.312-469.304zM391.461 327.461c11.719-11.719 30.719-11.719 42.437 0l39.891 39.898c8.953-24.93 3.461-53.922-16.477-73.859-27.516-27.523-72.297-27.523-99.812 0-27.523 27.516-27.523 72.289 0 99.812 19.93 19.937 48.93 25.43 73.852 16.477l-39.891-39.898c-11.719-11.711-11.719-30.711 0-42.43zM476.063 454.5c-50.336 31.109-117.383 24.859-161-18.758-50.914-50.914-50.914-133.766 0-184.68s133.766-50.922 184.68 0c43.617 43.617 49.867 110.664 18.758 161l57.187 57.195c61.633-82.297 55.070-199.844-19.711-274.625-81.977-81.977-215.367-81.977-297.344 0s-81.977 215.367 0 297.344c74.773 74.781 192.328 81.352 274.617 19.711zM834.359 692.305l-69.977 8.078-8.078 69.977 100.68 100.68 5.078-43.961c1.766-15.305 13.687-27.242 29.016-29.023l43.961-5.070z" />
<glyph unicode="&#xe930;" glyph-name="rocket" data-tags="shuttle" d="M1022.8 883.556c-2.218 40.676-34.568 73.022-75.244 75.242-82.076 4.484-242.684 0.122-396.26-79.312-78.29-40.496-161.090-109.154-227.168-188.37-0.814-0.976-1.606-1.958-2.414-2.936l-149.96-11.584c-24.684-1.908-46.67-14.846-60.322-35.494l-102.308-154.744c-10.354-15.66-12-35.258-4.406-52.424 7.596-17.168 23.204-29.132 41.754-32.006l126.342-19.568c-0.446-2.456-0.894-4.91-1.304-7.366-4.206-25.16 4.13-51.028 22.302-69.198l175.984-175.986c15.066-15.066 35.424-23.372 56.284-23.372 4.296 0 8.616 0.354 12.916 1.072 2.456 0.41 4.91 0.858 7.366 1.304l19.568-126.344c2.874-18.55 14.838-34.16 32.002-41.754 7.142-3.16 14.7-4.72 22.224-4.72 10.566 0.002 21.058 3.078 30.202 9.124l154.744 102.31c20.65 13.654 33.586 35.64 35.49 60.322l11.584 149.958c0.978 0.808 1.962 1.6 2.938 2.414 79.218 66.078 147.878 148.878 188.372 227.17 79.438 153.582 83.792 314.192 79.314 396.262zM672.012 97.482l-148.022-97.866-19.072 123.13c62.56 18.394 124.446 47.854 183.404 87.32l-7.546-97.69c-0.47-6.094-3.666-11.524-8.764-14.894zM412.222 172.236l-175.986 175.986c-4.49 4.492-6.566 10.802-5.548 16.88 5.232 31.286 13.362 61.068 23.426 89.124l264.056-264.056c-33.696-12.070-63.878-19.27-89.068-23.482-6.088-1.012-12.39 1.058-16.88 5.548zM176.376 616.774l97.688 7.546c-39.468-58.958-68.928-120.844-87.322-183.404l-123.128 19.070 97.868 148.024c3.372 5.1 8.802 8.294 14.894 8.764zM716.686 306.202c-48.466-40.426-95.512-69.666-138.876-90.824l-298.442 298.442c27.716 56.608 61.542 103.746 90.834 138.862 61.15 73.31 137.204 136.552 208.662 173.512 140.948 72.906 289.45 76.832 365.426 72.696 10.056-0.548 18.054-8.546 18.602-18.604 4.142-75.976 0.208-224.476-72.698-365.426-36.958-71.456-100.2-147.508-173.508-208.658zM701.442 487.514c38.404 0.004 76.824 14.624 106.062 43.862 28.332 28.33 43.932 65.998 43.932 106.062s-15.602 77.732-43.932 106.062c-58.484 58.486-153.644 58.482-212.124 0-28.332-28.33-43.934-65.998-43.934-106.062s15.604-77.732 43.934-106.062c29.244-29.244 67.644-43.866 106.062-43.862zM637.802 701.076c17.544 17.546 40.59 26.318 63.636 26.318 23.048 0 46.094-8.772 63.638-26.318 16.998-16.998 26.358-39.598 26.358-63.636s-9.36-46.64-26.358-63.638c-35.088-35.090-92.186-35.088-127.276 0-16.998 16.998-26.36 39.598-26.36 63.636s9.364 46.64 26.362 63.638zM30.602 116.124c7.678 0 15.356 2.928 21.212 8.788l97.946 97.946c11.716 11.716 11.716 30.71 0 42.426-11.714 11.716-30.71 11.716-42.426 0l-97.944-97.946c-11.716-11.716-11.716-30.71 0-42.426 5.856-5.858 13.534-8.788 21.212-8.788zM239.522 175.522c-11.714 11.716-30.71 11.716-42.426 0l-188.308-188.31c-11.716-11.716-11.716-30.71 0-42.426 5.858-5.858 13.534-8.786 21.212-8.786s15.356 2.928 21.212 8.788l188.308 188.308c11.718 11.716 11.718 30.71 0.002 42.426zM286.858 85.76l-97.946-97.946c-11.716-11.716-11.716-30.71 0-42.426 5.858-5.858 13.536-8.788 21.212-8.788s15.356 2.928 21.212 8.788l97.946 97.946c11.716 11.716 11.716 30.71 0 42.426-11.714 11.716-30.71 11.716-42.424 0z" />
<glyph unicode="&#xe931;" glyph-name="career" data-tags="briefcase" d="M994 719h-271.25v59.616c0 66.794-54.342 121.134-121.134 121.134h-179.23c-66.792 0-121.134-54.34-121.134-121.134v-59.616h-271.252c-16.568 0-30-13.432-30-30v-545c0-81.47 66.282-147.75 147.75-147.75h728.5c81.468 0 147.75 66.28 147.75 147.75v545c0 16.568-13.432 30-30 30zM580.070 327.5c0-37.534-30.538-68.070-68.070-68.070s-68.070 30.536-68.070 68.070v68.070h136.14zM610.070 455.57h-196.14c-16.568 0-30-13.432-30-30v-54.494c-174.456 37.864-305.234 151.020-322.060 287.924h900.258c-16.826-136.904-147.602-250.060-322.058-287.926v54.494c0 16.57-13.432 30.002-30 30.002zM361.25 778.616c0 33.71 27.426 61.134 61.134 61.134h179.23c33.708 0 61.134-27.424 61.134-61.134v-59.616h-301.5v59.616zM964 144c0-48.386-39.366-87.75-87.75-87.75h-728.5c-48.384 0-87.75 39.364-87.75 87.75v360.292c24.22-34.634 55.448-66.616 93.174-94.91 65.374-49.030 145.184-83.070 232.044-99.864 8.772-62.13 62.268-110.086 126.782-110.086s118.010 47.956 126.782 110.086c86.86 16.794 166.668 50.834 232.044 99.864 37.726 28.294 68.954 60.278 93.174 94.91z" />
<glyph unicode="&#xe932;" glyph-name="travel-2" data-tags="airplane" d="M1018.836 619.659c-7.814 21.468-23.522 38.612-44.228 48.266-74.961 34.956-159.046 38.624-236.768 10.338l-81.207-29.556-231.766 114.707c-7.346 3.634-15.866 4.108-23.568 1.304l-138.377-50.366c-10.45-3.804-17.938-13.074-19.458-24.090s3.178-21.968 12.208-28.46l146.861-105.583-204.1-74.285-75.735 61.409c-8.186 6.636-19.254 8.494-29.156 4.888l-73.801-26.862c-7.476-2.722-13.566-8.302-16.928-15.514s-3.722-15.46-1-22.938l47.008-129.153c15.296-42.028 46.044-75.585 86.581-94.485 40.536-18.904 86.005-20.888 128.033-5.592l179.806 65.445-38.772-152.253c-2.744-10.776 0.698-22.186 8.942-29.646 5.608-5.074 12.812-7.758 20.134-7.756 3.442 0 6.914 0.592 10.256 1.808l138.379 50.366c7.704 2.804 13.924 8.638 17.216 16.148l92.913 211.988 275.409 100.239c44.318 16.134 67.251 65.315 51.118 109.635zM336.783 677.385l72.973 26.558 168.932-83.609-107.917-39.278zM947.193 566.408l-287.471-104.629c-7.704-2.804-13.924-8.638-17.216-16.148l-92.913-211.988-72.975-26.56 38.772 152.253c2.744 10.776-0.698 22.186-8.942 29.646-5.608 5.074-12.812 7.756-20.134 7.756-3.444 0-6.916-0.594-10.256-1.808l-233.146-84.859c-26.968-9.816-56.145-8.542-82.155 3.586s-45.74 33.66-55.555 60.627l-36.748 100.963 29.648 10.792 75.735-61.409c8.184-6.634 19.252-8.49 29.156-4.888l555.369 202.138c62.663 22.808 130.455 19.848 190.89-8.334 6.18-2.882 10.87-8 13.204-14.41 4.812-13.232-2.034-27.914-15.264-32.728z" />
<glyph unicode="&#xe933;" glyph-name="star" data-tags="star-1" d="M1022.53 565.489c-3.528 10.862-12.916 18.776-24.216 20.418l-317.443 46.13-141.968 287.653c-5.054 10.24-15.482 16.722-26.902 16.722-11.418 0-21.848-6.484-26.902-16.722l-141.976-287.655-317.437-46.128c-11.3-1.642-20.688-9.558-24.216-20.418-3.53-10.86-0.586-22.782 7.59-30.752l229.696-223.91-54.216-316.165c-1.93-11.254 2.698-22.63 11.936-29.34 9.236-6.71 21.48-7.596 31.594-2.284l283.929 149.272 283.921-149.274c4.39-2.308 9.182-3.446 13.958-3.446 6.22 0 12.412 1.932 17.636 5.73 9.238 6.712 13.866 18.086 11.936 29.342l-54.232 316.165 229.72 223.908c8.178 7.972 11.122 19.894 7.592 30.754zM732.045 342.785c-7.072-6.892-10.3-16.824-8.628-26.556l46.622-271.795-244.076 128.324c-8.74 4.594-19.182 4.594-27.922 0l-244.090-128.326 46.608 271.799c1.668 9.732-1.558 19.66-8.626 26.552l-197.462 192.488 272.889 39.658c9.772 1.42 18.216 7.556 22.588 16.41l122.050 247.292 122.046-247.29c4.372-8.854 12.816-14.992 22.588-16.412l272.893-39.656-197.482-192.488z" />
<glyph unicode="&#xe934;" glyph-name="star-filled" data-tags="star" d="M1022.53 565.486c-3.528 10.862-12.914 18.778-24.214 20.418l-317.445 46.13-141.969 287.653c-5.052 10.24-15.482 16.722-26.9 16.722-11.42 0-21.848-6.482-26.902-16.722l-141.975-287.653-317.439-46.13c-11.298-1.64-20.688-9.556-24.216-20.416-3.53-10.862-0.586-22.784 7.592-30.754l229.695-223.907-54.216-316.165c-1.932-11.256 2.696-22.628 11.934-29.342 5.226-3.796 11.416-5.728 17.636-5.728 4.776 0 9.568 1.138 13.956 3.446l283.933 149.275 283.921-149.273c10.11-5.314 22.356-4.43 31.594 2.282s13.868 18.088 11.938 29.344l-54.234 316.161 229.721 223.909c8.176 7.968 11.122 19.89 7.59 30.75z" />
<glyph unicode="&#xe935;" glyph-name="star-2" data-tags="favorite" d="M874.040 810.040c-96.706 96.702-225.28 149.96-362.040 149.96s-265.334-53.258-362.040-149.96c-96.702-96.706-149.96-225.28-149.96-362.040s53.258-265.334 149.96-362.040c96.706-96.702 225.28-149.96 362.040-149.96s265.334 53.258 362.040 149.96c96.702 96.706 149.96 225.28 149.96 362.040s-53.258 265.334-149.96 362.040zM512-4c-249.234 0-452 202.766-452 452s202.766 452 452 452 452-202.766 452-452-202.766-452-452-452zM840.532 558.414c-3.528 10.86-12.916 18.776-24.216 20.418l-191.688 27.854-85.724 173.698c-5.054 10.24-15.484 16.722-26.902 16.722s-21.848-6.484-26.902-16.722l-85.724-173.698-191.688-27.854c-11.3-1.642-20.688-9.558-24.216-20.418-3.53-10.86-0.586-22.782 7.59-30.752l138.706-135.206-32.744-190.912c-1.93-11.254 2.696-22.63 11.934-29.342 9.24-6.712 21.486-7.598 31.594-2.284l171.448 90.136 171.45-90.136c4.388-2.308 9.182-3.446 13.958-3.446 6.22 0 12.41 1.932 17.636 5.73 9.238 6.712 13.866 18.086 11.934 29.342l-32.744 190.912 138.706 135.206c8.178 7.968 11.12 19.89 7.592 30.752zM641.060 424.412c-7.070-6.892-10.296-16.822-8.628-26.554l25.134-146.544-131.606 69.186c-4.37 2.298-9.166 3.446-13.96 3.446s-9.59-1.148-13.96-3.446l-131.606-69.188 25.134 146.544c1.668 9.732-1.558 19.662-8.628 26.554l-106.472 103.784 147.14 21.38c9.77 1.42 18.218 7.558 22.588 16.412l65.804 133.334 65.802-133.332c4.37-8.854 12.818-14.992 22.588-16.412l147.14-21.38z" />
<glyph unicode="&#xe936;" glyph-name="star-2-filled" data-tags="favorite-1" d="M577.802 565.988l-65.802 133.332-65.802-133.332c-4.37-8.854-12.818-14.992-22.588-16.412l-147.14-21.38 106.472-103.784c7.070-6.892 10.296-16.822 8.628-26.554l-25.134-146.544 131.606 69.188c4.37 2.298 9.166 3.446 13.96 3.446s9.59-1.148 13.96-3.446l131.606-69.188-25.134 146.544c-1.668 9.732 1.558 19.662 8.628 26.554l106.472 103.784-147.14 21.38c-9.774 1.42-18.222 7.558-22.592 16.412zM512 960c-282.318 0-512-229.682-512-512s229.682-512 512-512 512 229.682 512 512-229.682 512-512 512zM832.94 527.66l-138.706-135.206 32.744-190.912c1.93-11.254-2.696-22.63-11.934-29.342-5.226-3.796-11.416-5.73-17.636-5.73-4.776 0-9.568 1.138-13.958 3.446l-171.45 90.138-171.45-90.136c-10.108-5.316-22.354-4.43-31.594 2.284-9.238 6.712-13.866 18.086-11.934 29.342l32.744 190.912-138.706 135.204c-8.176 7.97-11.12 19.892-7.59 30.752 3.528 10.86 12.916 18.776 24.216 20.418l191.688 27.854 85.724 173.698c5.054 10.24 15.484 16.722 26.902 16.722s21.848-6.484 26.902-16.722l85.724-173.698 191.688-27.854c11.3-1.642 20.688-9.558 24.216-20.418 3.53-10.86 0.588-22.782-7.59-30.752z" />
<glyph unicode="&#xe937;" glyph-name="fire" data-tags="fire" d="M738.43 640.372c-182.778 111.202-97.066 268.156-93.388 274.68 5.336 9.284 5.32 20.706-0.044 29.974-5.362 9.268-15.258 14.974-25.966 14.974-94.086 0-167.762-26.732-218.98-79.456-87.518-90.090-83.458-230.304-81.726-290.18 0.192-6.632 0.358-12.364 0.358-16.62 0-44.456 7.132-85.498 13.426-121.708 4.056-23.334 7.558-43.486 8.18-59.33 0.666-16.96-2.43-20.848-2.562-21.004-0.442-0.524-4.122-2.482-14.072-2.482-11.348 0-19.714 3.708-27.126 12.018-28.952 32.464-30.954 121.108-25.418 169.334 0.99 8.504-1.7 17.024-7.394 23.416-5.692 6.392-13.844 10.048-22.404 10.048-77.89 0-136.092-127.376-136.092-241.264 0-53.538 10.768-105.984 32.006-155.88 20.532-48.236 49.81-91.772 87.024-129.392 77.504-78.35 179.69-121.5 287.738-121.5 108.482 0 210.642 42.54 287.662 119.78 76.82 77.040 119.126 178.966 119.126 286.996-0.002 137.844-107.854 253.494-180.348 297.596zM511.99-4c-187.966 0-346.766 158.802-346.766 346.776 0 45.714 10.908 93.7 29.926 131.65 4.442 8.866 9 16.472 13.498 22.88 0.502-49.494 8.342-116.964 43.052-155.944 18.724-21.026 43.606-32.14 71.958-32.14 26.486 0 46.67 8.028 59.986 23.86 24.896 29.596 17.254 73.564 7.582 129.23-5.878 33.82-12.54 72.154-12.54 111.434 0 5.126-0.178 11.256-0.382 18.358-1.642 56.716-5.060 174.734 64.786 246.632 31.354 32.278 75.13 51.922 130.51 58.644-6.252-20.76-11.642-47.114-11.85-76.622-0.46-65.016 24.408-157.978 145.496-231.646 58.586-35.642 151.532-134.036 151.532-246.338-0.002-191.212-155.57-346.774-346.788-346.774z" />
<glyph unicode="&#xe938;" glyph-name="fire-filled" data-tags="fire-1" d="M738.428 640.372c-182.778 111.202-97.066 268.156-93.386 274.68 5.336 9.284 5.318 20.706-0.046 29.974-5.362 9.268-15.258 14.974-25.966 14.974-94.086 0-167.762-26.732-218.98-79.458-87.518-90.088-83.458-230.302-81.724-290.176 0.194-6.634 0.358-12.364 0.358-16.622 0-44.456 7.132-85.496 13.426-121.708 4.056-23.336 7.558-43.488 8.182-59.328 0.666-16.964-2.432-20.848-2.562-21.006-0.442-0.526-4.124-2.482-14.072-2.482-11.348 0-19.712 3.708-27.126 12.018-28.952 32.466-30.954 121.108-25.418 169.334 0.99 8.504-1.7 17.024-7.394 23.416-5.692 6.392-13.844 10.048-22.402 10.048-77.89 0-136.094-127.376-136.094-241.264 0-53.538 10.77-105.982 32.008-155.88 20.532-48.238 49.808-91.77 87.024-129.392 77.498-78.35 179.684-121.5 287.73-121.5 108.484 0 210.642 42.54 287.662 119.778 76.82 77.042 119.128 178.964 119.128 286.998 0 137.842-107.854 253.492-180.348 297.596z" />
<glyph unicode="&#xe939;" glyph-name="minus" data-tags="minus" d="M983.682 647.146c-38.942 91.892-103.872 170.026-185.572 225.274-81.676 55.248-180.324 87.594-286.11 87.58-70.508 0.004-137.892-14.36-199.142-40.316-91.89-38.944-170.026-103.87-225.276-185.57-55.248-81.672-87.596-180.322-87.582-286.114-0.004-70.51 14.362-137.896 40.318-199.146 38.942-91.892 103.874-170.026 185.572-225.274 81.676-55.248 180.324-87.594 286.11-87.58 70.506-0.004 137.892 14.36 199.142 40.316 91.89 38.942 170.026 103.87 225.276 185.57 55.25 81.674 87.596 180.326 87.582 286.114 0.004 70.512-14.362 137.896-40.318 199.146zM920.826 275.486c-33.702-79.562-90.090-147.446-160.952-195.352-70.886-47.906-156.040-75.852-247.872-75.866-61.238 0.004-119.458 12.436-172.51 34.908-79.562 33.702-147.448 90.088-195.354 160.95-47.91 70.884-75.858 156.040-75.872 247.874 0.004 61.24 12.438 119.462 34.908 172.514 33.702 79.562 90.090 147.448 160.952 195.352 70.886 47.908 156.042 75.854 247.874 75.868 61.238-0.004 119.458-12.436 172.51-34.908 79.562-33.7 147.448-90.088 195.354-160.95 47.906-70.886 75.854-156.040 75.868-247.878-0.004-61.238-12.436-119.46-34.906-172.512zM779.188 481.398h-534.376c-18.444 0-33.398-14.954-33.398-33.398s14.954-33.398 33.398-33.398h534.378c18.444 0 33.398 14.954 33.398 33.398s-14.954 33.398-33.4 33.398z" />
<glyph unicode="&#xe93a;" glyph-name="plus-2" data-tags="plus-2" d="M983.682 647.146c-38.942 91.892-103.872 170.026-185.572 225.274-81.676 55.248-180.324 87.594-286.11 87.58-70.508 0.004-137.892-14.36-199.142-40.316-91.89-38.944-170.026-103.87-225.276-185.57-55.248-81.672-87.596-180.322-87.582-286.114-0.004-70.51 14.362-137.896 40.318-199.146 38.942-91.892 103.874-170.026 185.572-225.274 81.676-55.248 180.324-87.594 286.11-87.58 70.506-0.004 137.892 14.36 199.142 40.316 91.89 38.942 170.026 103.87 225.276 185.57 55.25 81.674 87.596 180.326 87.582 286.114 0.004 70.512-14.362 137.896-40.318 199.146zM920.826 275.486c-33.702-79.562-90.090-147.446-160.952-195.352-70.886-47.906-156.040-75.852-247.872-75.866-61.238 0.004-119.458 12.436-172.51 34.908-79.562 33.702-147.448 90.088-195.354 160.95-47.91 70.884-75.858 156.040-75.872 247.874 0.004 61.24 12.438 119.462 34.908 172.514 33.702 79.562 90.090 147.448 160.952 195.352 70.886 47.908 156.042 75.854 247.874 75.868 61.238-0.004 119.458-12.436 172.51-34.908 79.562-33.7 147.448-90.088 195.354-160.95 47.906-70.886 75.854-156.040 75.868-247.878-0.004-61.238-12.436-119.46-34.906-172.512zM779.188 481.398h-233.79v233.79c0 18.444-14.954 33.398-33.398 33.398s-33.398-14.954-33.398-33.398v-233.79h-233.79c-18.444 0-33.398-14.954-33.398-33.398s14.954-33.398 33.398-33.398h233.79v-233.79c0-18.444 14.954-33.398 33.398-33.398s33.398 14.954 33.398 33.398v233.79h233.79c18.444 0 33.398 14.954 33.398 33.398s-14.952 33.398-33.398 33.398z" />
<glyph unicode="&#xe93b;" glyph-name="more-2" data-tags="more" d="M121.905 569.905c-67.218 0-121.905-54.686-121.905-121.905s54.686-121.905 121.905-121.905c67.218 0 121.905 54.686 121.905 121.905s-54.686 121.905-121.905 121.905zM512 569.905c-67.218 0-121.905-54.686-121.905-121.905s54.686-121.905 121.905-121.905c67.218 0 121.905 54.686 121.905 121.905s-54.686 121.905-121.905 121.905zM902.095 569.905c-67.218 0-121.905-54.686-121.905-121.905s54.686-121.905 121.905-121.905c67.218 0 121.905 54.686 121.905 121.905s-54.686 121.905-121.905 121.905z" />
<glyph unicode="&#xe93c;" glyph-name="more-1" data-tags="interface" d="M874.040 810.040c-96.706 96.702-225.28 149.96-362.040 149.96s-265.334-53.258-362.040-149.96c-96.702-96.706-149.96-225.28-149.96-362.040s53.258-265.334 149.96-362.040c96.706-96.702 225.28-149.96 362.040-149.96s265.334 53.258 362.040 149.96c96.702 96.706 149.96 225.28 149.96 362.040s-53.258 265.334-149.96 362.040zM512-4c-249.234 0-452 202.766-452 452s202.766 452 452 452 452-202.766 452-452-202.766-452-452-452zM272 538c-49.626 0-90-40.374-90-90s40.374-90 90-90 90 40.374 90 90-40.374 90-90 90zM272 418c-16.542 0-30 13.458-30 30s13.458 30 30 30 30-13.458 30-30-13.458-30-30-30zM752 538c-49.626 0-90-40.374-90-90s40.374-90 90-90 90 40.374 90 90-40.374 90-90 90zM752 418c-16.542 0-30 13.458-30 30s13.458 30 30 30 30-13.458 30-30-13.458-30-30-30zM512 538c-49.626 0-90-40.374-90-90s40.374-90 90-90 90 40.374 90 90-40.374 90-90 90zM512 418c-16.542 0-30 13.458-30 30s13.458 30 30 30 30-13.458 30-30-13.458-30-30-30z" />
<glyph unicode="&#xe93d;" glyph-name="more" data-tags="more-1" d="M512 704c70.4 0 128 57.6 128 128s-57.6 128-128 128-128-57.6-128-128 57.6-128 128-128zM512 576c-70.4 0-128-57.6-128-128s57.6-128 128-128 128 57.6 128 128-57.6 128-128 128zM512 192c-70.4 0-128-57.6-128-128s57.6-128 128-128 128 57.6 128 128-57.6 128-128 128z" />
<glyph unicode="&#xe93f;" glyph-name="clapping" data-tags="clapping" d="M0.092 587.479c4.724-80.303 4.328-146.894 3.978-205.648-0.926-155.77-2.376-257.258 107.162-366.796 105.266-105.264 276.551-105.272 381.823 0 0.002 0.002 0.002 0.004 0.004 0.006l296.968 296.968c35.171 35.169 35.177 92.1 0 127.275-7.434 7.434-15.857 13.293-24.847 17.577l49.218 49.218c35.089 35.089 35.089 92.182 0 127.275-8.276 8.276-17.783 14.573-27.931 18.947 19.563 34.075 15.119 78.715-14.495 108.328-7.838 7.838-16.777 13.911-26.321 18.247 22.225 34.469 18.703 81.453-12.104 112.258-29.303 29.303-73.941 34.113-108.278 14.505-4.45 10.288-10.832 19.755-18.997 27.919-35.087 35.089-92.184 35.091-127.235 0.038-1.824-1.816-158.76-158.184-259.254-258.534l-15.429 109.092c-1.216 48.538-40.88 87.681-89.964 87.681-49.138 0-88.791-39.202-89.968-87.795-0.022-0.83-0.006-1.662 0.042-2.49 2.402-40.794 3.704-81.859 4.062-128.105-20.243-18.965-29.563-45.954-28.433-65.967zM747.603 354.432l-296.972-296.972c-81.873-81.875-215.098-81.877-296.974 0-90.974 90.974-90.51 168.855-89.589 324.015 0.352 59.31 0.752 126.481-3.996 208.064 1.502 25.673 32.909 37.693 51.16 19.441 10.178-10.178 6.28-14.557 9.086-25.435 0.006-0.054 0.014-0.108 0.024-0.16l24.079-170.277c3.46-24.439 33.443-34.493 50.918-17.009 51.778 51.786-5.428-5.388 298.578 298.51 11.75 10.878 30.141 10.64 41.562-0.78 11.726-11.726 11.726-30.699 0-42.424-0.004-0.004-0.006-0.008-0.010-0.012l-127.265-127.263c-11.716-11.716-11.716-30.709 0-42.424 11.712-11.716 30.707-11.716 42.424 0 9.96 9.96 159.782 159.78 169.701 169.699 11.7 11.696 30.729 11.696 42.422-0.002 11.726-11.726 11.726-30.699 0-42.424 0 0-159.76-159.76-169.699-169.699-11.716-11.716-11.716-30.709 0-42.424 11.714-11.716 30.709-11.716 42.424 0l127.275 127.275c11.7 11.698 30.733 11.696 42.424 0 11.698-11.698 11.7-30.729 0.002-42.424-21.179-21.179-118.035-118.035-127.275-127.275-11.716-11.716-11.716-30.709 0-42.424 11.714-11.716 30.709-11.716 42.424 0l85.001 85.001c11.712 11.546 30.627 11.494 42.274-0.15 11.726-11.724 11.726-30.699 0-42.424zM729.55 718.201c11.726-11.726 11.726-30.699 0-42.424l-6.77-6.77c-4.354 9.094-10.262 17.483-17.603 24.823s-15.727 13.247-24.823 17.601l6.786 6.784c11.698 11.682 30.721 11.678 42.41-0.014zM771.976 548.502l-6.81-6.81c-4.284 8.994-10.126 17.425-17.563 24.863-7.436 7.436-15.867 13.279-24.861 17.563l6.808 6.808c11.7 11.698 30.733 11.696 42.424 0.002 11.696-11.698 11.698-30.729 0.002-42.426zM691.125 848.706c11.69-11.69 11.736-30.609 0.074-42.35-3.824-3.794 22.103 21.927-95.694-94.926-4.354 9.094-10.262 17.483-17.603 24.825-7.372 7.372-15.723 13.173-24.629 17.449 5.346 5.322 92.092 91.684 95.424 95.004 11.706 11.698 30.733 11.694 42.428-0.002zM219.709 590.168c89.6 89.614 299.566 298.822 301.714 300.962 11.702 11.698 30.729 11.696 42.426 0 11.192-11.192 11.606-28.785 1.764-40.48-280.541-279.977 131.927 132.553-370.204-369.626l-15.059 106.482c12.016-9.134 28.803-7.898 39.358 2.662zM84.443 783.611c1.496 25.667 32.911 37.687 51.16 19.439 10.178-10.18 6.278-14.555 9.084-25.433 0.008-0.056 19.671-139.099 19.671-139.099-17.637 25.719-46.318 39.74-76.107 39.16-0.572 37.327-1.816 71.713-3.808 105.932zM994.001 775.923h-59.998c-16.567 0-29.999-13.431-29.999-29.999s13.431-29.999 29.999-29.999h59.998c16.567 0 29.999 13.431 29.999 29.999s-13.429 29.999-29.999 29.999zM893.219 848.708l59.998 59.998c11.716 11.716 11.716 30.709 0 42.424-11.714 11.716-30.709 11.716-42.424 0l-59.998-59.998c-11.716-11.716-11.716-30.709 0-42.424 11.714-11.716 30.709-11.718 42.424 0z" />
<glyph unicode="&#xe940;" glyph-name="target" data-tags="target-1" d="M887.874 729.4c-87.782 87.782-204.494 136.126-328.636 136.126-114.088 0-221.882-40.858-306.73-115.606l-56.306 56.304v123.776c0 16.568-13.432 30-30 30s-30-13.432-30-30v-63.776l-68.126 68.126c-11.714 11.716-30.71 11.716-42.426 0s-11.716-30.71 0-42.426l68.126-68.126h-63.776c-16.568 0-30-13.432-30-30s13.432-30 30-30h123.776l56.304-56.304c-74.748-84.848-115.606-192.642-115.606-306.73 0-124.142 48.344-240.856 136.126-328.638 87.78-87.782 204.494-136.126 328.636-136.126s240.856 48.344 328.636 136.126c87.784 87.782 136.128 204.496 136.128 328.638s-48.344 240.856-136.126 328.636zM559.236-4c-223.188 0-404.764 181.576-404.764 404.764 0 100.82 37.058 193.142 98.26 264.078l60.228-60.226c-45.924-55.386-73.566-126.448-73.566-203.85 0-176.362 143.48-319.842 319.842-319.842s319.842 143.48 319.842 319.842-143.48 319.842-319.842 319.842c-77.402 0-148.464-27.642-203.85-73.566l-60.226 60.226c70.936 61.202 163.258 98.26 264.076 98.26 223.188-0.002 404.764-181.578 404.764-404.764 0-223.188-181.576-404.764-404.764-404.764zM414.128 503.446c-20.598-29.024-32.72-64.464-32.72-102.682 0-98.054 79.774-177.828 177.828-177.828s177.828 79.774 177.828 177.828-79.774 177.828-177.828 177.828c-38.22 0-73.66-12.122-102.682-32.718l-58.528 58.526c44.332 35.17 100.358 56.204 161.212 56.204 143.278 0 259.842-116.564 259.842-259.842s-116.564-259.842-259.842-259.842-259.842 116.564-259.842 259.842c0 60.852 21.036 116.88 56.204 161.212zM529.236 388.338v-25.812c0-16.568 13.432-30 30-30s30 13.432 30 30v38.228c0 0.006 0 0.014 0 0.020v38.226c0 16.568-13.432 30-30 30-7.218 0-13.836-2.552-19.012-6.798l-40.304 40.304c17.436 10.204 37.698 16.084 59.318 16.084 64.97 0 117.828-52.858 117.828-117.828s-52.858-117.828-117.828-117.828-117.828 52.858-117.828 117.828c0 21.62 5.88 41.882 16.084 59.318z" />
<glyph unicode="&#xe941;" glyph-name="check-2" data-tags="verified-1" d="M874.038 810.040c-96.704 96.702-225.278 149.96-362.038 149.96-136.762 0-265.338-53.258-362.040-149.96-96.704-96.704-149.96-225.28-149.96-362.040s53.256-265.334 149.96-362.038c96.704-96.704 225.278-149.962 362.040-149.962 136.76 0 265.334 53.258 362.038 149.962s149.962 225.278 149.962 362.038-53.258 265.334-149.962 362.040zM512-4c-249.234 0-452 202.766-452 452s202.766 452 452 452 452-202.766 452-452-202.766-452-452-452zM756.61 612.282c-11.714 11.712-30.71 11.712-42.424-0.002l-264.918-264.918-139.454 139.454c-11.714 11.714-30.71 11.714-42.426 0s-11.716-30.71 0-42.426l160.666-160.666c5.858-5.858 13.536-8.786 21.212-8.786s15.356 2.93 21.212 8.786l286.132 286.132c11.716 11.714 11.716 30.71 0 42.426z" />
<glyph unicode="&#xe942;" glyph-name="select" data-tags="select" d="M811.976 598c-11.714 0-22.898-2.274-33.172-6.362-10.41 38.192-45.382 66.362-86.828 66.362-11.714 0-22.898-2.274-33.172-6.362-10.41 38.192-45.382 66.362-86.828 66.362-10.516 0-20.61-1.83-30-5.16v157.16c0 49.626-40.374 90-90 90s-90-40.374-90-90v-504.73l-86.366 86.366c-35.178 35.18-92.088 35.184-127.27 0-34.804-34.804-35.086-91.256-0.848-126.412 133.172-154.282 206.99-258.236 285.964-320.896 59.082-46.876 119.078-67.95 194.528-68.326 0.252 0 0.502 0 0.756 0 12.37 0 25.076 1.516 36.314 2.856 136.392 16.272 236.92 139.502 236.92 278.514v290.628c0.002 49.626-40.372 90-89.998 90zM841.976 217.37c0-110.458-80.834-206.626-184.028-218.936-10.21-1.218-20.732-2.47-29.662-2.432-129.268 0.644-186.936 70.322-326.264 238.658-8.816 10.652-101.482 122.376-111.256 132.13-11.73 11.73-11.732 30.684 0 42.418 11.696 11.694 30.722 11.694 42.418 0l137.58-137.58c8.578-8.582 21.484-11.15 32.694-6.502 11.21 4.644 18.52 15.582 18.52 27.716l-0.002 577.158c0 16.542 13.458 30 30 30s30-13.458 30-30c0-19.936 0-408.212 0-422 0-16.568 13.432-30 30-30s30 13.432 30 30c0 22.62 0 161.512 0 180 0 16.542 13.458 30 30 30s30-13.458 30-30c0-22.62 0-161.512 0-180 0-16.568 13.432-30 30-30s30 13.432 30 30v120c0 16.542 13.458 30 30 30s30-13.458 30-30v-120c0-16.568 13.432-30 30-30s30 13.432 30 30v60c0 16.542 13.458 30 30 30s30-13.458 30-30v-290.63z" />
<glyph unicode="&#xe943;" glyph-name="warning" data-tags="warning" d="M1005.048 194.725l-361.829 651.705c-26.796 48.456-75.848 77.386-131.218 77.386s-104.422-28.928-131.192-77.34l-361.853-651.751c-0.008-0.016-0.018-0.030-0.026-0.046-25.952-46.934-25.178-102.532 2.066-148.724s75.524-73.77 129.152-73.77h723.711c53.628 0 101.91 27.578 129.15 73.77 27.242 46.194 28.016 101.792 2.040 148.77zM951.348 76.424c-16.346-27.714-45.314-44.262-77.492-44.262h-723.709c-32.178 0-61.146 16.548-77.492 44.262-16.346 27.71-16.81 61.068-1.246 89.224l361.861 651.761c16.076 29.074 45.506 46.432 78.73 46.432s62.656-17.36 78.756-46.478l361.829-651.705c15.572-28.158 15.11-61.518-1.238-89.234zM512.003 272.065c-49.606 0-89.964-40.358-89.964-89.964s40.358-89.964 89.964-89.964c49.608 0 89.964 40.358 89.964 89.964s-40.358 89.964-89.964 89.964zM512.003 152.114c-16.536 0-29.988 13.452-29.988 29.988s13.452 29.988 29.988 29.988c16.538 0 29.988-13.452 29.988-29.988s-13.454-29.988-29.988-29.988zM511.907 751.872c-49.554 0-89.868-40.314-89.868-89.868v-240.096c0-49.554 40.314-89.868 90.062-89.868 49.552 0 89.866 40.314 89.866 89.866v240.098c0 49.554-40.314 89.868-90.060 89.868zM541.991 421.907c0-16.482-13.408-29.892-30.084-29.892-16.482 0-29.892 13.41-29.892 29.892v240.098c0 16.482 13.41 29.892 30.086 29.892 16.482 0 29.89-13.41 29.89-29.892v-240.098z" />
<glyph unicode="&#xe944;" glyph-name="cook" data-tags="pan" d="M929.732 638.666h-34.266v34.268c0 52.098-42.112 94.266-94.268 94.266h-201.406c4.164 10.63 6.476 22.18 6.476 34.268 0 51.978-42.29 94.266-94.268 94.266s-94.266-42.288-94.266-94.266c0-12.088 2.312-23.638 6.476-34.268h-201.41c-52.186 0-94.266-42.502-94.266-94.266v-34.268h-34.268c-51.978 0-94.266-42.288-94.266-94.266s42.288-94.268 94.266-94.268h34.266v-355.6c0-7.958 3.162-15.588 8.788-21.212l64.266-64.266c5.626-5.626 13.256-8.788 21.212-8.788h578.4c7.958 0 15.586 3.16 21.212 8.788l64.268 64.266c5.626 5.626 8.788 13.256 8.788 21.212v355.6h34.266c51.978 0 94.268 42.29 94.268 94.268s-42.29 94.266-94.268 94.266zM128.534 510.132h-34.268c-18.894 0-34.266 15.374-34.266 34.268s15.372 34.266 34.266 34.266h34.266v-68.534zM512 835.732c18.894 0 34.268-15.372 34.268-34.266s-15.374-34.266-34.268-34.266-34.266 15.374-34.266 34.268 15.372 34.264 34.266 34.264zM835.466 106.96l-46.694-46.694h-553.546l-46.692 46.692v471.708h646.934v-471.706zM835.466 638.666h-646.932v34.268c0 18.784 15.26 34.266 34.266 34.266h578.4c18.938 0 34.268-15.364 34.268-34.266v-34.268zM929.732 510.132h-34.266v68.534h34.266c18.894 0 34.268-15.372 34.268-34.266s-15.374-34.268-34.268-34.268z" />
</font>
</defs>
</svg>
