<?xml version="1.0" standalone="no"?>
<!DOCTYPE svg PUBLIC "-//W3C//DTD SVG 1.1//EN" "http://www.w3.org/Graphics/SVG/1.1/DTD/svg11.dtd" >
<svg xmlns="http://www.w3.org/2000/svg">
<metadata>
<json>
<![CDATA[
{
	"fontFamily": "icomoon",
	"majorVersion": 1,
	"minorVersion": 0,
	"version": "Version 1.0",
	"fontId": "icomoon",
	"psName": "icomoon",
	"subFamily": "Regular",
	"fullName": "icomoon",
	"description": "Font generated by IcoMoon."
}
]]>
</json>
</metadata>
<defs>
<font id="icomoon" horiz-adv-x="1024">
<font-face units-per-em="1024" ascent="960" descent="-64" />
<missing-glyph horiz-adv-x="1024" />
<glyph unicode="&#x20;" horiz-adv-x="512" d="" />
<glyph unicode="&#xe900;" glyph-name="achievement" data-tags="achievement" d="M511.984 960c-194.112 0-352-157.888-352-352s157.888-352 352-352c194.048 0 352 157.888 352 352s-157.952 352-352 352zM697.008 657.792l-60.8-76.16 6.656-99.52c0.768-11.072-4.288-21.76-13.44-28.224-5.568-3.904-12.032-5.888-18.56-5.888-4.224 0-8.512 0.832-12.48 2.56l-86.4 36.672-86.336-36.672c-10.24-4.352-22.016-3.136-31.040 3.328-9.088 6.464-14.144 17.152-13.44 28.224l6.656 99.52-60.8 76.16c-6.784 8.448-8.768 19.776-5.376 30.080s11.776 18.112 22.272 20.864l90.752 23.744 49.792 83.84c11.52 19.456 43.52 19.456 54.976 0l49.792-83.84 90.816-23.744c10.432-2.752 18.816-10.624 22.272-20.864s1.408-21.568-5.312-30.080zM151.984 400.448l-147.712-256.448c-6.464-11.264-5.504-25.28 2.368-35.52s21.12-14.848 33.664-11.392l187.904 50.496 49.984-187.904c3.328-12.48 13.888-21.76 26.688-23.488 1.408-0.128 2.88-0.192 4.224-0.192 11.328 0 21.952 6.016 27.712 16l139.712 241.792c-138.816 11.776-258.112 91.968-324.544 206.656zM1019.76 144l-147.776 256.448c-66.368-114.688-185.728-194.88-324.544-206.656l139.712-241.792c5.76-9.984 16.384-16 27.712-16 1.344 0 2.816 0.064 4.16 0.256 12.864 1.728 23.36 11.008 26.752 23.488l49.984 187.904 187.904-50.496c12.544-3.456 25.728 1.152 33.664 11.392 7.936 10.176 8.832 24.192 2.432 35.456z" />
<glyph unicode="&#xe901;" glyph-name="achievement-confirm" data-tags="achievement-confirm" d="M749.412 410.238l-117.38-117.38c-11.326-11.326-29.688-11.326-41.012 0l-1.414 1.414c-11.326 11.326-11.326 29.688 0 41.012l159.806 159.806c17.574 17.574 17.574 46.066 0 63.64s-46.066 17.574-63.64 0l-159.806-159.806c-11.326-11.326-29.688-11.326-41.012 0l-1.414 1.414c-11.326 11.326-11.326 29.686 0 41.012l202.232 202.232c17.574 17.574 17.574 46.066 0 63.64s-46.066 17.574-63.64 0l-202.232-202.232c-11.326-11.326-29.688-11.326-41.012 0s-11.326 29.688 0 41.012l159.806 159.806c17.574 17.574 17.574 46.066 0 63.64s-46.066 17.574-63.64 0c-35.462-35.464-323.538-323.538-335.52-335.52-8.656 70.712-19.546 177.764-19.552 177.834v-0.002c0 16.864-7.064 33.73-21.196 45.774-37.618 32.060-97.542 6.712-98.786-44.298 17.556-298.456-34.792-458.24 102.408-595.442 93.726-93.726 266.898-114.94 360.624-21.214l350.018 350.018c17.574 17.574 17.574 46.066 0 63.64s-46.066 17.574-63.638 0zM59.96 731.72c25 0 49.28-7.78 69.42-22.040-4.74 43.78-8.38 79.46-8.38 79.46 0 0.020 0 0.020 0 0.040-0.020 16.84-7.080 33.68-21.2 45.72-37.626 32.084-97.548 6.704-98.78-44.3 1.48-25.18 2.46-49.36 3.1-72.62 17.080 8.96 36.26 13.74 55.84 13.74zM185.24 564.48l247.38 247.4c17.94 17.92 41.2 28.56 66.24 30.44l40.86 40.86c17.56 17.58 17.56 46.060 0 63.64-17.64 17.6-46.096 17.544-63.64 0-28.58-28.56-220.94-220.94-301.020-301.020 2.9-9.82 4.56-20.040 4.86-30.48 0.7-6.68 2.68-26 5.32-50.84zM607 769.38c12.060 6.040 25.22 9.7 38.92 10.7l40.88 40.88c17.56 17.56 17.56 46.060 0 63.64-17.56 17.52-46.068 17.572-63.64 0l-58.96-58.96c19.508-12.724 35.28-32.406 42.8-56.26zM994 776h-60c-16.568 0-30-13.432-30-30s13.432-30 30-30h60c16.568 0 30 13.432 30 30s-13.432 30-30 30zM953.212 951.214c-11.714 11.716-30.71 11.716-42.426 0l-60-60c-11.716-11.716-11.716-30.71 0-42.426s30.712-11.716 42.426 0l60 60c11.718 11.714 11.718 30.71 0 42.426z" />
<glyph unicode="&#xe902;" glyph-name="achievent-create" data-tags="achievent-create" d="M512 960c-222.596 0-403.692-181.094-403.692-403.692 0-138.726 70.344-261.324 177.23-334.022v-256.746c0-10.024 5.082-19.364 13.5-24.804 8.414-5.442 19.018-6.242 28.16-2.132l184.802 83.158 184.802-83.16c3.87-1.74 8-2.602 12.118-2.602 5.608 0 11.188 1.596 16.042 4.734 8.416 5.442 13.5 14.782 13.5 24.804v256.746c106.886 72.698 177.23 195.296 177.23 334.022 0 222.6-181.096 403.694-403.692 403.694zM679.384 11.22l-155.264 69.868c-3.854 1.736-7.988 2.604-12.12 2.604s-8.266-0.866-12.12-2.602l-155.264-69.868v177.67c14.846-6.768 30.084-12.584 45.61-17.49 0.88-0.28 1.758-0.566 2.642-0.838 1.982-0.61 3.97-1.198 5.96-1.776 1.474-0.432 2.948-0.86 4.426-1.276 1.606-0.448 3.218-0.882 4.83-1.31 1.88-0.502 3.764-0.992 5.654-1.468 1.336-0.334 2.674-0.662 4.014-0.98 2.174-0.522 4.354-1.026 6.542-1.512 1.134-0.252 2.27-0.502 3.406-0.744 2.396-0.512 4.8-0.996 7.214-1.466 0.982-0.19 1.964-0.384 2.948-0.568 2.556-0.476 5.122-0.922 7.694-1.35 0.882-0.148 1.764-0.3 2.648-0.44 2.654-0.424 5.32-0.814 7.994-1.184 0.828-0.114 1.654-0.238 2.482-0.348 2.706-0.358 5.424-0.68 8.144-0.984 0.812-0.090 1.62-0.192 2.432-0.28 2.714-0.288 5.438-0.534 8.168-0.766 0.828-0.070 1.652-0.156 2.482-0.22 2.69-0.212 5.392-0.382 8.098-0.542 0.868-0.052 1.732-0.12 2.604-0.166 2.734-0.144 5.478-0.242 8.226-0.33 0.828-0.028 1.65-0.072 2.478-0.094 3.552-0.092 7.116-0.144 10.692-0.144 3.574 0 7.138 0.052 10.69 0.144 0.828 0.022 1.65 0.066 2.478 0.094 2.748 0.088 5.492 0.188 8.226 0.33 0.868 0.046 1.734 0.114 2.604 0.166 2.706 0.16 5.408 0.328 8.098 0.542 0.83 0.064 1.654 0.15 2.482 0.22 2.73 0.232 5.454 0.48 8.168 0.766 0.812 0.086 1.62 0.188 2.432 0.28 2.722 0.306 5.438 0.626 8.144 0.984 0.83 0.11 1.654 0.232 2.482 0.348 2.672 0.37 5.338 0.76 7.994 1.184 0.884 0.142 1.764 0.294 2.648 0.44 2.572 0.428 5.138 0.874 7.694 1.35 0.984 0.184 1.966 0.376 2.948 0.568 2.412 0.468 4.816 0.956 7.214 1.466 1.138 0.242 2.272 0.492 3.406 0.744 2.188 0.486 4.368 0.99 6.542 1.512 1.338 0.32 2.676 0.648 4.014 0.98 1.89 0.474 3.772 0.964 5.654 1.468 1.612 0.43 3.224 0.86 4.83 1.31 1.478 0.416 2.954 0.844 4.426 1.276 1.99 0.58 3.98 1.166 5.96 1.776 0.884 0.274 1.762 0.56 2.642 0.838 15.526 4.906 30.764 10.72 45.61 17.488v-177.67zM624.458 230.552c-1.178-0.406-2.356-0.814-3.538-1.208-1.796-0.6-3.6-1.19-5.41-1.76-2.106-0.662-4.218-1.3-6.336-1.92-1.494-0.44-2.99-0.878-4.492-1.298-2.802-0.782-5.614-1.53-8.436-2.24-1.052-0.266-2.108-0.518-3.162-0.774-2.762-0.668-5.536-1.304-8.316-1.904-0.7-0.152-1.394-0.312-2.094-0.456-3.588-0.75-7.188-1.448-10.802-2.082-0.368-0.064-0.738-0.12-1.108-0.186-3.256-0.562-6.522-1.072-9.794-1.538-0.738-0.106-1.476-0.21-2.218-0.312-3.49-0.474-6.986-0.91-10.494-1.278-0.132-0.014-0.264-0.032-0.396-0.046-3.672-0.382-7.358-0.696-11.048-0.958-0.8-0.058-1.604-0.1-2.406-0.154-2.87-0.186-5.74-0.332-8.618-0.448-0.978-0.040-1.956-0.080-2.934-0.112-3.614-0.11-7.232-0.186-10.856-0.186s-7.242 0.074-10.856 0.19c-0.98 0.030-1.958 0.072-2.934 0.112-2.878 0.114-5.748 0.262-8.618 0.448-0.802 0.052-1.604 0.096-2.406 0.154-3.69 0.264-7.374 0.578-11.048 0.958-0.132 0.014-0.264 0.032-0.396 0.046-3.508 0.368-7.004 0.804-10.494 1.278-0.738 0.1-1.476 0.204-2.216 0.312-3.274 0.468-6.54 0.976-9.796 1.538-0.368 0.062-0.738 0.12-1.108 0.186-3.614 0.634-7.216 1.334-10.802 2.082-0.698 0.146-1.394 0.308-2.094 0.456-2.78 0.598-5.554 1.236-8.316 1.904-1.056 0.256-2.112 0.508-3.162 0.774-2.822 0.708-5.634 1.46-8.436 2.24-1.502 0.42-2.998 0.858-4.492 1.298-2.116 0.622-4.23 1.258-6.338 1.92-1.81 0.572-3.612 1.16-5.41 1.76-1.184 0.394-2.362 0.802-3.538 1.208-134.968 46.722-232.156 175.094-232.156 325.752 0 190.020 154.594 344.616 344.616 344.616s344.616-154.594 344.616-344.616c0-150.658-97.19-279.030-232.158-325.756zM687.244 556.308l55.482 104.28c4.788 8.994 4.598 19.82-0.496 28.642s-14.376 14.4-24.558 14.752l-118.050 4.090-62.568 100.188c-5.398 8.64-14.866 13.892-25.054 13.892s-19.656-5.252-25.054-13.892l-62.566-100.188-118.050-4.090c-10.182-0.352-19.464-5.93-24.558-14.752s-5.284-19.648-0.496-28.642l55.482-104.28-55.482-104.28c-4.788-8.994-4.598-19.82 0.496-28.642s14.376-14.4 24.558-14.752l118.050-4.090 62.566-100.188c5.396-8.64 14.866-13.892 25.054-13.892s19.656 5.252 25.054 13.892l62.566 100.188 118.050 4.090c10.182 0.352 19.464 5.93 24.558 14.752s5.284 19.648 0.496 28.642l-55.48 104.28zM581.87 463.042c-9.818-0.34-18.828-5.542-24.030-13.876l-45.84-73.402-45.838 73.4c-5.204 8.334-14.212 13.534-24.030 13.876l-86.484 2.998 40.646 76.396c4.616 8.674 4.616 19.074 0 27.748l-40.646 76.396 86.484 2.998c9.818 0.34 18.828 5.542 24.030 13.876l45.838 73.398 45.838-73.4c5.204-8.334 14.212-13.534 24.030-13.876l86.484-2.998-40.646-76.396c-4.614-8.674-4.614-19.076 0.002-27.748l40.646-76.396-86.484-2.994z" />
<glyph unicode="&#xe903;" glyph-name="daily" data-tags="daily" d="M288 462h-64c-16.568 0-30-13.432-30-30s13.432-30 30-30h64c16.568 0 30 13.432 30 30s-13.432 30-30 30zM288 334h-64c-16.568 0-30-13.432-30-30s13.432-30 30-30h64c16.568 0 30 13.432 30 30s-13.432 30-30 30zM288 206h-64c-16.568 0-30-13.432-30-30s13.432-30 30-30h64c16.568 0 30 13.432 30 30s-13.432 30-30 30zM544 462h-64c-16.568 0-30-13.432-30-30s13.432-30 30-30h64c16.568 0 30 13.432 30 30s-13.432 30-30 30zM544 334h-64c-16.568 0-30-13.432-30-30s13.432-30 30-30h64c16.568 0 30 13.432 30 30s-13.432 30-30 30zM544 206h-64c-16.568 0-30-13.432-30-30s13.432-30 30-30h64c16.568 0 30 13.432 30 30s-13.432 30-30 30zM800 462h-64c-16.568 0-30-13.432-30-30s13.432-30 30-30h64c16.568 0 30 13.432 30 30s-13.432 30-30 30zM800 334h-64c-16.568 0-30-13.432-30-30s13.432-30 30-30h64c16.568 0 30 13.432 30 30s-13.432 30-30 30zM800 206h-64c-16.568 0-30-13.432-30-30s13.432-30 30-30h64c16.568 0 30 13.432 30 30s-13.432 30-30 30zM934 830h-72v50c0 16.568-13.432 30-30 30s-30-13.432-30-30v-50h-260v50c0 16.568-13.432 30-30 30s-30-13.432-30-30v-50h-260v50c0 16.568-13.432 30-30 30s-30-13.432-30-30v-50h-72c-49.626 0-90-40.374-90-90v-664c0-49.626 40.374-90 90-90h844c49.626 0 90 40.374 90 90 0 19.364 0 647.15 0 664 0 49.626-40.374 90-90 90zM60 740c0 16.542 13.458 30 30 30h72v-50c0-16.568 13.432-30 30-30s30 13.432 30 30v50h260v-50c0-16.568 13.432-30 30-30s30 13.432 30 30v50h260v-50c0-16.568 13.432-30 30-30s30 13.432 30 30v50h72c16.542 0 30-13.458 30-30v-118h-904zM934 46h-844c-16.542 0-30 13.458-30 30v486h904v-486c0-16.542-13.458-30-30-30z" />
<glyph unicode="&#xe904;" glyph-name="arrow" data-tags="arrow" d="M1007.633 699.864l-33.543 33.776c-10.556 10.548-24.601 16.359-39.612 16.359-15.002 0-29.064-5.811-39.62-16.359l-382.629-382.646-383.071 383.071c-10.54 10.548-24.601 16.351-39.603 16.351s-29.072-5.803-39.62-16.351l-33.551-33.567c-21.846-21.829-21.846-57.386 0-79.215l456.092-457.732c10.54-10.54 24.585-17.966 39.72-17.966h0.175c15.010 0 29.055 7.434 39.595 17.966l455.667 456.491c10.556 10.54 16.351 25.009 16.367 40.011 0 15.010-5.811 29.28-16.367 39.811z" />
<glyph unicode="&#xe905;" glyph-name="close" data-tags="cross" d="M568.571 447.997l443.713 443.715c15.622 15.622 15.622 40.95 0 56.57s-40.95 15.622-56.57 0l-443.715-443.715-443.713 443.715c-15.622 15.622-40.95 15.622-56.57 0s-15.622-40.95 0-56.57l443.713-443.713-443.713-443.715c-15.622-15.622-15.622-40.95 0-56.57 7.81-7.81 18.048-11.714 28.286-11.714s20.474 3.904 28.286 11.714l443.711 443.713 443.713-443.713c7.81-7.81 18.048-11.714 28.286-11.714s20.474 3.904 28.286 11.714c15.622 15.622 15.622 40.95 0 56.57l-443.713 443.713z" />
<glyph unicode="&#xe906;" glyph-name="attention" data-tags="attention" d="M1010.365 142.105l-411.278 712.351c-18.176 31.482-50.732 50.283-87.089 50.283s-68.913-18.796-87.089-50.283l-411.274-712.351c-18.18-31.482-18.18-69.075 0-100.562s50.732-50.283 87.089-50.283h822.561c36.352 0 68.908 18.796 87.085 50.279 18.176 31.487 18.172 69.079-0.004 100.566zM512.002 107.152c-36.094 0-65.458 29.364-65.458 65.458 0 36.090 29.364 65.454 65.458 65.454s65.458-29.364 65.458-65.454c-0.004-36.098-29.368-65.458-65.458-65.458zM577.901 386.956c0-36.336-29.564-65.899-65.899-65.899s-65.899 29.564-65.899 65.899v302.451c0 17.24 13.976 31.216 31.216 31.216h69.37c17.244 0 31.216-13.976 31.216-31.216v-302.451z" />
<glyph unicode="&#xe907;" glyph-name="bag" data-tags="bag" d="M655.898 820.016c-2.14 77.548-65.842 139.984-143.898 139.984s-141.758-62.436-143.898-139.984c-137.834-54.658-240.102-193.412-240.102-356.016v-432c0-52.94 43.060-96 96-96h576c52.94 0 96 43.060 96 96v432c0 162.232-101.922 301.222-240.102 356.016zM512 896c35.602 0 65.836-23.384 76.18-55.596-49.736 10.050-101.826 10.21-152.36 0 10.344 32.212 40.576 55.596 76.18 55.596zM768 144c0-52.94-43.060-96-96-96h-320c-52.94 0-96 43.060-96 96v112c0 52.94 43.060 96 96 96h320c52.94 0 96-43.060 96-96zM752 432c-17.68 0-32 14.32-32 32 0 114.7-93.3 208-208 208s-208-93.3-208-208c0-17.68-14.32-32-32-32s-32 14.32-32 32c0 149.98 122.020 272 272 272s272-122.020 272-272c0-17.68-14.32-32-32-32zM672 288h-320c-17.64 0-32-14.36-32-32v-112c0-17.64 14.36-32 32-32h320c17.64 0 32 14.36 32 32v112c0 17.64-14.36 32-32 32zM992 416h-22c-5.522 0-10-4.478-10-10v-336.030c0-8.846 10.72-13.416 16.98-7.166 29.034 28.99 47.020 69.026 47.020 113.196v208c0 17.674-14.326 32-32 32zM0 384v-208c0-44.17 17.986-84.206 47.020-113.198 6.26-6.25 16.98-1.678 16.98 7.166v336.032c0 5.522-4.478 10-10 10h-22c-17.674 0-32-14.326-32-32z" />
<glyph unicode="&#xe908;" glyph-name="category-art" data-tags="category-art" d="M301.996 118.004c0 66.181-53.817 119.998-119.998 119.998s-119.998-53.817-119.998-119.998v-59.999c0-33.076-28.924-61.999-61.999-61.999v-59.999h121.998c99.257 0 179.998 82.741 179.998 181.998zM502.119 708.797c-16.010-4.306-25.524-20.702-21.21-36.737 4.134-15.428 19.966-25.576 36.737-21.21 16.12 4.336 25.478 20.812 21.21 36.737-4.332 16.094-20.902 25.48-36.737 21.21zM332.405 481.135c15.92-4.222 32.392 5.042 36.737 21.21 4.332 16.164-5.31 32.472-21.182 36.737h-0.030c-8.51 2.296-10.81 0.568-16.828-1.396 0.34-18.080 0.578-36.837 0.704-56.257 0.22-0.064 0.374-0.236 0.598-0.294zM663.075 223.97c-4.34 16.132-20.896 25.456-36.737 21.182-16.286-4.38-25.444-20.998-21.21-36.737 4.278-15.966 20.566-25.4 36.737-21.21 16.010 4.306 25.524 20.702 21.21 36.737zM762.918 596.475c11.69 11.718 11.69 30.762 0 42.451-11.696 11.696-30.706 11.744-42.451 0-11.69-11.69-11.69-30.762 0.030-42.451 11.66-11.66 30.702-11.66 42.421 0zM573.75 899.575c-98.551-3.552-189.013-42.509-261.12-91.969 8.082-55.015 13.792-123.492 16.832-208.181 11.232 1.34 22.72 0.63 33.97-2.396 48.075-12.854 76.573-62.137 63.661-110.212-10.884-40.663-47.617-66.737-86.777-66.737-2.882 0-5.754 0.864-8.636 1.142-0.362-47.983-1.45-95.459-3.52-140.796 30.728-12.766 54.743-29.772 70.425-51.799 31.758-44.619 23.292-96.943 19.952-111.942-11.126-49.825 18.252-100.549 68.583-110.242 28.448-5.45 57.041-8.144 85.429-8.144 246.735 0 453.448 200.417 451.438 453.304-2.102 256.482-224.053 456.496-450.236 447.974zM678.017 681.346c35.156 35.098 92.225 35.098 127.322 0s35.098-92.197 0-127.292v-0.030c-35.094-35.036-92.197-35.040-127.292 0-35.070 35.128-35.070 92.225-0.030 127.322zM422.96 656.562c-12.77 47.427 15.080 97.207 63.631 110.184 47.723 12.802 97.323-15.674 110.212-63.631 12.886-47.977-15.546-97.341-63.631-110.212-47.961-12.854-97.325 15.458-110.212 63.659zM657.391 129.253c-47.951-12.846-97.353 15.714-110.212 63.631-12.886 47.977 15.546 97.341 63.631 110.212 48.287 12.846 97.385-15.682 110.212-63.661 12.924-48.051-15.65-97.353-63.631-110.182zM890.736 362.6c-12.852-48.075-62.251-76.529-110.212-63.631-47.947 12.836-76.571 62.047-63.631 110.212 12.986 48.515 62.679 76.369 110.212 63.631 47.959-12.86 76.495-62.313 63.631-110.212zM811.579 414.865c-15.714 4.238-32.354-4.918-36.737-21.21-4.332-16.164 5.31-32.472 21.182-36.737 16.428-4.244 32.512 5.384 36.767 21.21 4.276 15.966-5.246 32.46-21.212 36.737zM271.634 417.999c0.084 10.038 0.362 19.918 0.362 30 0 232.643-15.616 511.993-89.999 511.993s-89.999-279.35-89.999-511.993c0-10.082 0.278-19.962 0.362-30zM181.998 298.001c31.26 0 60.241-8.724 85.883-22.796 1.296 26.924 2.286 54.655 2.978 82.795h-177.722c0.692-28.14 1.68-55.871 2.978-82.795 25.642 14.074 54.623 22.796 85.883 22.796z" />
<glyph unicode="&#xe909;" glyph-name="category-career" data-tags="category-career" d="M422 418h180v-60h-180zM830.758 358h-168.758v-30c0-16.578-13.422-30-30-30h-240c-16.578 0-30 13.422-30 30v30h-168.758c-38.789 0-73.094 24.727-85.375 61.523l-107.867 323.656v-655.18c0-49.625 40.375-90 90-90h844c49.625 0 90 40.375 90 90v655.156l-107.875-323.633c-12.273-36.797-46.578-61.523-85.367-61.523zM632 898h-240c-49.625 0-90-40.375-90-90v-30h-250.383l113.148-339.492c4.102-12.273 15.555-20.508 28.477-20.508h168.758v30c0 16.578 13.422 30 30 30h240c16.578 0 30-13.422 30-30v-30h168.758c12.922 0 24.375 8.234 28.477 20.508l113.156 339.492h-250.391v30c0 49.625-40.375 90-90 90zM362 778v30c0 16.555 13.445 30 30 30h240c16.555 0 30-13.445 30-30v-30z" />
<glyph unicode="&#xe90a;" glyph-name="category-cook" data-tags="category-cook" d="M554.632 635.276c11.208 11.036 18.174 26.368 18.174 43.304 0 33.528-27.276 60.806-60.806 60.806s-60.806-27.276-60.806-60.806c0-16.808 6.856-32.042 17.916-43.058l-261.758-137.378h608.572zM914.562 327.884h-21.128v50.87h54.164v59.694h-871.92v-59.694h54.166v-50.87h-20.406c-60.344 0-109.438-49.094-109.438-109.44s49.094-109.438 109.438-109.438h20.406v-73.516c0-54.86 44.63-99.49 99.49-99.49h564.61c54.86 0 99.49 44.63 99.49 99.49v73.516h21.128c60.344 0 109.438 49.094 109.438 109.438 0 60.346-49.094 109.44-109.438 109.44zM109.438 168.7c-27.43 0-49.746 22.316-49.746 49.746s22.316 49.744 49.746 49.744h20.406v-99.49zM914.562 168.7h-21.128v99.49h21.128c27.43 0 49.746-22.316 49.746-49.744s-22.318-49.746-49.746-49.746zM330.326 806.702h59.694v65.592l-47.316 47.318v40.388h-59.694v-65.114l47.316-47.316zM505.812 806.702h59.692v65.592l-47.316 47.318v40.388h-59.692v-65.114l47.316-47.316zM681.296 806.702h59.694v65.592l-47.316 47.318v40.388h-59.694v-65.114l47.316-47.316z" />
<glyph unicode="&#xe90b;" glyph-name="category-fun" data-tags="category-fun" d="M998.877 414.263c-37.847 138.528-105.525 268.459-112.944 282.496-0.819 1.893-2.627 8.971-3.94 14.139-6.874 26.999-11.41 42.503-24.595 47.313l-130.546 47.603c-16.357 6.021-35.237 3.616-49.291-5.782-15.009-9.62-31.912-19.051-37.318-20.91h-66.62c0.068-12.11 0.136-20.348 0.205-23.179 0.648-3.786 0.972-7.607 0.972-11.444 0-18.216-7.078-35.34-19.921-48.234-12.843-12.877-29.916-19.972-48.098-19.972-3.872 0-7.846 0.324-11.837 1.023-26.999 4.605-48.984 25.788-54.664 52.737-1.927 9.142-2.047 18.301-0.307 27.255 0.051 2.899 0.119 10.626 0.188 21.832h-51.884c-6.191 1.808-26.556 12.263-41.497 20.723-14.48 9.688-33.208 11.922-49.564 5.97l-130.563-47.603c-13.184-4.81-17.721-20.314-24.612-47.313-1.313-5.185-3.121-12.246-3.769-13.798-7.59-14.378-75.268-144.344-113.114-282.837-44.959-164.538-29.541-272.229 45.812-320.053 17.295-10.984 41.548-8.988 57.325 4.605l155.242 133.496c18.864 16.22 42.947 25.157 67.814 25.157h321.332c24.85 0 48.95-8.92 67.814-25.157l155.242-133.496c8.92-7.675 20.279-11.905 32.014-11.905 9.023 0 17.789 2.524 25.311 7.317 75.353 47.791 90.754 155.464 45.812 320.019zM166.568 598.569c0 47.023 38.154 85.279 85.041 85.279s85.041-38.256 85.041-85.279-38.154-85.279-85.041-85.279-85.041 38.256-85.041 85.279zM510.397 412.012c0-16.118-13.082-29.251-29.166-29.251h-38.87v-38.973c0-16.118-13.082-29.251-29.166-29.251h-43.731c-16.084 0-29.166 13.133-29.166 29.251v38.973h-38.87c-16.084 0-29.166 13.133-29.166 29.251v43.834c0 16.118 13.082 29.251 29.166 29.251h38.87v38.973c0 16.118 13.082 29.251 29.166 29.251h43.731c16.084 0 29.166-13.133 29.166-29.251v-38.973h38.87c16.084 0 29.166-13.133 29.166-29.251v-43.834zM761.885 700.904c18.779 0 34.009-15.282 34.009-34.112s-15.231-34.112-34.009-34.112c-18.796 0-34.026 15.282-34.026 34.112s15.231 34.112 34.026 34.112zM693.85 632.681c18.796 0 34.009-15.282 34.009-34.112s-15.231-34.112-34.009-34.112c-18.796 0-34.009 15.282-34.009 34.112s15.214 34.112 34.009 34.112zM642.818 342.731c-46.887 0-85.041 38.256-85.041 85.279s38.154 85.279 85.041 85.279 85.041-38.256 85.041-85.279-38.154-85.279-85.041-85.279zM761.885 496.234c-18.796 0-34.026 15.282-34.026 34.112s15.231 34.112 34.026 34.112c18.779 0 34.009-15.282 34.009-34.112s-15.231-34.112-34.009-34.112zM829.921 564.457c-18.796 0-34.009 15.282-34.009 34.112s15.231 34.112 34.009 34.112c18.796 0 34.009-15.282 34.009-34.112s-15.231-34.112-34.009-34.112zM302.656 598.569c0-28.259-22.847-51.168-51.031-51.168s-51.031 22.909-51.031 51.168c0 28.259 22.847 51.168 51.031 51.168s51.031-22.909 51.031-51.168zM408.334 519.208h-34.009v-68.223h-68.036v-34.112h68.036v-68.223h34.009v68.223h68.036v34.112h-68.036zM500.624 710.933c11.513-2.013 22.343 1.603 30.189 9.449 6.413 6.447 9.961 15.009 9.961 24.117 0 2.166-0.205 4.281-0.614 6.328-0.273 1.399-0.392 2.115-0.58 28.296h-65.443c-0.171-25.345-0.324-26.113-0.648-27.545-1.023-4.656-1.006-9.551 0.017-14.48 2.814-13.15 13.952-23.929 27.119-26.164zM693.85 428.011c0-28.259-22.847-51.168-51.031-51.168s-51.031 22.909-51.031 51.168c0 28.259 22.847 51.168 51.031 51.168s51.031-22.909 51.031-51.168z" />
<glyph unicode="&#xe90c;" glyph-name="category-household" data-tags="category-household" d="M1006.802 502.231l-459.435 418.635c-20.166 18.378-50.576 18.376-70.734 0.002l-459.437-418.639c-16.154-14.72-21.49-37.4-13.598-57.778 7.894-20.378 27.114-33.544 48.968-33.544h73.38v-419.441c0-16.63 13.484-30.114 30.114-30.114h251.828c16.63 0 30.114 13.482 30.114 30.114v254.672h148.004v-254.674c0-16.63 13.484-30.114 30.114-30.114h251.816c16.63 0 30.114 13.482 30.114 30.114v419.443h73.394c21.852 0 41.074 13.168 48.968 33.544 7.882 20.38 2.546 43.058-13.608 57.78zM890.182 874.54h-202.238l232.352-211.272v181.16c0 16.63-13.482 30.112-30.114 30.112z" />
<glyph unicode="&#xe90d;" glyph-name="category-humanity" data-tags="category-humanity" d="M942.766 814.844c-53.008 57.492-125.742 89.156-204.82 89.156-59.109 0-113.242-18.688-160.898-55.539-24.047-18.602-45.836-41.359-65.047-67.922-19.203 26.555-41 49.32-65.055 67.922-47.648 36.852-101.781 55.539-160.891 55.539-79.078 0-151.82-31.664-204.828-89.156-52.375-56.82-81.227-134.445-81.227-218.586 0-86.602 32.273-165.875 101.563-249.484 61.984-74.789 151.070-150.711 254.234-238.625 35.227-30.023 75.156-64.055 116.617-100.305 10.953-9.594 25.008-14.875 39.586-14.875 14.57 0 28.633 5.281 39.57 14.859 41.461 36.258 81.414 70.305 116.656 100.344 103.148 87.898 192.234 163.813 254.219 238.609 69.289 83.602 101.555 162.875 101.555 249.484 0 84.133-28.852 161.758-81.234 218.578z" />
<glyph unicode="&#xe90e;" glyph-name="category-learning" data-tags="category-learning" d="M577.723 250.112c-18.225-11.178-41.566-17.335-65.723-17.335s-47.498 6.155-65.723 17.335l-297.552 182.491c0 0-26.857 16.462-26.857-20.831 0-42.349 0-169.396 0-169.396 0-1.694 0-10.197 0-12.833 0-95.996 174.665-199.485 390.125-199.485s390.125 103.486 390.125 199.485c0 2.636 0 11.139 0 12.833 0 0 0 134.752 0 179.67 0 29.934-19.093 15.307-19.093 15.307l-305.301-187.242zM1006.852 577.763c22.863 14.021 22.863 36.967 0 50.991l-453.284 226.67c-22.863 14.021-60.277 14.021-83.14 0l-453.281-226.67c-22.863-14.021-22.863-36.967 0-50.991l453.281-278.002c22.863-14.021 60.277-14.021 83.14 0zM988.106 165.699c0 76.757 0 307.031 0 307.031s0.213 14.542-8.416 9.74c-6.922-3.852-23.89-13.31-29.868-18.51-6.902-5.998-5.346-19.463-5.346-19.463s0-209.099 0-278.798c0-3.958-3.401-5.847-5.023-6.802-15.669-9.212-26.205-26.215-26.205-45.709 0-29.295 23.746-53.044 53.044-53.044 29.295 0 53.042 23.749 53.042 53.044 0 19.568-10.613 36.626-26.382 45.814-1.568 0.914-4.846 2.741-4.846 6.696z" />
<glyph unicode="&#xe90f;" glyph-name="category-mental" data-tags="category-mental" d="M819.383 558.811c-16.226-23.061-38.409-41.282-64.183-52.718-25.524-12.082-41.871-37.718-42.057-65.957v-26.88c0.493-39.452-26.797-73.824-65.335-82.286-24.26-5.149-49.549 0.934-68.813 16.553s-30.445 39.103-30.423 63.904c-0.081 30.335-24.705 54.877-55.040 54.857-152.85 0-328.96 19.657-328.96 173.714 0 170.057 241.792 335.982 479.378 232.777 10.16 20.914 23.565 40.089 39.717 56.814-111.854 47.543-212.974 31.451-341.943 5.157-73.545-14.629-128.475-40.85-163.31-77.824-28.886-30.945-51.215-67.413-65.646-107.209-6.36-18.649-11.515-37.687-15.433-56.997-9.143-40.229-33.426-77.403-31.707-88.814 2.103-15.525 41.454-29.733 41.71-64.933-0.236-8.657-2.665-17.113-7.058-24.576-22.75-48.194-50.698-93.759-83.346-135.881-13.952-17.042-16.933-23.771-16.933-26.514 3.235-3.199 6.74-6.111 10.478-8.704 15.616-11.758 51.035-20.114 56.686-50.322 2.885-22.538-3.203-45.306-16.951-63.397 21.943-17.609 28.069-18.67 29.531-29.257s-5.486-13.806-10.77-25.051c16.622-9.838 32.037-17.938 37.595-39.589 8.466-34.267-13.641-42.77 0.457-82.779 3.841-16.926 20.368-27.793 37.431-24.613 74.459 15.36 191.104 60.709 234.057 74.185 75.593 24.101 90.953 51.511 90.514 70.272-0.237 10.099 7.757 18.478 17.856 18.715s18.478-7.757 18.715-17.856c1.079-45.458-37.961-81.115-116.023-106.057-5.339-1.682-37.998-13.129-42.679-14.775 30.361-33.114 52.405-72.978 64.311-116.297 449.225 0 414.135-1.408 412.16 2.597-36.425 55.406-51.712 130.523-59.611 195.657-7.175 61.145 2.013 123.098 26.624 179.529 40.375 91.886 119.698 130.962 123.703 256.183-30.308-10.879-62.662-14.852-94.702-11.63zM475.429 731.429v45.714h-36.571v-45.714c0-15.148-12.28-27.429-27.429-27.429h-45.714v-36.571h45.714c15.148 0 27.429-12.28 27.429-27.429v-45.714h36.571v45.714c0 15.148 12.28 27.429 27.429 27.429h45.714v36.571h-45.714c-15.148 0-27.429 12.28-27.429 27.429zM841.143 960c-100.989 0-182.857-81.868-182.857-182.857s81.868-182.857 182.857-182.857 182.857 81.868 182.857 182.857c-0.111 100.943-81.914 182.746-182.857 182.857zM928.914 839.314l-109.714-146.286c-3.181-4.24-8.045-6.891-13.332-7.266s-10.477 1.562-14.225 5.31l-36.571 36.571c-6.93 7.175-6.831 18.58 0.223 25.633s18.458 7.153 25.633 0.223l21.669-21.669 97.061 129.426c6.059 8.079 17.521 9.716 25.6 3.657s9.716-17.521 3.657-25.6zM201.143 640c0-126.958 164.882-137.143 292.023-137.143 24.321 0.073 47.675-9.519 64.924-26.665s26.98-40.442 27.053-64.763c-0.037-13.818 6.198-26.907 16.952-35.584s24.864-12.007 38.362-9.051c21.538 4.957 36.625 24.369 36.114 46.464v26.88c0.218 42.341 24.675 80.814 62.921 98.981 14.726 6.789 28.101 16.187 39.479 27.739-115.905 34.231-182.246 155.806-148.315 271.799-209.134 91.813-429.513-49.17-429.513-198.656zM585.143 667.429c0-20.198-16.374-36.571-36.571-36.571h-36.571v-36.571c0-20.198-16.374-36.571-36.571-36.571h-36.571c-20.198 0-36.571 16.374-36.571 36.571v36.571h-36.571c-20.198 0-36.571 16.374-36.571 36.571v36.571c0 20.198 16.374 36.571 36.571 36.571h36.571v36.571c0 20.198 16.374 36.571 36.571 36.571h36.571c20.198 0 36.571-16.374 36.571-36.571v-36.571h36.571c20.198 0 36.571-16.374 36.571-36.571z" />
<glyph unicode="&#xe910;" glyph-name="category-mental-1" data-tags="category-mental-1" d="M842 400.238h-106v-86.238h239.186c30.918 36.714 48.814 83.792 48.814 134 0 74.368-39.216 141.902-101.948 178.994 7.368 29.662 4.568 61.136-8.472 89.694-13.944 30.532-38.11 54.398-68.042 67.868-3.042 43.762-21.004 84.62-51.768 116.886-36.004 37.762-84.576 58.558-136.77 58.558-41.5 0-80.946-13.692-113-37.586v-198.414h94v42c0 16.568 13.432 30 30 30s30-13.432 30-30v-42h6c16.568 0 30-13.432 30-30s-13.432-30-30-30h-160c-33.084 0-60 26.916-60 60v195.35c-32.742 25.786-73.756 40.65-117 40.65-52.194 0-100.766-20.796-136.77-58.56-30.764-32.266-48.726-73.122-51.768-116.886-29.934-13.47-54.1-37.336-68.042-67.868-10.316-22.59-14.196-47.002-11.732-70.9h195.314v80.214c0 16.568 13.432 30 30 30s30-13.432 30-30v-80.212h17.998c33.084 0 60-26.916 60-60v-32h29.234c16.568 0 30-13.432 30-30s-13.432-30-30-30h-29.234v-54c0-16.568-13.432-30-30-30s-30 13.432-30 30v146h-112.002v-90c0-16.568-13.432-30-30-30s-30 13.432-30 30v90s-146.498 0.098-147.698 0.244c-33.056-37.266-52.3-85.966-52.3-138.032 0-74.368 39.216-141.902 101.948-178.994-7.368-29.662-4.568-61.136 8.472-89.694 2.79-6.11 6.008-11.94 9.582-17.486h191.998v134.174h-52c-16.568 0-30 13.432-30 30s13.432 30 30 30h52c33.084 0 60-26.916 60-60v-37.088h26c16.568 0 30-13.432 30-30s-13.432-30-30-30h-26v-37.086c0-33.084-26.916-60-60-60h-132.598c4.844-40.112 22.332-77.378 50.828-107.266 36.004-37.764 84.576-58.56 136.77-58.56 42.364 0 82.596 14.258 115 39.084v154.916c0 33.084 26.916 60 60 60h54c16.568 0 30-13.432 30-30s-13.432-30-30-30h-54v-154.916c32.404-24.826 72.636-39.084 115-39.084 52.194 0 100.766 20.796 136.77 58.56 30.764 32.266 48.726 73.124 51.768 116.886 29.934 13.47 54.1 37.336 68.042 67.868 10.862 23.784 14.592 49.59 11.288 74.688h-382.876c-33.084 0-60 26.916-60 60v53.998c0 16.568 13.432 30 30 30s30-13.432 30-30v-54h134.008v198.236h-60c-16.568 0-30 13.432-30 30s13.432 30 30 30h60c33.084 0 60-26.916 60-60v-52h75.998v57.764c0 16.568 13.432 30 30 30s30-13.432 30-30c0 0 0.002-85.39 0.002-87.762 0-16.57-13.432-30-30-30z" />
<glyph unicode="&#xe911;" glyph-name="category-outdoors" data-tags="category-outdoors" d="M312 736c0-48.601-39.399-88-88-88s-88 39.399-88 88c0 48.601 39.399 88 88 88s88-39.399 88-88zM224 840c13.255 0 24 10.745 24 24v0 32c0 13.255-10.745 24-24 24s-24-10.745-24-24v0-32c0-13.255 10.745-24 24-24v0zM314.51 802.51c0.010 0 0.022 0 0.034 0 6.617 0 12.606 2.687 16.936 7.029l22.629 22.627c4.343 4.343 7.030 10.343 7.030 16.971 0 13.255-10.745 24.001-24.001 24.001-6.628 0-12.628-2.686-16.971-7.030l-22.626-22.628c-4.343-4.343-7.029-10.343-7.029-16.97 0-13.254 10.745-23.999 23.999-24v0zM328 736c0-13.255 10.745-24 24-24v0h32c13.255 0 24 10.745 24 24s-10.745 24-24 24v0h-32c-13.255 0-24-10.745-24-24v0zM297.54 662.46c-4.343-4.343-7.029-10.343-7.029-16.97s2.686-12.627 7.029-16.97l22.626-22.628c4.343-4.343 10.343-7.030 16.971-7.030 13.255 0 24.001 10.745 24.001 24.001 0 6.628-2.686 12.628-7.030 16.971l-22.628 22.626c-4.343 4.343-10.343 7.029-16.97 7.029s-12.627-2.686-16.97-7.029v0zM200 608v-32c0-13.255 10.745-24 24-24s24 10.745 24 24v0 32c0 13.255-10.745 24-24 24s-24-10.745-24-24v0zM116.52 662.46l-22.628-22.626c-4.343-4.343-7.030-10.343-7.030-16.971 0-13.255 10.745-24.001 24.001-24.001 6.628 0 12.628 2.686 16.971 7.030l22.626 22.628c4.426 4.356 7.168 10.412 7.168 17.108 0 13.255-10.745 24-24 24-6.696 0-12.752-2.742-17.105-7.165l-0.003-0.003zM64 712h32c13.255 0 24 10.745 24 24s-10.745 24-24 24v0h-32c-13.255 0-24-10.745-24-24s10.745-24 24-24v0zM116.52 809.54c4.356-4.426 10.412-7.168 17.108-7.168 13.255 0 24 10.745 24 24 0 6.696-2.742 12.752-7.165 17.105l-22.629 22.631c-4.343 4.343-10.343 7.030-16.971 7.030-13.255 0-24.001-10.745-24.001-24.001 0-6.628 2.686-12.628 7.030-16.971v0zM8 32c0-13.255 10.745-24 24-24v0h960c13.255 0 24 10.745 24 24v0 100h-1008zM1010.74 431l-128 160c-4.435 5.51-11.179 9.005-18.739 9.005-6.627 0-12.627-2.686-16.971-7.029l-79.030-79.034-207.030 207.028c-4.343 4.343-10.343 7.029-16.971 7.029-7.949 0-14.995-3.864-19.362-9.816l-0.047-0.067-182.892-251.476c17.34-8.94 32.646-29.042 45.684-60.094 12.14-28.908 20.618-64.498 20.618-86.546-0.058-40.031-26.793-73.801-63.377-84.49l-0.623-0.156v-75.354c-0.009-1.419-0.139-2.802-0.382-4.146l0.022 0.146h144.72c-0.221 1.198-0.351 2.581-0.36 3.992v75.362c-37.207 10.845-63.942 44.615-64 84.639v0.007c0 22.048 8.478 57.638 20.618 86.546 18.236 43.432 40.908 65.454 67.382 65.454s49.146-22.022 67.382-65.454c12.14-28.908 20.618-64.498 20.618-86.546-0.058-40.031-26.793-73.801-63.377-84.49l-0.623-0.156v-75.354c-0.009-1.419-0.139-2.802-0.382-4.146l0.022 0.146h144.72c-0.221 1.198-0.351 2.581-0.36 3.992v75.362c-37.207 10.845-63.942 44.615-64 84.639v0.007c0 22.048 8.478 57.638 20.618 86.546 18.236 43.432 40.908 65.454 67.382 65.454s49.146-22.022 67.382-65.454c12.14-28.908 20.618-64.498 20.618-86.546-0.058-40.031-26.793-73.801-63.377-84.49l-0.623-0.156v-75.354c-0.009-1.419-0.139-2.802-0.382-4.146l0.022 0.146h288.36v260c0 0.002 0 0.004 0 0.006 0 5.694-1.983 10.925-5.296 15.040l0.036-0.046zM296 160v75.354c-37.207 10.845-63.942 44.615-64 84.639v0.007c0 22.048 8.478 57.638 20.618 86.546 1.49 3.552 3.014 6.946 4.566 10.212l-48.214 48.212c-4.343 4.343-10.343 7.030-16.971 7.030-7.677 0-14.512-3.605-18.905-9.214l-0.040-0.052-160-205.714c-3.151-4.023-5.053-9.157-5.054-14.734v0-86.286h288.36c-0.221 1.198-0.351 2.581-0.36 3.992v0.008z" />
<glyph unicode="&#xe912;" glyph-name="category-reading" data-tags="category-reading" d="M156.641 839.157c-0.028 0-0.059 0-0.086 0-9.685 0-18.794-3.775-25.672-10.637-6.954-6.937-10.785-16.174-10.785-26.007v-549.462c0-20.149 16.456-36.581 36.688-36.633 85.292-0.203 228.191-17.98 326.771-121.143v575.028c0 6.83-1.745 13.247-5.037 18.556-80.91 130.3-236.393 150.098-321.878 150.298zM903.905 253.051v549.466c0 9.833-3.831 19.070-10.785 26.007-6.878 6.861-15.994 10.637-25.669 10.637-0.031 0-0.062 0-0.090 0-85.482-0.203-240.965-20.001-321.878-150.301-3.293-5.31-5.034-11.726-5.034-18.556v-575.024c98.58 103.162 241.479 120.939 326.771 121.143 20.228 0.052 36.685 16.484 36.685 36.63zM987.363 712.443h-26.569v-459.391c0-51.445-41.915-93.395-93.439-93.522-72.346-0.172-191.633-14.319-276.115-94.277 146.112 35.775 300.14 12.519 387.921-7.485 10.961-2.496 22.287 0.083 31.068 7.082 8.751 6.982 13.771 17.418 13.771 28.62v582.337c0.003 20.201-16.436 36.637-36.637 36.637zM63.205 253.051v459.391h-26.569c-20.197 0-36.637-16.436-36.637-36.637v-582.327c0-11.205 5.020-21.639 13.771-28.62 8.775-6.996 20.090-9.585 31.068-7.082 87.782 20.008 241.813 43.26 387.918 7.485-84.479 79.955-203.766 94.098-276.112 94.27-51.521 0.124-93.439 42.074-93.439 93.519z" />
<glyph unicode="&#xe913;" glyph-name="category-social" data-tags="category-social" d="M686 720.738c0-96.098-77.902-174-174-174s-174 77.902-174 174c0 96.098 77.902 174 174 174s174-77.902 174-174zM974 656.74c0-60.751-49.249-110-110-110s-110 49.249-110 110c0 60.751 49.249 110 110 110s110-49.249 110-110zM270 656.74c0-60.751-49.249-110-110-110s-110 49.249-110 110c0 60.751 49.249 110 110 110s110-49.249 110-110zM268.38 447.958c-43.3 35.476-82.514 30.78-132.58 30.78-74.88 0-135.8-60.56-135.8-134.98v-218.42c0-32.32 26.38-58.6 58.82-58.6 140.052 0 123.18-2.534 123.18 6.040 0 154.772-18.332 268.274 86.38 375.18zM559.62 477.94c-87.448 7.294-163.458-0.084-229.020-54.2-109.714-87.88-88.6-206.206-88.6-350.96 0-38.298 31.16-70.040 70.040-70.040 422.164 0 438.966-13.618 464 41.82 8.21 18.748 5.96 12.79 5.96 192.14 0 142.452-123.346 241.24-222.38 241.24zM888.2 478.74c-50.34 0-89.338 4.648-132.58-30.78 103.93-106.112 86.38-211.87 86.38-375.18 0-8.628-14.006-6.040 121.080-6.040 33.6 0 60.92 27.22 60.92 60.68v216.34c0 74.42-60.92 134.98-135.8 134.98z" />
<glyph unicode="&#xe914;" glyph-name="category-sport" data-tags="category-sport" d="M553.687 877.284c11.582 15.35 9.72 47.909 8.071 76.63-0.063 1.238-0.132 2.449-0.201 3.678-16.234 1.55-32.668 2.407-49.3 2.407-63.733 0-124.716-11.741-181-33.026 40.15-19.295 102.3-52.505 171.381-101.575 23.57 20.284 41.346 39.009 51.049 51.885zM813.108 585.132c-25.236-2.851-46.518-6.992-64.72-12.801 87.010-151.916 120.935-343.844 129.236-482.888 86.199 87.829 140.942 206.562 146.118 338.079-59.395 73.007-138.078 165.84-210.634 157.61zM295.847 716.262c61.136 12.721 118.572 43.491 164.367 75.971-95.538 65.801-175.222 99.949-191.073 106.449-99.118-53.582-178.434-138.954-224.577-242.395 59.977 23.897 124.934 36.055 188.734 47.901 20.64 3.833 41.975 7.795 62.55 12.074zM649.734 701.375c5.457-5.484 10.899-11.062 16.304-16.746 19.944-20.937 38.041-43.837 54.636-68.065 24.167 9.125 52.618 15.595 86.675 19.446 80.244 9.077 151.596-54.489 212.836-124.471-13.13 106.089-58.63 202.107-126.427 277.83-37.006-4.46-78.262-12.016-120.312-24.563-27.584-8.239-71.513-30.623-123.71-63.431zM582.366 436.964c21 71.128 45.324 122.401 92.452 155.683-14.144 20.305-29.364 39.361-45.852 56.672-7.627 8.010-15.34 15.746-23.086 23.346-189.079-128.7-448.082-365.117-471.633-569.955 78.616-86.015 186.207-145.003 307.326-161.738 44.101 87.802 85.609 266.294 110.281 372.45 11.854 50.989 22.085 95.014 30.512 123.543zM367.982 549.756c65.926 60.75 135.548 115.226 199.226 159.009-21.226 18.78-42.517 36.091-63.419 51.967-52.891-39.759-122.139-78.918-197.517-94.595-21.109-4.393-42.725-8.408-63.622-12.288-80.518-14.952-157.811-29.433-222.811-65.7-12.659-44.558-19.582-91.535-19.582-140.15 0-108.754 34.015-209.518 91.832-292.437 37.456 148.303 165.932 292.868 275.892 394.194zM611.311 738.008c60.911 38.833 113.425 65.683 147.496 75.853 30.596 9.137 60.61 15.792 89.031 20.646-65.677 57.072-145.959 97.748-234.584 115.478 1.965-35.758 2.822-75.015-18.689-103.538-10.22-13.545-27.51-32.121-50.008-52.275 22.033-17.15 44.424-35.852 66.754-56.165zM631.465 422.466c-7.994-27.081-18.078-70.436-29.743-120.633-34.446-148.215-67.407-280.838-105.901-365.414 5.465-0.174 10.928-0.417 16.435-0.417 119.324 0 229.016 40.93 316.068 109.359-3.437 145.504-38.319 351.312-126.184 504.089-34.078-25.328-52.419-65.172-70.675-126.984z" />
<glyph unicode="&#xe915;" glyph-name="category-travel" data-tags="category-travel" d="M1012.702 948.704c-78.512 26.184-163.612 6.090-222.136-52.434l-213.81-213.806-445.477 190.916-84.854-84.85 360.625-275.771-194.92-194.92-127.28 42.43-84.852-84.856 212.132-127.28 127.28-212.132 84.852 84.854-42.426 127.276 194.92 194.92 275.771-360.625 84.852 84.854-190.916 445.477 213.808 213.808c58.524 58.524 78.618 143.624 52.43 222.14zM958.592 427.905c-23.432 23.434-61.42 23.434-84.854 0l-17.934-17.934 50.91-118.796 51.878 51.878c23.43 23.434 23.43 61.42 0 84.852zM491.903 894.598c-23.43 23.434-61.42 23.434-84.852 0l-51.878-51.88 118.796-50.91 17.934 17.938c23.434 23.43 23.434 61.418 0 84.852z" />
<glyph unicode="&#xe916;" glyph-name="charisma" data-tags="charisma" d="M1013.626 146.301l-203.731 122.238-41.941 671.437c-0.512 8.362-5.888 15.658-13.738 18.646-7.85 2.944-16.726 1.066-22.614-4.864l-73.429-73.429c-24.618 13.738-76.671 36.991-146.174 36.991s-121.556-23.254-146.174-36.991l-73.385 73.427c-5.974 5.974-14.806 7.808-22.614 4.864-7.85-2.986-13.226-10.24-13.738-18.646l-41.983-671.437-203.729-122.236c-6.442-3.882-10.368-10.794-10.368-18.304v-170.664c0-11.776 9.558-21.334 21.334-21.334h981.321c11.776 0 21.334 9.558 21.334 21.334v170.664c-0.002 7.508-3.928 14.42-10.37 18.304zM343.597 649.548c5.29 10.538 18.090 14.762 28.63 9.514l42.239-21.12c0.256-0.128 0.554-0.256 0.768-0.384l42.281-21.162c8.874-4.438 13.482-14.336 11.222-23.978s-10.838-16.426-20.736-16.426h-42.667c-11.776 0-21.334 9.558-21.334 21.334v8.15l-30.89 15.446c-10.538 5.244-14.804 18.086-9.514 28.626zM569.556 277.329h-115.070l-110.164 73.429 33.706 134.696 128.126-36.607c3.84-1.066 7.894-1.066 11.69 0l128.126 36.607 33.706-134.696-110.118-73.429zM670.889 620.919l-32.214-16.086c0.854-2.346 1.322-4.864 1.322-7.51 0-11.776-9.558-21.334-21.334-21.334h-42.665c-9.898 0-18.518 6.826-20.778 16.426-2.262 9.6 2.39 19.542 11.222 23.978l85.333 42.665c10.582 5.248 23.338 0.982 28.63-9.558 5.29-10.492 1.022-23.334-9.516-28.582zM554.666 405.328h-85.333c-11.776 0-21.334-9.558-21.334-21.334s9.558-21.334 21.334-21.334h85.333c11.776 0 21.334 9.558 21.334 21.334s-9.558 21.334-21.334 21.334z" />
<glyph unicode="&#xe917;" glyph-name="checkbox" data-tags="checkbox" d="M392.108 65.466c-9.775-9.832-23.111-15.318-36.964-15.318s-27.189 5.486-36.964 15.318l-295.204 295.251c-30.636 30.636-30.636 80.313 0 110.892l36.964 36.973c30.645 30.636 80.266 30.636 110.901 0l184.302-184.312 498.012 498.021c30.645 30.636 80.313 30.636 110.901 0l36.964-36.973c30.636-30.636 30.636-80.304 0-110.892z" />
<glyph unicode="&#xe918;" glyph-name="check-tasks" data-tags="check-tasks" d="M1009.004 809.008c-19.994 19.996-52.41 19.996-72.408 0l-613.408-613.414-235.784 235.784c-19.994 19.996-52.41 19.994-72.408 0-19.996-19.994-19.996-52.41 0-72.406l271.988-271.984c19.988-19.994 52.428-19.98 72.408 0l649.612 649.612c19.996 19.994 19.994 52.412 0 72.408z" />
<glyph unicode="&#xe91a;" glyph-name="coin" data-tags="coin" d="M297.516 375.257c28.777 0 56.593 1.859 82.914 5.319v288.507c-26.319 3.458-54.137 5.316-82.914 5.316-164.312 0-297.513-60.412-297.513-134.938v-29.264c0-74.523 133.202-134.941 297.513-134.941zM297.516 224.609c28.777 0 56.593 1.859 82.914 5.314v84.567c-26.327-3.458-54.13-5.342-82.914-5.342-143.426 0-263.137 46.034-291.256 107.301-4.095-8.924-6.257-18.165-6.257-27.637v-29.264c0-74.526 133.202-134.938 297.513-134.938zM380.428 157.264v6.573c-26.327-3.458-54.13-5.342-82.914-5.342-143.426 0-263.137 46.034-291.256 107.301-4.095-8.922-6.257-18.162-6.257-27.635v-29.264c0-74.528 133.202-134.941 297.513-134.941 32.859 0 64.464 2.422 94.019 6.884-7.326 14.985-11.104 30.789-11.104 47.161v29.262zM726.489 902.938c-164.312 0-297.513-60.412-297.513-134.938v-29.264c0-74.526 133.202-134.938 297.513-134.938 164.309 0 297.513 60.412 297.513 134.938v29.264c0 74.526-133.204 134.938-297.513 134.938zM726.489 537.687c-143.426 0-263.137 46.032-291.256 107.301-4.095-8.922-6.257-18.162-6.257-27.637v-29.264c0-74.526 133.202-134.938 297.513-134.938 164.309 0 297.513 60.412 297.513 134.938v29.264c0 9.475-2.162 18.716-6.257 27.637-28.119-61.269-147.83-107.301-291.256-107.301zM726.489 387.034c-143.426 0-263.137 46.034-291.256 107.301-4.095-8.922-6.257-18.162-6.257-27.637v-29.264c0-74.528 133.202-134.941 297.513-134.941 164.309 0 297.513 60.412 297.513 134.941v29.264c0 9.475-2.162 18.716-6.257 27.637-28.119-61.269-147.83-107.301-291.256-107.301zM726.489 228.251c-143.426 0-263.137 46.034-291.256 107.301-4.095-8.924-6.257-18.162-6.257-27.635v-29.267c0-74.526 133.202-134.938 297.513-134.938 164.309 0 297.513 60.412 297.513 134.938v29.267c0 9.473-2.162 18.716-6.257 27.635-28.119-61.264-147.83-107.301-291.256-107.301zM726.489 77.601c-143.426 0-263.137 46.032-291.256 107.298-4.095-8.924-6.257-18.167-6.257-27.635v-29.264c0-74.526 133.202-134.938 297.513-134.938 164.309 0 297.513 60.412 297.513 134.938v29.267c0 9.473-2.162 18.716-6.257 27.635-28.119-61.267-147.83-107.301-291.256-107.301z" />
<glyph unicode="&#xe91b;" glyph-name="comment" data-tags="comment" d="M0 56.957v501.045c0 154.952 126.088 281.040 281.040 281.040h461.852c154.986 0 281.108-126.088 281.108-281.040v-86.422c0-154.952-126.088-281.040-281.040-281.040h-455.404l-287.556-133.583zM281.040 776.387c-120.417 0-218.384-97.967-218.384-218.384v-402.842l211.093 98.069h469.211c120.417 0 218.384 97.967 218.384 218.384v86.422c0 120.417-98.001 218.384-218.452 218.384l-461.852-0.034zM301.701 562.762c32.915 0 59.584-26.669 59.584-59.584s-26.669-59.584-59.584-59.584-59.584 26.669-59.584 59.584 26.669 59.584 59.584 59.584zM722.266 562.762c32.915 0 59.584-26.669 59.584-59.584s-26.669-59.584-59.584-59.584-59.584 26.669-59.584 59.584 26.669 59.584 59.584 59.584zM511.949 562.762c32.915 0 59.584-26.669 59.584-59.584s-26.669-59.584-59.584-59.584-59.584 26.669-59.584 59.584 26.669 59.584 59.584 59.584z" />
<glyph unicode="&#xe91c;" glyph-name="culture" data-tags="culture" d="M337.405 136.692l-13.798 388.050h-177.955l-13.798-388.050zM700.39 524.742l-13.796-388.050h205.548l-13.796 388.050zM423.021 524.742l-13.796-388.050h205.55l-13.798 388.050zM63.942 76.684h896.116v-140.686h-896.116zM960.058 584.75v59.684l-448.058 315.567-448.058-315.565v-59.684h896.116zM405.32 695.43v60.008h213.36v-60.008z" />
<glyph unicode="&#xe91d;" glyph-name="daily1" data-tags="daily" d="M812 540c0-22.091-17.909-40-40-40s-40 17.909-40 40c0 22.091 17.909 40 40 40s40-17.909 40-40zM864 880h-52v40c0 22.092-17.908 40-40 40s-40-17.908-40-40v-40h-182v40c0 22.092-17.908 40-40 40s-40-17.908-40-40v-40h-180v40c0 22.092-17.908 40-40 40s-40-17.908-40-40v-40h-50c-88.224 0-160-71.776-160-160v-624c0-88.224 71.776-160 160-160h306c22.092 0 40 17.908 40 40s-17.908 40-40 40h-306c-44.112 0-80 35.888-80 80v624c0 44.112 35.888 80 80 80h50v-40c0-22.092 17.908-40 40-40s40 17.908 40 40v40h180v-40c0-22.092 17.908-40 40-40s40 17.908 40 40v40h182v-40c0-22.092 17.908-40 40-40s40 17.908 40 40v40h52c44.112 0 80-35.888 80-80v-228c0-22.092 17.908-40 40-40s40 17.908 40 40v228c0 88.224-71.776 160-160 160zM782 420c-133.44 0-242-108.56-242-242s108.56-242 242-242 242 108.56 242 242-108.56 242-242 242zM782 16c-89.326 0-162 72.672-162 162s72.674 162 162 162c89.326 0 162-72.672 162-162s-72.674-162-162-162zM840 218h-18v42c0 22.092-17.908 40-40 40s-40-17.908-40-40v-82c0-22.092 17.908-40 40-40h58c22.092 0 40 17.908 40 40s-17.908 40-40 40zM638 540c0-22.091-17.909-40-40-40s-40 17.909-40 40c0 22.091 17.909 40 40 40s40-17.909 40-40zM464 366c0-22.091-17.909-40-40-40s-40 17.909-40 40c0 22.091 17.909 40 40 40s40-17.909 40-40zM290 540c0-22.091-17.909-40-40-40s-40 17.909-40 40c0 22.091 17.909 40 40 40s40-17.909 40-40zM290 366c0-22.091-17.909-40-40-40s-40 17.909-40 40c0 22.091 17.909 40 40 40s40-17.909 40-40zM290 192c0-22.091-17.909-40-40-40s-40 17.909-40 40c0 22.091 17.909 40 40 40s40-17.909 40-40zM464 192c0-22.091-17.909-40-40-40s-40 17.909-40 40c0 22.091 17.909 40 40 40s40-17.909 40-40zM464 540c0-22.091-17.909-40-40-40s-40 17.909-40 40c0 22.091 17.909 40 40 40s40-17.909 40-40z" />
<glyph unicode="&#xe91f;" glyph-name="dark-theme" data-tags="dark-theme" d="M999.082 376.791c-10.475 2.619-20.951 0-30.116-6.547-34.045-28.807-73.327-52.377-116.538-68.089-40.592-15.713-85.112-23.569-132.251-23.569-106.062 0-202.959 43.211-272.358 112.609s-112.609 166.295-112.609 272.358c0 44.52 7.856 87.731 20.951 127.013 14.404 41.901 35.354 79.874 62.852 112.609 11.785 14.404 9.166 35.354-5.238 47.139-9.166 6.547-19.641 9.166-30.116 6.547-111.3-30.116-208.197-96.897-277.595-185.937-66.78-87.731-106.062-196.412-106.062-314.259 0-142.726 57.614-272.358 151.892-366.636s222.6-151.892 366.636-151.892c120.466 0 231.766 41.901 320.806 111.3 90.349 70.708 155.82 171.533 183.318 286.761 5.238 18.332-5.238 36.664-23.569 40.592z" />
<glyph unicode="&#xe922;" glyph-name="faq" data-tags="faq" d="M1019.978 32.69l-70.298 204.586c33.812 68.346 51.694 144.53 51.814 221.184 0.204 132.004-50.87 256.82-143.818 351.454-92.964 94.65-216.842 147.926-348.812 150.020-69.142 1.11-136.234-11.63-199.514-37.824-61.034-25.264-115.768-61.862-162.68-108.776-46.914-46.912-83.512-101.646-108.776-162.68-26.198-63.28-38.924-130.406-37.828-199.514 2.090-131.97 55.368-255.848 150.016-348.812 94.448-92.766 218.944-143.824 350.664-143.822 0.256 0 0.53 0 0.788 0 76.656 0.118 152.838 18 221.188 51.814l204.586-70.298c7.868-2.704 15.932-4.022 23.908-4.022 18.95 0 37.38 7.446 51.358 21.424 19.864 19.86 26.532 48.7 17.404 75.266zM495.818 173.794c-17.018 0-29.62 13.91-30.356 30.356-0.734 16.394 14.478 30.356 30.356 30.356 17.018 0 29.62-13.91 30.356-30.356 0.736-16.392-14.478-30.356-30.356-30.356zM526.174 405.658v-96.518c0-16.764-13.592-30.356-30.356-30.356s-30.356 13.592-30.356 30.356v123.81c0 16.764 13.592 30.356 30.356 30.356 49.8 0 90.318 40.518 90.318 90.318s-40.518 90.318-90.318 90.318-90.318-40.518-90.318-90.318c0-16.764-13.592-30.356-30.356-30.356s-30.356 13.592-30.356 30.356c0 83.276 67.752 151.030 151.030 151.030 83.276 0 151.030-67.752 151.030-151.030 0-72.884-51.894-133.876-120.674-147.966z" />
<glyph unicode="&#xe923;" glyph-name="fire" data-tags="fire" d="M738.428 640.372c-182.778 111.202-97.066 268.156-93.386 274.68 5.336 9.284 5.318 20.706-0.046 29.974-5.362 9.268-15.258 14.974-25.966 14.974-94.086 0-167.762-26.732-218.98-79.458-87.518-90.088-83.458-230.302-81.724-290.176 0.194-6.634 0.358-12.364 0.358-16.622 0-44.456 7.132-85.496 13.426-121.708 4.056-23.336 7.558-43.488 8.182-59.328 0.666-16.964-2.432-20.848-2.562-21.006-0.442-0.526-4.124-2.482-14.072-2.482-11.348 0-19.712 3.708-27.126 12.018-28.952 32.466-30.954 121.108-25.418 169.334 0.99 8.504-1.7 17.024-7.394 23.416-5.692 6.392-13.844 10.048-22.402 10.048-77.89 0-136.094-127.376-136.094-241.264 0-53.538 10.77-105.982 32.008-155.88 20.532-48.238 49.808-91.77 87.024-129.392 77.498-78.35 179.684-121.5 287.73-121.5 108.484 0 210.642 42.54 287.662 119.778 76.82 77.042 119.128 178.964 119.128 286.998 0 137.842-107.854 253.492-180.348 297.596z" />
<glyph unicode="&#xe924;" glyph-name="forbidden" data-tags="forbidden" d="M800 576h-32v128c0 141.188-114.813 256-256 256s-256-114.813-256-256v-128h-32c-52.906 0-96-43.047-96-96v-448c0-52.953 43.094-96 96-96h576c52.906 0 96 43.047 96 96v448c0 52.953-43.094 96-96 96zM341.336 704c0 94.125 76.539 170.664 170.664 170.664s170.664-76.539 170.664-170.664v-128h-341.328z" />
<glyph unicode="&#xe925;" glyph-name="gift" data-tags="gift" d="M64 416.616v-384c0-35.328 28.736-64 64-64h320v448h-384zM960 672.616h-202.496c14.528 9.92 27.008 19.776 35.712 28.608 51.648 51.904 51.648 136.384 0 188.288-50.176 50.56-137.6 50.432-187.712 0-27.776-27.84-101.376-141.184-91.2-216.896h-4.608c10.112 75.712-63.488 189.056-91.2 216.896-50.176 50.432-137.6 50.432-187.712 0-51.584-51.904-51.584-136.384-0.064-188.288 8.768-8.832 21.248-18.688 35.776-28.608h-202.496c-35.264 0-64-28.736-64-64v-96c0-17.664 14.336-32 32-32h416v128h128v-128h416c17.664 0 32 14.336 32 32v96c0 35.264-28.672 64-64 64zM444.224 674.728c0 0-2.688-2.112-11.84-2.112-44.224 0-128.64 45.952-156.224 73.728-26.816 27.008-26.816 71.040 0 98.048 12.992 13.056 30.208 20.224 48.512 20.224 18.24 0 35.456-7.168 48.448-20.224 43.136-43.392 86.016-154.24 71.104-169.664zM591.552 672.616c-9.088 0-11.776 2.048-11.776 2.112-14.912 15.424 27.968 126.272 71.104 169.664 25.792 26.048 70.912 26.176 96.96 0 26.88-27.008 26.88-71.040 0-98.048-27.584-27.776-112-73.728-156.288-73.728zM576 416.616v-448h320c35.328 0 64 28.672 64 64v384h-384z" />
<glyph unicode="&#xe926;" glyph-name="habits" data-tags="habits" d="M564.967 162.973c-29.258 0-52.971-23.706-52.971-52.964s23.713-52.978 52.971-52.978h406.062c29.258 0 52.971 23.706 52.971 52.978 0 29.25-23.706 52.964-52.971 52.964h-406.062zM0 639.667c0-29.258 23.713-52.964 52.971-52.964h141.244v-141.251c0-29.25 23.706-52.971 52.964-52.971s52.971 23.706 52.971 52.971v141.251h158.898c29.258 0 52.964 23.706 52.964 52.964s-23.706 52.971-52.964 52.971h-158.905v176.553c0 29.258-23.713 52.964-52.971 52.964s-52.964-23.706-52.964-52.964v-176.553h-141.244c-29.25-0.007-52.964-23.721-52.964-52.971zM952.505 834.903c-20.684 20.691-54.217 20.691-74.909 0l-770.604-770.633c-20.677-20.684-20.677-54.217 0-74.894 10.327-10.356 23.902-15.531 37.447-15.531 13.538 0 27.12 5.175 37.462 15.531l770.604 770.604c20.691 20.677 20.691 54.246 0 74.923z" />
<glyph unicode="&#xe927;" glyph-name="humanity" data-tags="humanity" d="M942.766 814.844c-53.008 57.492-125.742 89.156-204.82 89.156-59.109 0-113.242-18.688-160.898-55.539-24.047-18.602-45.836-41.359-65.047-67.922-19.203 26.555-41 49.32-65.055 67.922-47.648 36.852-101.781 55.539-160.891 55.539-79.078 0-151.82-31.664-204.828-89.156-52.375-56.82-81.227-134.445-81.227-218.586 0-86.602 32.273-165.875 101.563-249.484 61.984-74.789 151.070-150.711 254.234-238.625 35.227-30.023 75.156-64.055 116.617-100.305 10.953-9.594 25.008-14.875 39.586-14.875 14.57 0 28.633 5.281 39.57 14.859 41.461 36.258 81.414 70.305 116.656 100.344 103.148 87.898 192.234 163.813 254.219 238.609 69.289 83.602 101.555 162.875 101.555 249.484 0 84.133-28.852 161.758-81.234 218.578z" />
<glyph unicode="&#xe928;" glyph-name="intellect" data-tags="intellect" d="M332 478c-16.578 0-30 13.422-30 30 0 49.625-40.375 90-90 90-84.203 0-150-69.164-150-150 0-81.383 66.305-150 150-150 16.578 0 30-13.422 30-30s-13.422-30-30-30c-31.555 0-61.203 7.492-88.078 20.023-0.914-6.617-1.922-13.219-1.922-20.023 0.031-101.836 87.57-185.328 187.68-179.82 15.625-55.367 60.648-113.664 172.32-122.18v1024c-112.805-8.602-157.414-67.891-172.617-123.023-105.203-9.727-187.383-86.281-187.383-178.977 0-6.758 1.133-13.313 2.18-19.883 26.813 12.445 56.375 19.883 87.82 19.883 30.063 0 57.969-9.094 81.477-24.383 4.805 5.117 7.031 10.859 7.734 13.922 1.109 4.867 2.547 17.32-8.031 27.891-11.719 11.719-11.719 30.703 0 42.422s30.703 11.719 42.422 0c22.031-22.031 31.023-53.289 24.109-83.672-3.758-16.414-12.086-30.789-23.352-42.398 16.18-23.945 25.641-52.773 25.641-83.781 0-16.578-13.422-30-30-30zM422 328v-60c0-49.625-40.375-90-90-90-16.578 0-30 13.422-30 30s13.422 30 30 30c16.555 0 30 13.445 30 30v60c0 16.555-13.445 30-30 30-49.625 0-90 40.375-90 90 0 16.578 13.422 30 30 30s30-13.422 30-30c0-16.555 13.445-30 30-30 49.625 0 90-40.375 90-90zM713.883 647.336c0.883-3.773 3.742-11.648 11.523-17.289 24.516 17.453 54.281 27.953 86.594 27.953 31.445 0 61.008-7.438 87.82-19.883 1.047 6.57 2.18 13.125 2.18 19.883 0 92.227-81.328 168.461-187.297 178.594-15.211 55.305-59.82 114.773-172.703 123.398v-1023.992c111.719 8.508 156.727 66.805 172.352 122.148 101.484-3.75 187.648 78.047 187.648 179.852 0 6.805-1.008 13.406-1.922 20.023-26.875-12.531-56.523-20.023-88.078-20.023-16.578 0-30 13.422-30 30s13.422 30 30 30c83.688 0 150 68.617 150 150 0 80.922-65.898 150-150 150-49.625 0-90-40.375-90-90 0-16.578-13.422-30-30-30s-30 13.422-30 30c0 29.063 8.672 55.992 23.039 79-14.828 12.484-25.211 28.133-29.57 46.57-7.211 30.555 1.758 62.078 23.961 84.289 11.719 11.711 30.703 11.711 42.422 0 11.719-11.719 11.719-30.711 0-42.422-10.664-10.672-9.141-23.211-7.969-28.102zM692 418c16.555 0 30 13.445 30 30 0 16.578 13.422 30 30 30s30-13.422 30-30c0-49.625-40.375-90-90-90-16.555 0-30-13.445-30-30v-60c0-16.555 13.445-30 30-30 16.578 0 30-13.422 30-30s-13.422-30-30-30c-49.625 0-90 40.375-90 90v60c0 49.625 40.375 90 90 90z" />
<glyph unicode="&#xe929;" glyph-name="level-up" data-tags="level-up" d="M260.476 683.466l-88.715-6.854c-24.686-1.908-46.672-14.846-60.324-35.496l-102.313-154.743c-10.354-15.66-12-35.258-4.406-52.426 7.596-17.168 23.206-29.132 41.756-32.006l81.229-12.58c19.002 100.839 64.489 201.43 132.773 294.104zM453.36 63.705l12.582-81.229c2.874-18.55 14.838-34.16 32.004-41.754 7.142-3.16 14.702-4.72 22.224-4.72 10.566 0 21.058 3.078 30.204 9.126l154.747 102.311c20.65 13.654 33.588 35.642 35.492 60.324l6.854 88.715c-92.675-68.285-193.264-113.773-294.106-132.773zM422.811 120.007c2.82 0 5.656 0.232 8.486 0.704 42.248 7.064 82.967 18.964 121.811 34.54l-333.857 333.857c-15.576-38.842-27.476-79.561-34.54-121.811-2.784-16.654 2.802-33.62 14.74-45.56l186.287-186.287c9.912-9.91 23.29-15.444 37.074-15.444zM942.349 505.998c81.697 157.947 84.723 324.857 80.453 403.137-1.462 26.822-22.846 48.206-49.67 49.668-12.746 0.696-27.852 1.198-44.878 1.198-87.531 0-226.032-13.258-358.259-81.651-105.083-54.354-242.876-174.035-324.171-331.317 0.96-0.75 1.898-1.546 2.782-2.43l359.997-359.997c0.884-0.884 1.678-1.82 2.428-2.78 157.283 81.297 276.964 219.090 331.317 324.173zM595.391 743.522c58.482 58.482 153.643 58.488 212.128 0 28.332-28.33 43.934-65.999 43.934-106.065s-15.602-77.735-43.934-106.065c-29.238-29.238-67.657-43.86-106.063-43.864-38.418-0.002-76.819 14.618-106.065 43.864-28.332 28.33-43.936 65.999-43.936 106.065s15.604 77.735 43.936 106.065zM637.817 573.819c35.090-35.090 92.189-35.092 127.279 0 16.998 17 26.36 39.6 26.36 63.64s-9.362 46.64-26.36 63.638c-17.544 17.546-40.592 26.318-63.64 26.318-23.046 0-46.094-8.772-63.638-26.318-16.998-16.998-26.362-39.598-26.362-63.638s9.362-46.642 26.36-63.64zM30.61 116.131c7.678 0 15.356 2.928 21.212 8.788l97.945 97.945c11.716 11.716 11.716 30.71 0 42.426-11.714 11.716-30.71 11.716-42.426 0l-97.945-97.945c-11.716-11.716-11.716-30.71 0-42.426 5.858-5.858 13.536-8.788 21.214-8.788zM239.528 175.528c-11.714 11.716-30.71 11.716-42.426 0l-188.309-188.309c-11.716-11.716-11.716-30.71 0-42.426 5.858-5.858 13.536-8.786 21.214-8.786s15.356 2.928 21.212 8.788l188.307 188.307c11.718 11.716 11.718 30.71 0.002 42.426zM286.862 85.767l-97.943-97.945c-11.716-11.716-11.716-30.71 0-42.426 5.858-5.858 13.536-8.788 21.212-8.788s15.356 2.928 21.212 8.788l97.945 97.945c11.716 11.716 11.716 30.71 0 42.426-11.714 11.716-30.71 11.716-42.426 0z" />
<glyph unicode="&#xe92a;" glyph-name="login" data-tags="login" d="M931.070 959.359c-1.063 0.086-1.961 0.641-3.070 0.641h-458.664c-70.57 0-128-57.43-128-128v-42.664c0-23.555 19.109-42.672 42.664-42.672s42.664 19.117 42.664 42.672v42.664c0 23.508 19.156 42.664 42.672 42.664h198.781l-13.016-4.352c-34.555-11.945-57.766-44.5-57.766-80.977v-640h-128c-23.516 0-42.672 19.156-42.672 42.664v85.336c0 23.547-19.109 42.664-42.664 42.664s-42.664-19.117-42.664-42.664v-85.336c0-70.57 57.43-128 128-128h128v-42.664c0-47.063 38.266-85.336 85.328-85.336 9.133 0 17.797 1.32 27.18 4.227l256.344 85.461c34.602 11.945 57.813 44.5 57.813 80.977v768c0 49.75-42.883 88.75-92.93 84.695zM456.828 563.5l-170.664 170.664c-12.203 12.203-30.547 15.875-46.508 9.258-15.914-6.609-26.32-22.188-26.32-39.422v-128h-170.672c-23.547 0-42.664-19.117-42.664-42.664 0-23.555 19.117-42.672 42.664-42.672h170.672v-128c0-17.234 10.406-32.805 26.32-39.422 15.961-6.609 34.305-2.945 46.508 9.258l170.664 170.672c16.688 16.68 16.688 43.641 0 60.328z" />
<glyph unicode="&#xe92c;" glyph-name="minus" data-tags="minus" d="M954.179 540.361h-884.361c-38.54 0-69.818-31.278-69.818-69.818v-46.543c0-38.54 31.278-69.818 69.818-69.818h884.361c38.54 0 69.818 31.278 69.818 69.818v46.543c0 38.54-31.278 69.818-69.818 69.818z" />
<glyph unicode="&#xe92d;" glyph-name="money" data-tags="money" d="M512 960c-282.752 0-512-229.248-512-512s229.248-512 512-512 512 229.248 512 512-229.248 512-512 512zM544 226.56v-34.56c0-17.664-14.336-32-32-32s-32 14.336-32 32v34.688c-32.768 5.376-62.784 18.752-85.248 38.656-13.248 11.776-14.4 31.936-2.688 45.184s31.936 14.336 45.184 2.688c18.048-16 45.312-25.216 74.752-25.216 52.032 0 96 29.312 96 64s-43.968 64-96 64c-88.192 0-160 57.408-160 128 0 61.824 55.040 113.536 128 125.44v34.56c0 17.664 14.336 32 32 32s32-14.336 32-32v-34.688c32.768-5.376 62.784-18.752 85.248-38.656 13.184-11.776 14.464-32 2.688-45.184s-31.936-14.336-45.184-2.688c-18.048 16-45.312 25.216-74.752 25.216-52.032 0-96-29.312-96-64s43.968-64 96-64c88.256 0 160-57.408 160-128 0-61.824-55.040-113.536-128-125.44z" />
<glyph unicode="&#xe92e;" glyph-name="money-1" data-tags="money-1" d="M512 240c-133.928 0-260.314 31.578-355.876 88.914-100.678 60.406-156.124 142.474-156.124 231.086s55.446 170.68 156.126 231.086c95.56 57.336 221.946 88.914 355.874 88.914s260.314-31.578 355.876-88.914c100.678-60.406 156.124-142.474 156.124-231.086s-55.446-170.68-156.126-231.086c-95.56-57.336-221.946-88.914-355.874-88.914zM160 252.248c0 0.952-0.538 1.822-1.386 2.254-12.162 6.178-23.992 12.678-35.416 19.534-48.438 29.062-88.246 62.852-118.696 100.704-1.498 1.86-4.502 0.786-4.502-1.604v-37.136c0-88.612 55.446-170.68 156.126-231.086 1.706-1.022 3.876 0.206 3.876 2.194v145.14zM659.012 29.168c49.522 9.11 96.482 22.832 139.426 40.816 0.948 0.398 1.562 1.328 1.562 2.356v149.838c0 1.766-1.75 2.984-3.408 2.372-43.416-16.042-89.942-28.302-138.48-36.482-1.218-0.206-2.114-1.256-2.114-2.492v-153.898c0.002-1.59 1.452-2.798 3.014-2.51zM225.562 69.984c42.944-17.982 89.902-31.704 139.426-40.816 1.564-0.288 3.012 0.92 3.012 2.51v153.898c0 1.236-0.894 2.286-2.114 2.492-48.536 8.18-95.064 20.44-138.48 36.482-1.658 0.612-3.408-0.606-3.408-2.372v-149.838c0.002-1.030 0.616-1.96 1.564-2.356zM592 176.802c0 1.486-1.266 2.646-2.746 2.518-25.42-2.198-51.22-3.32-77.254-3.32s-51.834 1.122-77.254 3.32c-1.48 0.128-2.746-1.032-2.746-2.518v-154.644c0-1.314 0.998-2.418 2.308-2.54 25.492-2.384 51.444-3.618 77.692-3.618s52.2 1.234 77.692 3.618c1.308 0.122 2.308 1.226 2.308 2.54zM900.804 274.034c-11.424-6.854-23.254-13.356-35.416-19.534-0.85-0.432-1.386-1.3-1.386-2.254v-145.138c0-1.988 2.17-3.218 3.876-2.194 100.676 60.406 156.122 142.474 156.122 231.086v37.136c0 2.39-3.004 3.464-4.502 1.602-30.45-37.852-70.258-71.642-118.694-100.704z" />
<glyph unicode="&#xe92f;" glyph-name="more" data-tags="more" d="M625.779 846.221c0-62.838-50.94-113.779-113.779-113.779s-113.779 50.94-113.779 113.779c0 62.838 50.94 113.779 113.779 113.779s113.779-50.94 113.779-113.779zM625.779 448c0-62.838-50.94-113.779-113.779-113.779s-113.779 50.94-113.779 113.779c0 62.838 50.94 113.779 113.779 113.779s113.779-50.94 113.779-113.779zM625.779 49.779c0-62.838-50.94-113.779-113.779-113.779s-113.779 50.94-113.779 113.779c0 62.838 50.94 113.779 113.779 113.779s113.779-50.94 113.779-113.779z" />
<glyph unicode="&#xe930;" glyph-name="plus" data-tags="plus" d="M932.571 539.429h-310.857c-10.098 0-18.286 8.187-18.286 18.286v310.857c0 50.491-40.937 91.429-91.429 91.429s-91.429-40.937-91.429-91.429v-310.857c0-10.098-8.187-18.286-18.286-18.286h-310.857c-50.491 0-91.429-40.937-91.429-91.429s40.937-91.429 91.429-91.429h310.857c10.098 0 18.286-8.187 18.286-18.286v-310.857c0-50.491 40.937-91.429 91.429-91.429s91.429 40.937 91.429 91.429v310.857c0 10.098 8.187 18.286 18.286 18.286h310.857c50.491 0 91.429 40.937 91.429 91.429s-40.937 91.429-91.429 91.429z" />
<glyph unicode="&#xe931;" glyph-name="progress-active" data-tags="progress" d="M154.219 156.672h-43.891c-60.836 0-110.328-49.5-110.328-110.336v-80.336c0-16.57 13.43-30 30-30h129.383c-3.336 9.391-5.164 19.484-5.164 30zM368.438 317.336h-43.883c-60.836 0-110.336-49.5-110.336-110.336v-241c0-16.57 13.43-30 30-30h129.383c-3.328 9.391-5.164 19.484-5.164 30zM1018.109 658.656l-214.227 289.203c-5.664 7.633-14.602 12.141-24.109 12.141s-18.453-4.508-24.109-12.141l-214.219-289.203c-6.742-9.102-7.781-21.234-2.688-31.352 5.102-10.117 15.461-16.508 26.797-16.508h77.109v-644.797c0-16.57 13.43-30 30-30h214.219c16.57 0 30 13.43 30 30v644.797h77.117c11.328 0 21.695 6.391 26.789 16.508 5.102 10.117 4.063 22.25-2.68 31.352zM582.664 478h-43.891c-60.836 0-110.336-49.492-110.336-110.328v-401.672c0-16.57 13.438-30 30-30h129.383c-3.328 9.391-5.156 19.484-5.156 30z" />
<glyph unicode="&#xe932;" glyph-name="repeat" data-tags="repeat" d="M930.916 401.464c-25.74 0-46.547-20.852-46.547-46.547 0-76.987-62.651-139.638-139.638-139.638h-372.371v139.638c0 17.874-10.286 34.211-26.344 41.939-16.244 7.726-35.283 5.586-49.293-5.586l-232.732-186.185c-11.032-8.844-17.454-22.202-17.454-36.353s6.424-27.508 17.454-36.353l232.732-186.185c8.424-6.702 18.712-10.194 29.091-10.194 6.842 0 13.778 1.536 20.2 4.608 16.058 7.726 26.344 24.064 26.344 41.939v139.638h372.371c128.328 0 232.732 104.404 232.732 232.732 0.002 25.694-20.804 46.547-46.545 46.547zM93.084 494.556c25.74 0 46.547 20.852 46.547 46.547 0 76.987 62.651 139.638 139.638 139.638h372.371v-139.638c0-17.874 10.286-34.211 26.344-41.939 6.47-3.072 13.358-4.608 20.2-4.608 10.38 0 20.666 3.49 29.091 10.194l232.732 186.185c11.032 8.844 17.454 22.202 17.454 36.353s-6.424 27.508-17.454 36.353l-232.73 186.185c-13.964 11.17-33.235 13.312-49.293 5.586s-26.344-24.064-26.344-41.939v-139.638h-372.371c-128.328 0-232.732-104.404-232.732-232.732 0-25.694 20.806-46.547 46.547-46.547z" />
<glyph unicode="&#xe933;" glyph-name="rules-active" data-tags="rules" d="M682 790c0-93.888-76.112-170-170-170s-170 76.112-170 170c0 93.888 76.112 170 170 170s170-76.112 170-170zM636.918 596.97c-35.994-23.374-78.896-36.97-124.918-36.97s-88.924 13.596-124.918 36.97c-39.79-15.206-76.682-37.64-108.76-66.432l233.678-87.63 233.678 87.63c-32.078 28.792-68.97 51.228-108.76 66.432zM872 340h-20c-16.568 0-30-13.432-30-30v-80c0-16.568 13.432-30 30-30h20c38.66 0 70 31.34 70 70s-31.34 70-70 70zM174.912 491.448c-8.088-5.606-12.912-14.818-12.912-24.658v-66.79h10c49.626 0 90-40.374 90-90v-80c0-49.626-40.374-90-90-90h-10v-63.21c0-12.506 7.758-23.7 19.466-28.090l300.534-112.7v454.080l-279.466 104.8c-9.214 3.458-19.536 2.176-27.622-3.432zM762 230v80c0 49.626 40.374 90 90 90h10v66.79c0 9.84-4.824 19.052-12.912 24.658-8.088 5.608-18.412 6.89-27.622 3.432l-279.466-104.8v-454.080l300.534 112.7c11.708 4.39 19.466 15.584 19.466 28.090v63.21h-10c-49.626 0-90 40.374-90 90zM202 230v80c0 16.568-13.432 30-30 30h-20c-38.66 0-70-31.34-70-70s31.34-70 70-70h20c16.568 0 30 13.432 30 30z" />
<glyph unicode="&#xe934;" glyph-name="search" data-tags="search" d="M1017.75 2.582l-297.465 297.465c56.42 69.654 90.382 158.206 90.382 254.618 0 223.5-181.834 405.335-405.335 405.335s-405.333-181.834-405.333-405.335 181.834-405.335 405.335-405.335c96.412 0 184.964 33.964 254.618 90.382l297.465-297.465c8.334-8.33 21.838-8.33 30.172 0l30.162 30.164c8.33 8.332 8.33 21.84-0.002 30.17zM405.335 234.665c-176.458 0-320.001 143.542-320.001 320.001s143.542 320.001 320.001 320.001 320.001-143.542 320.001-320.001-143.542-320.001-320.001-320.001z" />
<glyph unicode="&#xe935;" glyph-name="skills" data-tags="skills" d="M242.986 773.248l48.958 47.718c8.176 7.97 11.118 19.892 7.59 30.752-3.528 10.862-12.918 18.776-24.218 20.418l-67.652 9.832-30.268 61.31c-5.050 10.24-15.48 16.722-26.902 16.722-11.418-0.002-21.848-6.484-26.898-16.724l-30.254-61.308-67.656-9.832c-11.298-1.64-20.688-9.556-24.216-20.418-3.532-10.86-0.586-22.782 7.59-30.752l48.958-47.718-11.562-67.382c-1.93-11.256 2.7-22.63 11.938-29.342 5.226-3.798 11.414-5.73 17.636-5.73 4.774 0 9.566 1.138 13.958 3.448l60.512 31.816 60.52-31.818c4.39-2.306 9.184-3.446 13.958-3.446h0.102c16.542 0.032 29.942 13.452 29.942 30 0 2.302-0.258 4.546-0.75 6.702zM1022.53 851.718c-3.528 10.862-12.918 18.776-24.218 20.418l-67.652 9.832-30.266 61.31c-5.050 10.24-15.48 16.72-26.902 16.72-11.418-0.002-21.848-6.484-26.898-16.724l-30.254-61.306-67.656-9.832c-11.296-1.64-20.688-9.556-24.214-20.418-3.532-10.86-0.586-22.782 7.59-30.752l48.956-47.718-11.562-67.382c-1.93-11.256 2.7-22.63 11.938-29.342 5.226-3.798 11.414-5.73 17.636-5.73 4.774 0 9.566 1.138 13.956 3.448l60.512 31.816 60.52-31.818c4.39-2.306 9.184-3.446 13.958-3.446h0.102c16.544 0.032 29.942 13.452 29.942 30 0 2.302-0.258 4.546-0.75 6.702l-11.282 65.754 48.958 47.718c8.172 7.968 11.114 19.89 7.586 30.75zM419.517 773.246l-11.562-67.38c-1.93-11.254 2.7-22.63 11.938-29.342 9.238-6.714 21.484-7.598 31.594-2.284l60.516 31.816 60.516-31.816c4.39-2.308 9.184-3.448 13.958-3.448h0.094c16.546 0.026 29.95 13.448 29.95 30 0 2.302-0.258 4.546-0.75 6.702l-11.282 65.754 48.954 47.718c8.176 7.97 11.118 19.892 7.59 30.754-3.528 10.86-12.918 18.774-24.218 20.416l-67.644 9.832-30.268 61.308c-5.054 10.24-15.484 16.724-26.902 16.724-11.422 0-21.852-6.484-26.902-16.724l-30.254-61.306-67.66-9.832c-11.3-1.64-20.692-9.556-24.218-20.418-3.532-10.86-0.586-22.784 7.59-30.752zM289.199 62.402v-16.066c0-60.838 49.496-110.334 110.332-110.334h82.468v146.106l-132.524 132.526c-37.358-39.864-60.276-93.418-60.276-152.232zM542.001 82.108v-146.106h82.464c60.836 0 110.332 49.496 110.332 110.334v16.066c0 58.812-22.918 112.366-60.278 152.226zM512.001 544.401c-79.734 0-144.602-64.868-144.602-144.6 0-79.734 64.868-144.602 144.602-144.602 79.73 0 144.598 64.868 144.598 144.602 0 79.732-64.868 144.6-144.598 144.6zM441.083 207.879l70.918-70.92 70.922 70.922z" />
<glyph unicode="&#xe936;" glyph-name="store" data-tags="store" d="M731.427 521.947c-65.284-47.949-154.144-47.949-219.428 0-65.284-47.949-154.144-47.949-219.428 0-64.654-49.836-154.774-49.836-219.428 0 0-0.294 0-0.512 0-0.804v-475.429c0-60.594 49.121-109.714 109.714-109.714h182.856v402.287c0 20.199 16.374 36.572 36.572 36.572h219.428c20.199 0 36.572-16.374 36.572-36.572v-402.285h182.856c60.594 0 109.714 49.121 109.714 109.714v475.427c0 0.294 0 0.512 0 0.804-64.652-49.836-154.774-49.836-219.428 0zM73.142 667.429c0-60.594 49.121-109.714 109.714-109.714 31.626 0.019 61.659 13.892 82.176 37.961 14.312 15.208 38.246 15.936 53.454 1.622 0.557-0.525 1.099-1.065 1.622-1.622 40.663-45.386 110.419-49.211 155.805-8.548 3.004 2.691 5.856 5.544 8.548 8.548 14.312 15.208 38.246 15.936 53.454 1.622 0.557-0.525 1.099-1.065 1.622-1.622 40.665-45.386 110.419-49.211 155.805-8.548 3.002 2.691 5.856 5.544 8.548 8.548 14.312 15.208 38.246 15.936 53.454 1.622 0.557-0.525 1.099-1.065 1.622-1.622 20.518-24.069 50.548-37.941 82.176-37.961 60.594 0 109.714 49.121 109.714 109.714h-877.714zM109.714 960c-15.748 0.004-29.73-10.074-34.706-25.016l-64.804-194.413h245.796v219.428h-146.286zM329.143 960h146.286v-219.428h-146.286v219.428zM948.991 934.984c-4.976 14.942-18.958 25.020-34.706 25.016h-146.286v-219.428h245.796l-64.804 194.413zM548.571 960h146.286v-219.428h-146.286v219.428z" />
<glyph unicode="&#xe937;" glyph-name="strength" data-tags="strength" d="M1001.492 291.758c-29.438 64.961-84 110.906-153.641 129.391-91.305 24.234-199.445 3.93-287.164-49.563-38.617 25.438-84.063 39.195-130.797 39.195-41.25 0-81.578-10.75-117.055-30.797-2.727 106.656 21.211 269.133 32.016 336.234l133.32-28.359 123.641 51.516c19.086 7.953 32.914 24.016 37.93 44.078 5.023 20.063 0.391 40.742-12.703 56.742l-98.023 119.805h-307.57l-70.148-182.086c-105.055-208.477-148.547-528.523-151.273-681.633-0.75-42.367 15.188-82.352 44.891-112.586 29.719-30.25 69.445-46.914 111.859-46.914h248.461c37.102 0 73.672 8.695 106.602 25.211 10.203-1.602 20.789-3.344 31.844-5.156 57.914-9.492 127.094-20.836 193.945-20.836 17.070 0 34 0.742 50.531 2.438 99.734 10.25 169.547 54.25 207.492 130.773 35.43 71.453 37.563 152.57 5.844 222.547z" />
<glyph unicode="&#xe939;" glyph-name="user" data-tags="user" d="M504.701 466.736c67.765 0 126.445 24.305 174.39 72.258 47.945 47.945 72.25 106.609 72.25 174.382 0 67.75-24.305 126.421-72.258 174.382-47.953 47.937-106.625 72.242-174.382 72.242-67.773 0-126.437-24.305-174.382-72.25s-72.258-106.617-72.258-174.374c0-67.773 24.312-126.445 72.265-174.39 47.953-47.937 106.625-72.25 174.374-72.25zM936.254 172.597c-1.383 19.953-4.18 41.719-8.297 64.703-4.156 23.156-9.508 45.047-15.914 65.054-6.617 20.68-15.617 41.101-26.742 60.672-11.547 20.312-25.109 38-40.328 52.554-15.914 15.227-35.398 27.469-57.929 36.398-22.453 8.883-47.336 13.383-73.953 13.383-10.453 0-20.562-4.289-40.086-17-12.016-7.836-26.070-16.898-41.758-26.922-13.414-8.547-31.586-16.555-54.031-23.805-21.898-7.086-44.133-10.68-66.078-10.68s-44.172 3.594-66.093 10.68c-22.422 7.242-40.594 15.25-53.992 23.797-15.539 9.93-29.601 18.992-41.797 26.937-19.5 12.711-29.617 17-40.070 17-26.625 0-51.5-4.508-73.945-13.398-22.516-8.914-42.008-21.156-57.937-36.398-15.211-14.562-28.781-32.242-40.312-52.547-11.117-19.57-20.117-39.984-26.742-60.679-6.398-20.008-11.75-41.89-15.906-65.047-4.117-22.953-6.914-44.726-8.297-64.726-1.359-19.594-2.047-39.93-2.047-60.469 0-53.453 16.992-96.726 50.5-128.64 33.094-31.492 76.883-47.469 130.132-47.469h493.061c53.25 0 97.023 15.969 130.124 47.469 33.515 31.89 50.508 75.172 50.508 128.648-0.008 20.633-0.703 40.984-2.070 60.484z" />
<glyph unicode="&#xe93a;" glyph-name="winner" data-tags="winner" d="M511.998 651.17c85.144 0 154.414 69.272 154.414 154.416s-69.27 154.414-154.414 154.414c-85.142 0-154.41-69.27-154.41-154.414s69.266-154.416 154.41-154.416zM831.2 94.534v128.534c0 34.26-27.876 62.132-62.132 62.132h-514.134c-34.262 0-62.132-27.874-62.132-62.132v-128.534c0-34.26 27.872-62.132 62.132-62.132h514.132c34.26-0.002 62.134 27.872 62.134 62.132zM979.338 62.4l41.496 82.982c4.648 9.3 4.152 20.346-1.312 29.19-5.466 8.846-15.124 14.228-25.52 14.228h-102.8v-94.268c0-64.784-50.71-117.924-114.518-121.872 9.746-21.588 31.462-36.66 56.65-36.66h160.668c10.396 0 20.052 5.382 25.52 14.228 5.464 8.844 5.96 19.888 1.312 29.19zM132.802 94.534v94.266h-102.8c-10.398 0-20.054-5.382-25.52-14.228-5.466-8.844-5.964-19.888-1.314-29.188l41.49-82.984-41.49-82.984c-4.65-9.298-4.152-20.344 1.314-29.188 5.464-8.846 15.12-14.228 25.52-14.228h160.664c25.188 0 46.906 15.072 56.652 36.662-63.808 3.948-114.516 57.088-114.516 121.872zM353.466 543.908v-198.708h317.066v198.708l197.32 197.326c17.808 17.804 27.614 41.476 27.614 66.656s-9.804 48.852-27.61 66.652c-17.804 17.808-41.478 27.616-66.656 27.616-25.18 0-48.852-9.806-66.656-27.614l-15.012-15.012c4.486-17.242 6.878-35.32 6.878-53.948 0-118.23-96.188-214.416-214.414-214.416s-214.41 96.186-214.41 214.416c0 18.628 2.39 36.708 6.876 53.95l-15.006 15.008c-17.804 17.808-41.478 27.616-66.66 27.616-25.18 0-48.852-9.806-66.656-27.614-17.804-17.804-27.61-41.476-27.61-66.654-0.002-25.18 9.804-48.852 27.61-66.654z" />
<glyph unicode="&#xe93d;" glyph-name="tasks" data-tags="list" d="M682.878 882.399h-74.924c-9.349 0.289-17.383 6.718-19.717 15.772-7.1 36.886-40.011 63.104-77.551 61.779-37.767 0.662-70.516-25.982-77.551-63.094-2.43-8.806-10.59-14.789-19.717-14.459h-72.295v-131.445h341.756v131.447zM893.189-3.535v753.176c0.081 29.763-23.984 53.957-53.748 54.037-1.364 0.003-2.727-0.045-4.088-0.143h-113.043v-67.037c0-10.517-6.572-24.976-17.088-24.976h-387.76c-10.517 0-15.772 14.459-15.772 24.976v67.034h-113.043c-29.683 2.179-55.514-20.12-57.69-49.805-0.101-1.361-0.148-2.725-0.143-4.088v-753.176c-0.735-32.659 25.147-59.731 57.806-60.463 0.010 0 0.020 0 0.030 0h646.707c32.659 0.717 58.553 27.776 57.836 60.435-0.003 0.010-0.003 0.020-0.003 0.030zM405.53 169.971l-102.527-95.955c-3.278-3.922-8.041-6.302-13.143-6.572-5.492 0.216-10.683 2.576-14.459 6.572l-53.891 55.207c-7.163 8.021-6.577 20.301 1.313 27.602 7.666 7.515 19.936 7.515 27.602 0l39.432-42.061 89.383 84.125c8.962 6.184 21.242 3.935 27.426-5.027 5.047-7.311 4.579-17.093-1.137-23.891zM405.53 380.283v0l-102.527-95.955c-3.278-3.922-8.041-6.302-13.143-6.572-5.492 0.216-10.683 2.576-14.459 6.572l-53.891 55.207c-7.163 8.021-6.577 20.301 1.313 27.602 7.666 7.515 19.936 7.515 27.602 0l39.432-42.061 89.383 84.125c8.962 6.184 21.242 3.935 27.426-5.027 5.047-7.311 4.579-17.093-1.137-23.891zM405.53 590.594l-102.527-95.955c-3.278-3.922-8.041-6.302-13.143-6.572-5.492 0.216-10.683 2.576-14.459 6.572l-53.891 55.207c-7.163 8.021-6.577 20.301 1.313 27.602 7.666 7.515 19.936 7.515 27.602 0l39.432-42.061 89.383 84.125c8.962 6.184 21.242 3.935 27.426-5.027 5.047-7.311 4.579-17.093-1.137-23.891zM788.034 93.734h-302.324c-10.889 0-19.717 8.828-19.717 19.717s8.828 19.717 19.717 19.717h302.321c10.889 0 19.717-8.828 19.717-19.717s-8.826-19.717-19.715-19.717zM788.034 304.045h-302.324c-10.889 0-19.717 8.828-19.717 19.717s8.828 19.717 19.717 19.717h302.321c10.889 0 19.717-8.828 19.717-19.717s-8.826-19.717-19.715-19.717zM788.034 514.356h-302.324c-10.889 0-19.717 8.828-19.717 19.717s8.828 19.717 19.717 19.717h302.321c10.889 0 19.717-8.828 19.717-19.717 0-10.891-8.826-19.717-19.715-19.717z" />
<glyph unicode="&#xe93f;" glyph-name="adventure" data-tags="fight-1" d="M991.782 123.782l-140.324 140.324-155.564-155.562 140.326-140.326c42.958-42.958 112.606-42.958 155.564 0 42.956 42.958 42.956 112.606-0.002 155.564zM441.244 92.686c7.676 0 15.356 2.93 21.212 8.788 11.716 11.716 11.716 30.71 0 42.426l-35.248 35.248 585.782 478.928c6.968 5.698 11.010 14.224 11.010 23.226v248.698c0 16.568-13.432 30-30 30h-248.702c-9.002 0-17.528-4.042-23.226-11.010l-478.926-585.78-35.248 35.248c-11.714 11.714-30.71 11.716-42.426 0s-11.716-30.71 0-42.426l254.558-254.558c5.858-5.86 13.534-8.788 21.214-8.788zM837.224 815.65c11.714 11.716 30.71 11.716 42.426 0s11.716-30.71 0-42.426l-523.26-523.26-42.426 42.426zM187.782-31.782l140.324 140.324-155.562 155.564-140.326-140.326c-42.958-42.958-42.958-112.606 0-155.564 42.958-42.956 112.606-42.956 155.564 0.002zM11.010 658.074l237.174-193.91 92.314 112.912-196.148 196.148c-11.716 11.714-11.716 30.71 0 42.426s30.71 11.716 42.426 0l191.892-191.892 94.582 115.684-171.324 209.548c-5.698 6.968-14.224 11.010-23.226 11.010h-248.7c-16.568 0-30-13.432-30-30v-248.702c0-9.002 4.042-17.526 11.010-23.224zM816.102 398.456l-35.248-35.248-13.512 16.526-79.584-65.066 22.278-22.278-42.426-42.426-26.536 26.536-81.678-66.778 37.396-30.574-35.248-35.248c-11.714-11.714-11.716-30.71 0-42.426s30.71-11.716 42.426 0l254.558 254.558c5.858 5.858 8.788 13.534 8.788 21.212 0 7.676-2.93 15.356-8.788 21.212-11.716 11.716-30.71 11.716-42.426 0z" />
<glyph unicode="&#xe941;" glyph-name="book" data-tags="book" d="M682 790c0-93.888-76.112-170-170-170s-170 76.112-170 170c0 93.888 76.112 170 170 170s170-76.112 170-170zM636.918 596.97c-35.994-23.374-78.896-36.97-124.918-36.97s-88.924 13.596-124.918 36.97c-39.79-15.206-76.682-37.64-108.76-66.432l233.678-87.63 233.678 87.63c-32.078 28.792-68.97 51.228-108.76 66.432zM872 340h-20c-16.568 0-30-13.432-30-30v-80c0-16.568 13.432-30 30-30h20c38.66 0 70 31.34 70 70s-31.34 70-70 70zM174.912 491.448c-8.088-5.606-12.912-14.818-12.912-24.658v-66.79h10c49.626 0 90-40.374 90-90v-80c0-49.626-40.374-90-90-90h-10v-63.21c0-12.506 7.758-23.7 19.466-28.090l300.534-112.7v454.080l-279.466 104.8c-9.214 3.458-19.536 2.176-27.622-3.432zM762 230v80c0 49.626 40.374 90 90 90h10v66.79c0 9.84-4.824 19.052-12.912 24.658-8.088 5.608-18.412 6.89-27.622 3.432l-279.466-104.8v-454.080l300.534 112.7c11.708 4.39 19.466 15.584 19.466 28.090v63.21h-10c-49.626 0-90 40.374-90 90zM202 230v80c0 16.568-13.432 30-30 30h-20c-38.66 0-70-31.34-70-70s31.34-70 70-70h20c16.568 0 30 13.432 30 30z" />
<glyph unicode="&#xe943;" glyph-name="progress" data-tags="growth-1" d="M154.219 156.672h-43.891c-60.836 0-110.328-49.5-110.328-110.336v-80.336c0-16.57 13.43-30 30-30h129.383c-3.336 9.391-5.164 19.484-5.164 30zM368.438 317.336h-43.883c-60.836 0-110.336-49.5-110.336-110.336v-241c0-16.57 13.43-30 30-30h129.383c-3.328 9.391-5.164 19.484-5.164 30zM1018.109 658.656l-214.227 289.203c-5.664 7.633-14.602 12.141-24.109 12.141s-18.453-4.508-24.109-12.141l-214.219-289.203c-6.742-9.102-7.781-21.234-2.688-31.352 5.102-10.117 15.461-16.508 26.797-16.508h77.109v-644.797c0-16.57 13.43-30 30-30h214.219c16.57 0 30 13.43 30 30v644.797h77.117c11.328 0 21.695 6.391 26.789 16.508 5.102 10.117 4.063 22.25-2.68 31.352zM582.664 478h-43.891c-60.836 0-110.336-49.492-110.336-110.328v-401.672c0-16.57 13.438-30 30-30h129.383c-3.328 9.391-5.156 19.484-5.156 30z" />
<glyph unicode="&#xe944;" glyph-name="logout" data-tags="logout-1" d="M639.993 405.329c-23.594 0-42.664-19.117-42.664-42.664v-170.67c0-23.508-19.117-42.664-42.671-42.664h-127.999v639.993c0 36.437-23.211 68.991-58.109 81.109l-12.633 4.227h198.74c23.554 0 42.671-19.156 42.671-42.671v-127.999c0-23.547 19.070-42.664 42.664-42.664s42.664 19.117 42.664 42.664v127.999c0 70.57-57.429 127.999-127.999 127.999h-458.659c-1.625 0-2.984-0.727-4.562-0.937-2.055 0.172-4.016 0.937-6.101 0.937-47.062 0-85.335-38.265-85.335-85.327v-767.992c0-36.437 23.211-68.991 58.109-81.109l256.771-85.593c8.703-2.687 17.359-3.969 26.453-3.969 47.062 0 85.327 38.273 85.327 85.335v42.664h127.999c70.57 0 127.999 57.429 127.999 127.999v170.67c0 23.547-19.070 42.664-42.664 42.664zM1011.489 563.491l-170.67 170.662c-12.195 12.203-30.547 15.875-46.5 9.266-15.914-6.617-26.328-22.187-26.328-39.429v-127.999h-170.662c-23.554 0-42.671-19.109-42.671-42.664s19.117-42.664 42.671-42.664h170.662v-127.999c0-17.242 10.414-32.812 26.328-39.429 15.953-6.609 34.304-2.937 46.5 9.258l170.67 170.67c16.68 16.68 16.68 43.648 0 60.327z" />
<glyph unicode="&#xe945;" glyph-name="home" data-tags="1946436" d="M996.391 514.609c-0.023 0.023-0.047 0.047-0.070 0.070l-417.711 417.695c-17.805 17.813-41.477 27.625-66.656 27.625s-48.852-9.805-66.664-27.617l-417.492-417.484c-0.141-0.141-0.281-0.289-0.422-0.43-36.563-36.773-36.5-96.438 0.18-133.117 16.758-16.766 38.891-26.477 62.555-27.492 0.961-0.094 1.93-0.141 2.906-0.141h16.648v-307.398c0-60.828 49.492-110.32 110.336-110.32h163.422c16.563 0 30 13.43 30 30v241c0 27.758 22.578 50.336 50.336 50.336h96.391c27.758 0 50.336-22.578 50.336-50.336v-241c0-16.57 13.43-30 30-30h163.422c60.844 0 110.336 49.492 110.336 110.32v307.398h15.438c25.172 0 48.844 9.805 66.664 27.617 36.719 36.742 36.734 96.508 0.047 133.273z" />
<glyph unicode="&#xe946;" glyph-name="arrow-right" data-tags="arrow" d="M974.597 489.178h-933.417c-22.744 0-41.181-18.448-41.181-41.181s18.434-41.181 41.181-41.181h933.417c22.744 0 41.181 18.434 41.181 41.181s-18.434 41.181-41.181 41.181zM1011.934 477.125l-403.552 403.568c-16.088 16.074-42.141 16.074-58.229 0-16.088-16.088-16.088-42.169 0-58.243l374.437-374.451-374.437-374.453c-16.088-16.074-16.088-42.155 0-58.229 8.044-8.044 18.572-12.066 29.114-12.066s21.070 4.022 29.114 12.066l403.552 403.566c16.088 16.088 16.088 42.171 0 58.243z" />
<glyph unicode="&#xe947;" glyph-name="delete" data-tags="delete" d="M653.245 589.003c-13.246 0-23.981-10.735-23.981-23.981v-453.245c0-13.236 10.735-23.981 23.981-23.981s23.981 10.745 23.981 23.981v453.245c0 13.246-10.735 23.981-23.981 23.981zM370.267 589.003c-13.246 0-23.981-10.735-23.981-23.981v-453.245c0-13.236 10.735-23.981 23.981-23.981s23.981 10.745 23.981 23.981v453.245c0 13.246-10.735 23.981-23.981 23.981zM164.029 655.148v-590.846c0-34.923 12.806-67.719 35.176-91.25 22.267-23.597 53.255-36.993 85.686-37.049h453.732c32.44 0.056 63.428 13.452 85.686 37.049 22.37 23.532 35.176 56.328 35.176 91.25v590.846c44.468 11.803 73.283 54.763 67.335 100.393-5.958 45.62-44.824 79.747-90.838 79.756h-122.782v29.976c0.141 25.208-9.827 49.414-27.672 67.222-17.845 17.799-42.089 27.71-67.297 27.503h-212.945c-25.208 0.206-49.452-9.705-67.297-27.503-17.845-17.808-27.813-42.014-27.672-67.222v-29.976h-122.782c-46.014-0.009-84.88-34.136-90.838-79.756-5.948-45.63 22.866-88.59 67.335-100.393zM738.622-16.034h-453.732c-41.002 0-72.899 35.222-72.899 80.337v588.738h599.53v-588.738c0-45.115-31.897-80.337-72.899-80.337zM358.277 865.274c-0.159 12.487 4.749 24.506 13.611 33.321 8.852 8.815 20.899 13.658 33.396 13.443h212.945c12.496 0.215 24.543-4.628 33.396-13.443 8.862-8.806 13.77-20.834 13.611-33.321v-29.976h-306.959zM187.533 787.335h648.448c23.841 0 43.166-19.325 43.166-43.166s-19.325-43.166-43.166-43.166h-648.448c-23.841 0-43.166 19.325-43.166 43.166s19.325 43.166 43.166 43.166zM511.756 589.003c-13.246 0-23.981-10.735-23.981-23.981v-453.245c0-13.236 10.735-23.981 23.981-23.981s23.981 10.745 23.981 23.981v453.245c0 13.246-10.735 23.981-23.981 23.981z" />
<glyph unicode="&#xe948;" glyph-name="edit" data-tags="edit" d="M881.504 889.686c-51.612 51.521-135.19 51.521-186.802 0l-46.76-47.017-498.818-498.562c-0.256-0.256-0.256-0.529-0.529-0.529-0.529-0.793-1.322-1.579-1.843-2.372 0-0.264-0.273-0.264-0.273-0.529-0.529-0.793-0.785-1.322-1.322-2.116-0.256-0.264-0.256-0.521-0.521-0.793-0.264-0.793-0.529-1.322-0.802-2.116 0-0.256-0.256-0.256-0.256-0.529l-110.438-332.099c-3.24-9.455-0.777-19.926 6.339-26.942 5-4.934 11.744-7.694 18.76-7.669 2.868 0.050 5.711 0.496 8.455 1.322l331.843 110.702c0.256 0 0.256 0 0.529 0.256 0.835 0.248 1.636 0.603 2.372 1.066 0.207 0.025 0.388 0.116 0.537 0.256 0.785 0.529 1.843 1.066 2.636 1.595 0.785 0.521 1.587 1.314 2.38 1.843 0.264 0.273 0.521 0.273 0.521 0.529 0.273 0.264 0.802 0.521 1.066 1.058l544.52 544.52c51.521 51.612 51.521 135.19 0 186.793zM390.082 142.529l-183.884 183.876 460.239 460.239 183.884-183.876zM180.297 277.529l160.645-160.636-241.223-80.314zM915.851 668.554l-28.008-28.273-183.892 183.892 28.281 28.264c30.934 30.909 81.074 30.909 112.016 0l71.859-71.859c30.702-31.074 30.587-81.099-0.256-112.025z" />
</font>
</defs>
</svg>
